<svg xmlns="http://www.w3.org/2000/svg" width="32" height="32" viewBox="0 0 32 32">
    <g fill="none" fill-rule="evenodd">
        <g>
            <g>
                <g>
                    <path fill="#D8D8D8" fill-opacity="0" d="M0 0H32V32H0z" transform="translate(-328 -121) translate(20 121) translate(308)"/>
                    <path fill="#242734" d="M16 9c.552 0 1 .448 1 1v5h5c.552 0 1 .448 1 1s-.448 1-1 1h-5v5c0 .552-.448 1-1 1s-1-.448-1-1v-5h-5c-.552 0-1-.448-1-1s.448-1 1-1h5v-5c0-.552.448-1 1-1z" transform="translate(-328 -121) translate(20 121) translate(308) rotate(45 16 16)"/>
                </g>
            </g>
        </g>
    </g>
</svg>
