<svg viewBox="0 0 512 512" xmlns="http://www.w3.org/2000/svg"><g data-name="1"><path d="M192.27 242.55a58.37 58.37 0 1 1 58.37-58.37 58.43 58.43 0 0 1-58.37 58.37Zm0-86.74a28.37 28.37 0 1 0 28.37 28.37 28.4 28.4 0 0 0-28.37-28.37ZM321.91 372.19a58.37 58.37 0 1 1 58.37-58.37 58.45 58.45 0 0 1-58.37 58.37Zm0-86.74a28.37 28.37 0 1 0 28.37 28.37 28.4 28.4 0 0 0-28.37-28.37ZM198.17 351.23a15 15 0 0 1-12.42-23.39l117.81-174.47a15 15 0 0 1 24.87 16.79L210.61 344.63a15 15 0 0 1-12.44 6.6Z" fill="#242635" class="fill-000000"></path><path d="M257.09 450c-110.83 0-201-90.17-201-201s90.17-201 201-201 201 90.17 201 201-90.17 201-201 201Zm0-372c-94.29 0-171 76.71-171 171s76.71 171 171 171 171-76.71 171-171-76.71-171-171-171Z" fill="#242635" class="fill-000000"></path></g></svg>