<svg viewBox="0 0 24 24" xml:space="preserve" xmlns="http://www.w3.org/2000/svg" enable-background="new 0 0 24 24"><path d="M13.5 23.5a.487.487 0 0 1-.076-.006l-13-2A.5.5 0 0 1 0 21V4a.5.5 0 0 1 .388-.487l13-3A.497.497 0 0 1 14 1v22a.496.496 0 0 1-.5.5zM1 20.571l12 1.846V1.628L1 4.398v16.173z" fill="#242635" class="fill-000000"></path><path d="M23.5 21.5h-10a.5.5 0 0 1 0-1H23v-17h-9.5a.5.5 0 0 1 0-1h10a.5.5 0 0 1 .5.5v18a.5.5 0 0 1-.5.5zM9.5 16.5a.497.497 0 0 1-.424-.235l-5-8a.5.5 0 0 1 .848-.53l5 8a.5.5 0 0 1-.424.765z" fill="#242635" class="fill-000000"></path><path d="M4.5 16.5a.5.5 0 0 1-.424-.765l5-8a.5.5 0 0 1 .848.53l-5 8a.5.5 0 0 1-.424.235zM17.5 21.5a.5.5 0 0 1-.5-.5V3a.5.5 0 0 1 1 0v18a.5.5 0 0 1-.5.5z" fill="#242635" class="fill-000000"></path><path d="M23.5 18.5h-10a.5.5 0 0 1 0-1h10a.5.5 0 0 1 0 1zM23.5 15.5h-10a.5.5 0 0 1 0-1h10a.5.5 0 0 1 0 1zM23.5 12.5h-10a.5.5 0 0 1 0-1h10a.5.5 0 0 1 0 1zM23.5 9.5h-10a.5.5 0 0 1 0-1h10a.5.5 0 1 1 0 1zM23.5 6.5h-10a.5.5 0 0 1 0-1h10a.5.5 0 1 1 0 1z" fill="#242635" class="fill-000000"></path></svg>