<svg viewBox="0 0 846.66 846.66" xml:space="preserve" xmlns="http://www.w3.org/2000/svg" shape-rendering="geometricPrecision" text-rendering="geometricPrecision" image-rendering="optimizeQuality" fill-rule="evenodd" clip-rule="evenodd"><path d="M123.75 122.22h57.84V89.96c0-44.59 36.4-80.99 80.99-80.99h460.33c44.59 0 80.99 36.4 80.99 80.99v553.49c0 44.59-36.41 80.98-80.99 80.98h-57.84v32.27c0 44.59-36.4 80.99-80.99 80.99H123.75c-44.59 0-80.99-36.4-80.99-80.99V203.21c0-44.59 36.4-80.99 80.99-80.99zm99.26 0h361.07c44.59 0 80.99 36.4 80.99 80.99v479.8h57.84c21.71 0 39.56-17.85 39.56-39.56V89.96c0-21.72-17.84-39.57-39.56-39.57H262.58c-21.72 0-39.57 17.85-39.57 39.57v32.26zm140.49 193.5c-27.24 0-27.24-41.42 0-41.42h165.32c27.24 0 27.24 41.42 0 41.42H363.5zM188.6 699.31c-27.24 0-27.24-41.42 0-41.42h330.63c27.24 0 27.24 41.42 0 41.42H188.6zm0-228.1c-27.24 0-27.24-41.42 0-41.42h330.63c27.24 0 27.24 41.42 0 41.42H188.6zm0 76.03c-27.24 0-27.24-41.42 0-41.42h330.63c27.24 0 27.24 41.42 0 41.42H188.6zm0 76.04c-27.24 0-27.24-41.42 0-41.42h330.63c27.24 0 27.24 41.42 0 41.42H188.6zm174.9-241.8c-27.24 0-27.24-41.43 0-41.43h165.32c27.24 0 27.24 41.43 0 41.43H363.5zM179.01 260.6h85.86c11.43 0 20.71 9.27 20.71 20.71v93.16c0 11.43-9.28 20.71-20.71 20.71h-85.86c-11.44 0-20.71-9.28-20.71-20.71v-93.16c0-11.44 9.27-20.71 20.71-20.71zm65.15 41.42h-44.44v51.73h44.44v-51.73zm339.92-138.38H123.75c-21.72 0-39.56 17.85-39.56 39.57V756.7c0 21.72 17.84 39.57 39.56 39.57h460.33c21.72 0 39.57-17.85 39.57-39.57V203.21c0-21.72-17.85-39.57-39.57-39.57z" fill="#242635" fill-rule="nonzero" class="fill-000000"></path></svg>