<svg id="SvgjsSvg1011" width="288" height="288" xmlns="http://www.w3.org/2000/svg" version="1.1" xmlns:xlink="http://www.w3.org/1999/xlink" xmlns:svgjs="http://svgjs.com/svgjs"><defs id="SvgjsDefs1012"></defs><g id="SvgjsG1013"><svg xmlns="http://www.w3.org/2000/svg" width="288" height="288" viewBox="0 0 32 32"><path d="M 16.048828 4 C 11.643732 4 8.0488381 7.4901281 8.0488281 11.798828 C 8.0488331 13.928509 8.9292975 15.854594 10.349609 17.261719 L 7.9667969 26.734375 A 0.50005 0.50005 0 0 0 8.6972656 27.292969 L 11.642578 25.636719 L 13.371094 28.550781 A 0.50005 0.50005 0 0 0 14.287109 28.417969 L 16 21.613281 L 17.712891 28.417969 A 0.50005 0.50005 0 0 0 18.628906 28.550781 L 20.357422 25.636719 L 23.302734 27.292969 A 0.50005 0.50005 0 0 0 24.033203 26.734375 L 21.669922 17.339844 C 23.136748 15.926503 24.048823 13.967849 24.048828 11.798828 C 24.048818 7.4901281 20.453924 4 16.048828 4 z M 16.048828 5 C 19.927989 5 23.048819 8.0455281 23.048828 11.798828 C 23.048819 15.552028 19.927989 18.597656 16.048828 18.597656 C 12.169667 18.597656 9.0488368 15.552028 9.0488281 11.798828 C 9.0488368 8.0455281 12.169667 5 16.048828 5 z M 16.019531 8.6445312 A 0.50725236 0.49294986 0 0 0 15.632812 8.8535156 L 14.599609 10.28125 L 12.882812 10.798828 A 0.50725236 0.49294986 0 0 0 12.626953 11.5625 L 13.701172 12.962891 L 13.675781 14.708984 A 0.50725236 0.49294986 0 0 0 14.199219 15.207031 A 0.50725236 0.49294986 0 0 0 14.347656 15.179688 L 16.048828 14.617188 L 17.748047 15.179688 A 0.50725236 0.49294986 0 0 0 18.419922 14.708984 L 18.396484 12.962891 L 19.470703 11.5625 A 0.50725236 0.49294986 0 0 0 19.212891 10.798828 L 17.498047 10.28125 L 16.462891 8.8535156 A 0.50725236 0.49294986 0 0 0 16.019531 8.6445312 z M 16.048828 9.9921875 L 16.769531 10.984375 A 0.50725236 0.49294986 0 0 0 17.033203 11.171875 L 18.228516 11.533203 L 17.478516 12.505859 A 0.50725236 0.49294986 0 0 0 17.376953 12.806641 L 17.396484 14.021484 L 16.212891 13.630859 A 0.50725236 0.49294986 0 0 0 15.884766 13.630859 L 14.701172 14.021484 L 14.720703 12.806641 A 0.50725236 0.49294986 0 0 0 14.617188 12.505859 L 13.867188 11.533203 L 15.064453 11.171875 A 0.50725236 0.49294986 0 0 0 15.326172 10.984375 L 16.048828 9.9921875 z M 11.199219 17.986328 C 12.406002 18.886847 13.878596 19.45809 15.482422 19.568359 L 13.613281 26.996094 L 12.253906 24.707031 A 0.50005 0.50005 0 0 0 11.580078 24.525391 L 9.21875 25.851562 L 11.199219 17.986328 z M 20.816406 18.046875 L 22.78125 25.851562 L 20.419922 24.525391 A 0.50005 0.50005 0 0 0 19.746094 24.707031 L 18.386719 26.996094 L 16.519531 19.574219 C 18.123941 19.482581 19.600904 18.930146 20.816406 18.046875 z " color="#000" enable-background="accumulate" font-family="sans-serif" font-weight="400" overflow="visible" style="line-height:normal;text-indent:0;text-align:start;text-decoration-line:none;text-decoration-style:solid;text-decoration-color:#000;text-transform:none;block-progression:tb;white-space:normal;isolation:auto;mix-blend-mode:normal;solid-color:#000;solid-opacity:1" fill="#242635" class="color000 svgShape"></path></svg></g></svg>