<?xml version="1.0" encoding="utf-8"?>
<!-- Generator: Adobe Illustrator 23.0.0, SVG Export Plug-In . SVG Version: 6.00 Build 0)  -->
<svg version="1.1" id="Layer_1" xmlns="http://www.w3.org/2000/svg" xmlns:xlink="http://www.w3.org/1999/xlink" x="0px" y="0px"
	 viewBox="0 0 24 24" style="enable-background:new 0 0 24 24;" xml:space="preserve">
<style type="text/css">
	.st0{fill-rule:evenodd;clip-rule:evenodd;fill:#242635;}
</style>
<g id="SvgjsG1027">
	<path class="st0" d="M5.45,15.05c-0.01,0.01-0.01,0.02-0.02,0.03l-2.95,5.51c-0.14,0.27-0.12,0.59,0.05,0.84
		c0.17,0.25,0.47,0.38,0.77,0.34l2.36-0.32l1.2,2.05c0.15,0.25,0.42,0.41,0.71,0.4c0.29-0.01,0.56-0.17,0.7-0.43l3.01-5.62
		c0.23,0.02,0.46,0.03,0.69,0.03c0.25,0,0.5-0.01,0.74-0.03l3.01,5.63c0.14,0.26,0.41,0.42,0.7,0.43c0.29,0,0.57-0.15,0.71-0.4
		l1.2-2.05l2.36,0.32c0.3,0.04,0.6-0.09,0.77-0.34c0.17-0.25,0.19-0.58,0.05-0.84l-2.95-5.51c-0.01-0.02-0.03-0.05-0.04-0.07
		c1.46-1.59,2.35-3.7,2.35-6.02c0-4.91-3.99-8.9-8.9-8.9s-8.9,3.99-8.9,8.9C3.07,11.33,3.98,13.46,5.45,15.05z M17.29,16.13
		c-0.86,0.64-1.84,1.13-2.9,1.43l2.08,3.89l0.74-1.27c0.17-0.28,0.48-0.44,0.81-0.39l1.33,0.18C19.34,19.96,17.29,16.13,17.29,16.13
		z M6.69,16.16l-2.03,3.8l1.33-0.18c0.32-0.04,0.64,0.11,0.81,0.39l0.74,1.27l2.07-3.87C8.54,17.28,7.56,16.79,6.69,16.16z
		 M11.97,1.71c4.02,0,7.28,3.26,7.28,7.28s-3.26,7.28-7.28,7.28s-7.28-3.26-7.28-7.28S7.95,1.71,11.97,1.71z M10.32,6.53L8.11,6.94
		C7.82,7,7.58,7.21,7.49,7.49C7.39,7.77,7.46,8.08,7.67,8.29l1.55,1.63l-0.29,2.23c-0.04,0.29,0.09,0.59,0.33,0.76
		c0.24,0.17,0.56,0.2,0.82,0.08l2.03-0.97l2.03,0.97c0.27,0.13,0.58,0.1,0.82-0.08c0.24-0.17,0.36-0.47,0.33-0.76l-0.29-2.23
		l1.55-1.63c0.2-0.21,0.27-0.52,0.18-0.81C16.63,7.21,16.39,7,16.1,6.94l-2.21-0.41l-1.08-1.97c-0.14-0.26-0.41-0.42-0.71-0.42
		s-0.57,0.16-0.71,0.42C11.39,4.56,10.32,6.53,10.32,6.53z M12.1,6.64l0.39,0.72c0.11,0.19,0.25,0.36,0.43,0.49
		c0.18,0.13,0.39,0.22,0.6,0.26l0.81,0.15l-0.57,0.6c-0.15,0.16-0.27,0.35-0.34,0.56c-0.07,0.21-0.09,0.43-0.06,0.65l0.11,0.82
		l-0.74-0.35c-0.2-0.09-0.42-0.14-0.64-0.14s-0.44,0.05-0.64,0.14l-0.74,0.35l0.11-0.82c0.03-0.22,0.01-0.44-0.06-0.65
		c-0.07-0.21-0.18-0.4-0.34-0.56l-0.57-0.6l0.81-0.15c0.22-0.04,0.42-0.13,0.6-0.26c0.18-0.13,0.33-0.3,0.43-0.49L12.1,6.64z"/>
</g>
</svg>
