<?xml version="1.0" encoding="utf-8"?>
<!-- Generator: Adobe Illustrator 23.0.0, SVG Export Plug-In . SVG Version: 6.00 Build 0)  -->
<svg version="1.1" xmlns="http://www.w3.org/2000/svg" xmlns:xlink="http://www.w3.org/1999/xlink" x="0px" y="0px"
	 viewBox="0 0 24 24" style="enable-background:new 0 0 24 24;" xml:space="preserve">
<style type="text/css">
	.st0{fill:#242635;}
</style>
<g id="Layer_1">
	<g id="SvgjsG1032_1_">
		<path class="st0" d="M23.62,3.86H0.38C0.17,3.86,0,4.03,0,4.24v15.75c0,0.21,0.17,0.38,0.38,0.38h23.25
			c0.21,0,0.38-0.17,0.38-0.38V4.24C24,4.03,23.83,3.86,23.62,3.86z M23.25,17.3l-4.45-2.94h4.45V17.3z M23.25,9.86h-4.39l4.39-2.94
			V9.86z M23.25,6.02l-5.74,3.84h-3.26V9.28l7.05-4.66h1.95V6.02z M16.36,6.98l-2.11,1.4V4.61h5.69L16.36,6.98z M9.75,4.61v3.77
			l-2.11-1.4L4.06,4.61H9.75z M0.75,4.61H2.7l7.05,4.66v0.59H6.56L0.75,6.02V4.61z M0.75,14.36H5.2L0.75,17.3V14.36z M0.75,6.92
			L5.2,9.86H0.75V6.92z M0.75,19.61V18.2l5.81-3.84h3.19v0.59L2.7,19.61H0.75z M9.75,19.61H4.06l5.69-3.77V19.61z M10.5,19.61v-5.63
			c0-0.21-0.17-0.38-0.38-0.38H0.75v-3h9.38c0.21,0,0.38-0.17,0.38-0.38V4.61h3v5.62c0,0.21,0.17,0.38,0.38,0.38h9.38v3h-9.38
			c-0.21,0-0.38,0.17-0.38,0.38v5.63H10.5z M14.25,15.85l5.69,3.77h-5.69V15.85z M23.25,19.61H21.3l-7.05-4.66v-0.59h3.19l5.81,3.84
			V19.61z"/>
	</g>
</g>
<g id="Layer_2">
</g>
</svg>
