<svg xmlns="http://www.w3.org/2000/svg" version="1.1" xmlns:xlink="http://www.w3.org/1999/xlink" xmlns:svgjs="http://svgjs.com/svgjs" width="1440" height="350" preserveAspectRatio="none" viewBox="0 0 1440 350"><g mask="url(&quot;#SvgjsMask1276&quot;)" fill="none"><rect width="1440" height="350" x="0" y="0" fill="rgba(36, 38, 53, 1)"></rect><path d="M-68.56 261.55L-68.56 261.55" stroke="rgba(36, 38, 53, 1)" stroke-width="1.5"></path><path d="M-68.56 261.55L-96.26 365.33" stroke="rgba(36, 38, 53, 1)" stroke-width="1.5"></path><path d="M-96.26 365.33L-96.26 365.33" stroke="rgba(36, 38, 53, 1)" stroke-width="1.5"></path><path d="M-96.26 365.33L37.56 409.78" stroke="rgba(36, 38, 53, 1)" stroke-width="1.5"></path><path d="M-96.26 365.33L-92.45 521.81" stroke="rgba(36, 38, 53, 1)" stroke-width="1.5"></path><path d="M-92.45 521.81L-92.45 521.81" stroke="rgba(36, 38, 53, 1)" stroke-width="1.5"></path><path d="M-92.45 521.81L72.33 541.6" stroke="rgba(36, 38, 53, 1)" stroke-width="1.5"></path><path d="M37.56 409.78L37.56 409.78" stroke="rgba(36, 38, 53, 1)" stroke-width="1.5"></path><path d="M37.56 409.78L72.33 541.6" stroke="rgba(36, 38, 53, 1)" stroke-width="1.5"></path><path d="M72.33 541.6L72.33 541.6" stroke="rgba(36, 38, 53, 1)" stroke-width="1.5"></path><path d="M72.33 541.6L193.09 502.96" stroke="rgba(36, 38, 53, 1)" stroke-width="1.5"></path><path d="M260.48 393.05L260.48 393.05" stroke="rgba(36, 38, 53, 1)" stroke-width="1.5"></path><path d="M260.48 393.05L193.09 502.96" stroke="rgba(36, 38, 53, 1)" stroke-width="1.5"></path><path d="M260.48 393.05L401.46 377.45" stroke="rgba(36, 38, 53, 1)" stroke-width="1.5"></path><path d="M260.48 393.05L354.14 505.57" stroke="rgba(36, 38, 53, 1)" stroke-width="1.5"></path><path d="M260.48 393.05L37.56 409.78" stroke="rgba(36, 38, 53, 1)" stroke-width="1.5"></path><path d="M260.48 393.05L381.6 202.88" stroke="rgba(36, 38, 53, 1)" stroke-width="1.5"></path><path d="M193.09 502.96L193.09 502.96" stroke="rgba(36, 38, 53, 1)" stroke-width="1.5"></path><path d="M381.6 202.88L381.6 202.88" stroke="rgba(36, 38, 53, 1)" stroke-width="1.5"></path><path d="M381.6 202.88L550.51 196.25" stroke="rgba(36, 38, 53, 1)" stroke-width="1.5"></path><path d="M381.6 202.88L401.46 377.45" stroke="rgba(36, 38, 53, 1)" stroke-width="1.5"></path><path d="M401.46 377.45L401.46 377.45" stroke="rgba(36, 38, 53, 1)" stroke-width="1.5"></path><path d="M401.46 377.45L500.74 345.09" stroke="rgba(36, 38, 53, 1)" stroke-width="1.5"></path><path d="M401.46 377.45L354.14 505.57" stroke="rgba(36, 38, 53, 1)" stroke-width="1.5"></path><path d="M354.14 505.57L354.14 505.57" stroke="rgba(36, 38, 53, 1)" stroke-width="1.5"></path><path d="M550.51 196.25L550.51 196.25" stroke="rgba(36, 38, 53, 1)" stroke-width="1.5"></path><path d="M550.51 196.25L678.51 230.35" stroke="rgba(36, 38, 53, 1)" stroke-width="1.5"></path><path d="M550.51 196.25L500.74 345.09" stroke="rgba(36, 38, 53, 1)" stroke-width="1.5"></path><path d="M550.51 196.25L401.46 377.45" stroke="rgba(36, 38, 53, 1)" stroke-width="1.5"></path><path d="M550.51 196.25L663.42 402.8" stroke="rgba(36, 38, 53, 1)" stroke-width="1.5"></path><path d="M500.74 345.09L500.74 345.09" stroke="rgba(36, 38, 53, 1)" stroke-width="1.5"></path><path d="M500.74 345.09L663.42 402.8" stroke="rgba(36, 38, 53, 1)" stroke-width="1.5"></path><path d="M678.51 230.35L678.51 230.35" stroke="rgba(36, 38, 53, 1)" stroke-width="1.5"></path><path d="M678.51 230.35L818.3 199.29" stroke="rgba(36, 38, 53, 1)" stroke-width="1.5"></path><path d="M678.51 230.35L663.42 402.8" stroke="rgba(36, 38, 53, 1)" stroke-width="1.5"></path><path d="M663.42 402.8L663.42 402.8" stroke="rgba(36, 38, 53, 1)" stroke-width="1.5"></path><path d="M663.42 402.8L791.97 370.17" stroke="rgba(36, 38, 53, 1)" stroke-width="1.5"></path><path d="M663.42 402.8L855.48 549.61" stroke="rgba(36, 38, 53, 1)" stroke-width="1.5"></path><path d="M663.42 402.8L818.3 199.29" stroke="rgba(36, 38, 53, 1)" stroke-width="1.5"></path><path d="M795.39 84.35L795.39 84.35" stroke="rgba(36, 38, 53, 1)" stroke-width="1.5"></path><path d="M795.39 84.35L818.3 199.29" stroke="rgba(36, 38, 53, 1)" stroke-width="1.5"></path><path d="M795.39 84.35L678.51 230.35" stroke="rgba(36, 38, 53, 1)" stroke-width="1.5"></path><path d="M795.39 84.35L987.57 67.95" stroke="rgba(36, 38, 53, 1)" stroke-width="1.5"></path><path d="M795.39 84.35L986.15 205.41" stroke="rgba(36, 38, 53, 1)" stroke-width="1.5"></path><path d="M795.39 84.35L550.51 196.25" stroke="rgba(36, 38, 53, 1)" stroke-width="1.5"></path><path d="M818.3 199.29L818.3 199.29" stroke="rgba(36, 38, 53, 1)" stroke-width="1.5"></path><path d="M818.3 199.29L986.15 205.41" stroke="rgba(36, 38, 53, 1)" stroke-width="1.5"></path><path d="M791.97 370.17L791.97 370.17" stroke="rgba(36, 38, 53, 1)" stroke-width="1.5"></path><path d="M791.97 370.17L938.08 350.9" stroke="rgba(36, 38, 53, 1)" stroke-width="1.5"></path><path d="M791.97 370.17L818.3 199.29" stroke="rgba(36, 38, 53, 1)" stroke-width="1.5"></path><path d="M791.97 370.17L678.51 230.35" stroke="rgba(36, 38, 53, 1)" stroke-width="1.5"></path><path d="M791.97 370.17L855.48 549.61" stroke="rgba(36, 38, 53, 1)" stroke-width="1.5"></path><path d="M791.97 370.17L941.86 523.58" stroke="rgba(36, 38, 53, 1)" stroke-width="1.5"></path><path d="M855.48 549.61L855.48 549.61" stroke="rgba(36, 38, 53, 1)" stroke-width="1.5"></path><path d="M855.48 549.61L941.86 523.58" stroke="rgba(36, 38, 53, 1)" stroke-width="1.5"></path><path d="M855.48 549.61L938.08 350.9" stroke="rgba(36, 38, 53, 1)" stroke-width="1.5"></path><path d="M855.48 549.61L1106.7 523.45" stroke="rgba(36, 38, 53, 1)" stroke-width="1.5"></path><path d="M855.48 549.61L1147.66 405.15" stroke="rgba(36, 38, 53, 1)" stroke-width="1.5"></path><path d="M997.97 -96.61L997.97 -96.61" stroke="rgba(36, 38, 53, 1)" stroke-width="1.5"></path><path d="M997.97 -96.61L1089.23 -68.42" stroke="rgba(36, 38, 53, 1)" stroke-width="1.5"></path><path d="M997.97 -96.61L987.57 67.95" stroke="rgba(36, 38, 53, 1)" stroke-width="1.5"></path><path d="M997.97 -96.61L1144.31 58.4" stroke="rgba(36, 38, 53, 1)" stroke-width="1.5"></path><path d="M997.97 -96.61L795.39 84.35" stroke="rgba(36, 38, 53, 1)" stroke-width="1.5"></path><path d="M987.57 67.95L987.57 67.95" stroke="rgba(36, 38, 53, 1)" stroke-width="1.5"></path><path d="M987.57 67.95L986.15 205.41" stroke="rgba(36, 38, 53, 1)" stroke-width="1.5"></path><path d="M987.57 67.95L1144.31 58.4" stroke="rgba(36, 38, 53, 1)" stroke-width="1.5"></path><path d="M986.15 205.41L986.15 205.41" stroke="rgba(36, 38, 53, 1)" stroke-width="1.5"></path><path d="M986.15 205.41L938.08 350.9" stroke="rgba(36, 38, 53, 1)" stroke-width="1.5"></path><path d="M986.15 205.41L1140.84 197.71" stroke="rgba(36, 38, 53, 1)" stroke-width="1.5"></path><path d="M938.08 350.9L938.08 350.9" stroke="rgba(36, 38, 53, 1)" stroke-width="1.5"></path><path d="M938.08 350.9L941.86 523.58" stroke="rgba(36, 38, 53, 1)" stroke-width="1.5"></path><path d="M938.08 350.9L818.3 199.29" stroke="rgba(36, 38, 53, 1)" stroke-width="1.5"></path><path d="M941.86 523.58L941.86 523.58" stroke="rgba(36, 38, 53, 1)" stroke-width="1.5"></path><path d="M941.86 523.58L1106.7 523.45" stroke="rgba(36, 38, 53, 1)" stroke-width="1.5"></path><path d="M941.86 523.58L1147.66 405.15" stroke="rgba(36, 38, 53, 1)" stroke-width="1.5"></path><path d="M1089.23 -68.42L1089.23 -68.42" stroke="rgba(36, 38, 53, 1)" stroke-width="1.5"></path><path d="M1089.23 -68.42L1144.31 58.4" stroke="rgba(36, 38, 53, 1)" stroke-width="1.5"></path><path d="M1144.31 58.4L1144.31 58.4" stroke="rgba(36, 38, 53, 1)" stroke-width="1.5"></path><path d="M1144.31 58.4L1262.76 70.81" stroke="rgba(36, 38, 53, 1)" stroke-width="1.5"></path><path d="M1144.31 58.4L1140.84 197.71" stroke="rgba(36, 38, 53, 1)" stroke-width="1.5"></path><path d="M1144.31 58.4L1271.44 -76.72" stroke="rgba(36, 38, 53, 1)" stroke-width="1.5"></path><path d="M1140.84 197.71L1140.84 197.71" stroke="rgba(36, 38, 53, 1)" stroke-width="1.5"></path><path d="M1140.84 197.71L1300.89 241.37" stroke="rgba(36, 38, 53, 1)" stroke-width="1.5"></path><path d="M1140.84 197.71L1262.76 70.81" stroke="rgba(36, 38, 53, 1)" stroke-width="1.5"></path><path d="M1140.84 197.71L987.57 67.95" stroke="rgba(36, 38, 53, 1)" stroke-width="1.5"></path><path d="M1140.84 197.71L1147.66 405.15" stroke="rgba(36, 38, 53, 1)" stroke-width="1.5"></path><path d="M1147.66 405.15L1147.66 405.15" stroke="rgba(36, 38, 53, 1)" stroke-width="1.5"></path><path d="M1147.66 405.15L1106.7 523.45" stroke="rgba(36, 38, 53, 1)" stroke-width="1.5"></path><path d="M1147.66 405.15L1290.88 364.46" stroke="rgba(36, 38, 53, 1)" stroke-width="1.5"></path><path d="M1147.66 405.15L1305.7 549.46" stroke="rgba(36, 38, 53, 1)" stroke-width="1.5"></path><path d="M1147.66 405.15L938.08 350.9" stroke="rgba(36, 38, 53, 1)" stroke-width="1.5"></path><path d="M1106.7 523.45L1106.7 523.45" stroke="rgba(36, 38, 53, 1)" stroke-width="1.5"></path><path d="M1271.44 -76.72L1271.44 -76.72" stroke="rgba(36, 38, 53, 1)" stroke-width="1.5"></path><path d="M1271.44 -76.72L1262.76 70.81" stroke="rgba(36, 38, 53, 1)" stroke-width="1.5"></path><path d="M1271.44 -76.72L1089.23 -68.42" stroke="rgba(36, 38, 53, 1)" stroke-width="1.5"></path><path d="M1271.44 -76.72L1453.31 -107.82" stroke="rgba(36, 38, 53, 1)" stroke-width="1.5"></path><path d="M1271.44 -76.72L1441.2 62.96" stroke="rgba(36, 38, 53, 1)" stroke-width="1.5"></path><path d="M1271.44 -76.72L997.97 -96.61" stroke="rgba(36, 38, 53, 1)" stroke-width="1.5"></path><path d="M1262.76 70.81L1262.76 70.81" stroke="rgba(36, 38, 53, 1)" stroke-width="1.5"></path><path d="M1300.89 241.37L1300.89 241.37" stroke="rgba(36, 38, 53, 1)" stroke-width="1.5"></path><path d="M1300.89 241.37L1290.88 364.46" stroke="rgba(36, 38, 53, 1)" stroke-width="1.5"></path><path d="M1290.88 364.46L1290.88 364.46" stroke="rgba(36, 38, 53, 1)" stroke-width="1.5"></path><path d="M1290.88 364.46L1420.67 371.38" stroke="rgba(36, 38, 53, 1)" stroke-width="1.5"></path><path d="M1290.88 364.46L1305.7 549.46" stroke="rgba(36, 38, 53, 1)" stroke-width="1.5"></path><path d="M1290.88 364.46L1440.23 503.18" stroke="rgba(36, 38, 53, 1)" stroke-width="1.5"></path><path d="M1305.7 549.46L1305.7 549.46" stroke="rgba(36, 38, 53, 1)" stroke-width="1.5"></path><path d="M1305.7 549.46L1440.23 503.18" stroke="rgba(36, 38, 53, 1)" stroke-width="1.5"></path><path d="M1305.7 549.46L1106.7 523.45" stroke="rgba(36, 38, 53, 1)" stroke-width="1.5"></path><path d="M1305.7 549.46L1420.67 371.38" stroke="rgba(36, 38, 53, 1)" stroke-width="1.5"></path><path d="M1453.31 -107.82L1453.31 -107.82" stroke="rgba(36, 38, 53, 1)" stroke-width="1.5"></path><path d="M1453.31 -107.82L1588.54 -65.34" stroke="rgba(36, 38, 53, 1)" stroke-width="1.5"></path><path d="M1453.31 -107.82L1441.2 62.96" stroke="rgba(36, 38, 53, 1)" stroke-width="1.5"></path><path d="M1453.31 -107.82L1600.95 60.03" stroke="rgba(36, 38, 53, 1)" stroke-width="1.5"></path><path d="M1441.2 62.96L1441.2 62.96" stroke="rgba(36, 38, 53, 1)" stroke-width="1.5"></path><path d="M1441.2 62.96L1435.12 220.36" stroke="rgba(36, 38, 53, 1)" stroke-width="1.5"></path><path d="M1441.2 62.96L1600.95 60.03" stroke="rgba(36, 38, 53, 1)" stroke-width="1.5"></path><path d="M1441.2 62.96L1262.76 70.81" stroke="rgba(36, 38, 53, 1)" stroke-width="1.5"></path><path d="M1435.12 220.36L1435.12 220.36" stroke="rgba(36, 38, 53, 1)" stroke-width="1.5"></path><path d="M1435.12 220.36L1300.89 241.37" stroke="rgba(36, 38, 53, 1)" stroke-width="1.5"></path><path d="M1435.12 220.36L1574.57 230.53" stroke="rgba(36, 38, 53, 1)" stroke-width="1.5"></path><path d="M1420.67 371.38L1420.67 371.38" stroke="rgba(36, 38, 53, 1)" stroke-width="1.5"></path><path d="M1420.67 371.38L1440.23 503.18" stroke="rgba(36, 38, 53, 1)" stroke-width="1.5"></path><path d="M1440.23 503.18L1440.23 503.18" stroke="rgba(36, 38, 53, 1)" stroke-width="1.5"></path><path d="M1588.54 -65.34L1588.54 -65.34" stroke="rgba(36, 38, 53, 1)" stroke-width="1.5"></path><path d="M1588.54 -65.34L1600.95 60.03" stroke="rgba(36, 38, 53, 1)" stroke-width="1.5"></path><path d="M1588.54 -65.34L1441.2 62.96" stroke="rgba(36, 38, 53, 1)" stroke-width="1.5"></path><path d="M1588.54 -65.34L1574.57 230.53" stroke="rgba(36, 38, 53, 1)" stroke-width="1.5"></path><path d="M1588.54 -65.34L1271.44 -76.72" stroke="rgba(36, 38, 53, 1)" stroke-width="1.5"></path><path d="M1588.54 -65.34L1435.12 220.36" stroke="rgba(36, 38, 53, 1)" stroke-width="1.5"></path><path d="M1600.95 60.03L1600.95 60.03" stroke="rgba(36, 38, 53, 1)" stroke-width="1.5"></path><path d="M1600.95 60.03L1574.57 230.53" stroke="rgba(36, 38, 53, 1)" stroke-width="1.5"></path><path d="M1574.57 230.53L1574.57 230.53" stroke="rgba(36, 38, 53, 1)" stroke-width="1.5"></path><path d="M1574.57 230.53L1584.24 398.24" stroke="rgba(36, 38, 53, 1)" stroke-width="1.5"></path><path d="M1584.24 398.24L1584.24 398.24" stroke="rgba(36, 38, 53, 1)" stroke-width="1.5"></path><path d="M1584.24 398.24L1596.43 501.13" stroke="rgba(36, 38, 53, 1)" stroke-width="1.5"></path><path d="M1584.24 398.24L1420.67 371.38" stroke="rgba(36, 38, 53, 1)" stroke-width="1.5"></path><path d="M1596.43 501.13L1596.43 501.13" stroke="rgba(36, 38, 53, 1)" stroke-width="1.5"></path><path d="M1596.43 501.13L1440.23 503.18" stroke="rgba(36, 38, 53, 1)" stroke-width="1.5"></path><path d="M1596.43 501.13L1420.67 371.38" stroke="rgba(36, 38, 53, 1)" stroke-width="1.5"></path><path d="M1596.43 501.13L1574.57 230.53" stroke="rgba(36, 38, 53, 1)" stroke-width="1.5"></path><path d="M1596.43 501.13L1305.7 549.46" stroke="rgba(36, 38, 53, 1)" stroke-width="1.5"></path><path d="M1596.43 501.13L1435.12 220.36" stroke="rgba(36, 38, 53, 1)" stroke-width="1.5"></path><circle r="5" cx="-68.56" cy="261.55" fill="rgba(36, 38, 53, 1)"></circle><circle r="5" cx="-96.26" cy="365.33" fill="rgba(36, 38, 53, 1)"></circle><circle r="5" cx="-92.45" cy="521.81" fill="rgba(36, 38, 53, 1)"></circle><circle r="5" cx="37.56" cy="409.78" fill="rgba(36, 38, 53, 1)"></circle><circle r="5" cx="72.33" cy="541.6" fill="rgba(36, 38, 53, 1)"></circle><circle r="5" cx="260.48" cy="393.05" fill="rgba(36, 38, 53, 1)"></circle><circle r="5" cx="193.09" cy="502.96" fill="rgba(36, 38, 53, 1)"></circle><circle r="5" cx="381.6" cy="202.88" fill="rgba(36, 38, 53, 1)"></circle><circle r="5" cx="401.46" cy="377.45" fill="rgba(36, 38, 53, 1)"></circle><circle r="5" cx="354.14" cy="505.57" fill="rgba(36, 38, 53, 1)"></circle><circle r="5" cx="550.51" cy="196.25" fill="rgba(36, 38, 53, 1)"></circle><circle r="5" cx="500.74" cy="345.09" fill="rgba(36, 38, 53, 1)"></circle><circle r="5" cx="678.51" cy="230.35" fill="rgba(36, 38, 53, 1)"></circle><circle r="5" cx="663.42" cy="402.8" fill="rgba(36, 38, 53, 1)"></circle><circle r="5" cx="795.39" cy="84.35" fill="rgba(36, 38, 53, 1)"></circle><circle r="5" cx="818.3" cy="199.29" fill="rgba(36, 38, 53, 1)"></circle><circle r="5" cx="791.97" cy="370.17" fill="rgba(36, 38, 53, 1)"></circle><circle r="5" cx="855.48" cy="549.61" fill="rgba(36, 38, 53, 1)"></circle><circle r="5" cx="997.97" cy="-96.61" fill="rgba(36, 38, 53, 1)"></circle><circle r="5" cx="987.57" cy="67.95" fill="rgba(36, 38, 53, 1)"></circle><circle r="5" cx="986.15" cy="205.41" fill="rgba(36, 38, 53, 1)"></circle><circle r="5" cx="938.08" cy="350.9" fill="rgba(36, 38, 53, 1)"></circle><circle r="5" cx="941.86" cy="523.58" fill="rgba(36, 38, 53, 1)"></circle><circle r="5" cx="1089.23" cy="-68.42" fill="rgba(36, 38, 53, 1)"></circle><circle r="5" cx="1144.31" cy="58.4" fill="rgba(36, 38, 53, 1)"></circle><circle r="5" cx="1140.84" cy="197.71" fill="rgba(36, 38, 53, 1)"></circle><circle r="5" cx="1147.66" cy="405.15" fill="rgba(36, 38, 53, 1)"></circle><circle r="5" cx="1106.7" cy="523.45" fill="rgba(36, 38, 53, 1)"></circle><circle r="5" cx="1271.44" cy="-76.72" fill="rgba(36, 38, 53, 1)"></circle><circle r="5" cx="1262.76" cy="70.81" fill="rgba(36, 38, 53, 1)"></circle><circle r="5" cx="1300.89" cy="241.37" fill="rgba(36, 38, 53, 1)"></circle><circle r="5" cx="1290.88" cy="364.46" fill="rgba(36, 38, 53, 1)"></circle><circle r="5" cx="1305.7" cy="549.46" fill="rgba(36, 38, 53, 1)"></circle><circle r="5" cx="1453.31" cy="-107.82" fill="rgba(36, 38, 53, 1)"></circle><circle r="5" cx="1441.2" cy="62.96" fill="rgba(36, 38, 53, 1)"></circle><circle r="5" cx="1435.12" cy="220.36" fill="rgba(36, 38, 53, 1)"></circle><circle r="5" cx="1420.67" cy="371.38" fill="rgba(36, 38, 53, 1)"></circle><circle r="5" cx="1440.23" cy="503.18" fill="rgba(36, 38, 53, 1)"></circle><circle r="5" cx="1588.54" cy="-65.34" fill="rgba(36, 38, 53, 1)"></circle><circle r="5" cx="1600.95" cy="60.03" fill="rgba(36, 38, 53, 1)"></circle><circle r="5" cx="1574.57" cy="230.53" fill="rgba(36, 38, 53, 1)"></circle><circle r="5" cx="1584.24" cy="398.24" fill="rgba(36, 38, 53, 1)"></circle><circle r="5" cx="1596.43" cy="501.13" fill="rgba(36, 38, 53, 1)"></circle><path d="M371 371.72L371 371.72" stroke="hsl(324.5, 76%, 61.7%)" stroke-width="1.5"></path><path d="M371 371.72L488.15 376.53" stroke="hsl(324.5, 76%, 61.7%)" stroke-width="1.5"></path><path d="M371 371.72L372.23 546.62" stroke="hsl(324.5, 76%, 61.7%)" stroke-width="1.5"></path><path d="M371 371.72L529.32 512.26" stroke="hsl(324.5, 76%, 61.7%)" stroke-width="1.5"></path><path d="M372.23 546.62L372.23 546.62" stroke="hsl(324.5, 76%, 61.7%)" stroke-width="1.5"></path><path d="M372.23 546.62L529.32 512.26" stroke="hsl(324.5, 76%, 61.7%)" stroke-width="1.5"></path><path d="M372.23 546.62L209.76 520.56" stroke="hsl(324.5, 76%, 61.7%)" stroke-width="1.5"></path><path d="M372.23 546.62L488.15 376.53" stroke="hsl(324.5, 76%, 61.7%)" stroke-width="1.5"></path><path d="M372.23 546.62L96.17 524.44" stroke="hsl(324.5, 76%, 61.7%)" stroke-width="1.5"></path><path d="M653.05 259.61L653.05 259.61" stroke="hsl(324.5, 76%, 61.7%)" stroke-width="1.5"></path><path d="M653.05 259.61L695.28 372.43" stroke="hsl(324.5, 76%, 61.7%)" stroke-width="1.5"></path><path d="M653.05 259.61L488.15 376.53" stroke="hsl(324.5, 76%, 61.7%)" stroke-width="1.5"></path><path d="M653.05 259.61L860.42 346.07" stroke="hsl(324.5, 76%, 61.7%)" stroke-width="1.5"></path><path d="M860.42 346.07L860.42 346.07" stroke="hsl(324.5, 76%, 61.7%)" stroke-width="1.5"></path><path d="M860.42 346.07L1010.24 393.88" stroke="hsl(324.5, 76%, 61.7%)" stroke-width="1.5"></path><path d="M860.42 346.07L695.28 372.43" stroke="hsl(324.5, 76%, 61.7%)" stroke-width="1.5"></path><path d="M986.5 228.82L986.5 228.82" stroke="hsl(324.5, 76%, 61.7%)" stroke-width="1.5"></path><path d="M986.5 228.82L1010.24 393.88" stroke="hsl(324.5, 76%, 61.7%)" stroke-width="1.5"></path><path d="M986.5 228.82L860.42 346.07" stroke="hsl(324.5, 76%, 61.7%)" stroke-width="1.5"></path><path d="M986.5 228.82L1160.61 228.12" stroke="hsl(324.5, 76%, 61.7%)" stroke-width="1.5"></path><path d="M979.85 513.33L979.85 513.33" stroke="hsl(324.5, 76%, 61.7%)" stroke-width="1.5"></path><path d="M979.85 513.33L1010.24 393.88" stroke="hsl(324.5, 76%, 61.7%)" stroke-width="1.5"></path><path d="M979.85 513.33L1133.3 493.7" stroke="hsl(324.5, 76%, 61.7%)" stroke-width="1.5"></path><path d="M1273.48 96.95L1273.48 96.95" stroke="hsl(324.5, 76%, 61.7%)" stroke-width="1.5"></path><path d="M1273.48 96.95L1394.5 97.26" stroke="hsl(324.5, 76%, 61.7%)" stroke-width="1.5"></path><path d="M1273.48 96.95L1256.41 229.36" stroke="hsl(324.5, 76%, 61.7%)" stroke-width="1.5"></path><path d="M1273.48 96.95L1405.79 203.54" stroke="hsl(324.5, 76%, 61.7%)" stroke-width="1.5"></path><path d="M1256.41 229.36L1256.41 229.36" stroke="hsl(324.5, 76%, 61.7%)" stroke-width="1.5"></path><path d="M1256.41 229.36L1160.61 228.12" stroke="hsl(324.5, 76%, 61.7%)" stroke-width="1.5"></path><path d="M1256.41 229.36L1405.79 203.54" stroke="hsl(324.5, 76%, 61.7%)" stroke-width="1.5"></path><path d="M1580.92 -70.49L1580.92 -70.49" stroke="hsl(324.5, 76%, 61.7%)" stroke-width="1.5"></path><path d="M1580.92 -70.49L1394.5 97.26" stroke="hsl(324.5, 76%, 61.7%)" stroke-width="1.5"></path><path d="M1580.92 -70.49L1303.05 -82.15" stroke="hsl(324.5, 76%, 61.7%)" stroke-width="1.5"></path><path d="M1580.92 -70.49L1405.79 203.54" stroke="hsl(324.5, 76%, 61.7%)" stroke-width="1.5"></path><path d="M1580.92 -70.49L1562.81 256.48" stroke="hsl(324.5, 76%, 61.7%)" stroke-width="1.5"></path><path d="M1580.92 -70.49L1273.48 96.95" stroke="hsl(324.5, 76%, 61.7%)" stroke-width="1.5"></path><path d="M-60.01 365.76L-60.01 365.76" stroke="hsl(324.5, 76%, 61.7%)" stroke-width="1.5"></path><path d="M-60.01 365.76L76.96 393.11" stroke="hsl(324.5, 76%, 61.7%)" stroke-width="1.5"></path><path d="M-60.01 365.76L-43.73 552.69" stroke="hsl(324.5, 76%, 61.7%)" stroke-width="1.5"></path><path d="M-43.73 552.69L-43.73 552.69" stroke="hsl(324.5, 76%, 61.7%)" stroke-width="1.5"></path><path d="M-43.73 552.69L96.17 524.44" stroke="hsl(324.5, 76%, 61.7%)" stroke-width="1.5"></path><path d="M-43.73 552.69L76.96 393.11" stroke="hsl(324.5, 76%, 61.7%)" stroke-width="1.5"></path><path d="M-43.73 552.69L209.76 520.56" stroke="hsl(324.5, 76%, 61.7%)" stroke-width="1.5"></path><path d="M76.96 393.11L76.96 393.11" stroke="hsl(324.5, 76%, 61.7%)" stroke-width="1.5"></path><path d="M76.96 393.11L96.17 524.44" stroke="hsl(324.5, 76%, 61.7%)" stroke-width="1.5"></path><path d="M96.17 524.44L96.17 524.44" stroke="hsl(324.5, 76%, 61.7%)" stroke-width="1.5"></path><path d="M96.17 524.44L209.76 520.56" stroke="hsl(324.5, 76%, 61.7%)" stroke-width="1.5"></path><path d="M209.76 520.56L209.76 520.56" stroke="hsl(324.5, 76%, 61.7%)" stroke-width="1.5"></path><path d="M488.15 376.53L488.15 376.53" stroke="hsl(324.5, 76%, 61.7%)" stroke-width="1.5"></path><path d="M488.15 376.53L529.32 512.26" stroke="hsl(324.5, 76%, 61.7%)" stroke-width="1.5"></path><path d="M488.15 376.53L695.28 372.43" stroke="hsl(324.5, 76%, 61.7%)" stroke-width="1.5"></path><path d="M529.32 512.26L529.32 512.26" stroke="hsl(324.5, 76%, 61.7%)" stroke-width="1.5"></path><path d="M529.32 512.26L655.58 560.14" stroke="hsl(324.5, 76%, 61.7%)" stroke-width="1.5"></path><path d="M695.28 372.43L695.28 372.43" stroke="hsl(324.5, 76%, 61.7%)" stroke-width="1.5"></path><path d="M655.58 560.14L655.58 560.14" stroke="hsl(324.5, 76%, 61.7%)" stroke-width="1.5"></path><path d="M655.58 560.14L799.37 516.73" stroke="hsl(324.5, 76%, 61.7%)" stroke-width="1.5"></path><path d="M655.58 560.14L695.28 372.43" stroke="hsl(324.5, 76%, 61.7%)" stroke-width="1.5"></path><path d="M655.58 560.14L488.15 376.53" stroke="hsl(324.5, 76%, 61.7%)" stroke-width="1.5"></path><path d="M655.58 560.14L372.23 546.62" stroke="hsl(324.5, 76%, 61.7%)" stroke-width="1.5"></path><path d="M799.37 516.73L799.37 516.73" stroke="hsl(324.5, 76%, 61.7%)" stroke-width="1.5"></path><path d="M799.37 516.73L695.28 372.43" stroke="hsl(324.5, 76%, 61.7%)" stroke-width="1.5"></path><path d="M799.37 516.73L979.85 513.33" stroke="hsl(324.5, 76%, 61.7%)" stroke-width="1.5"></path><path d="M799.37 516.73L860.42 346.07" stroke="hsl(324.5, 76%, 61.7%)" stroke-width="1.5"></path><path d="M1010.24 393.88L1010.24 393.88" stroke="hsl(324.5, 76%, 61.7%)" stroke-width="1.5"></path><path d="M1010.24 393.88L1097.26 383.69" stroke="hsl(324.5, 76%, 61.7%)" stroke-width="1.5"></path><path d="M1010.24 393.88L1133.3 493.7" stroke="hsl(324.5, 76%, 61.7%)" stroke-width="1.5"></path><path d="M1160.61 228.12L1160.61 228.12" stroke="hsl(324.5, 76%, 61.7%)" stroke-width="1.5"></path><path d="M1160.61 228.12L1097.26 383.69" stroke="hsl(324.5, 76%, 61.7%)" stroke-width="1.5"></path><path d="M1160.61 228.12L1273.48 96.95" stroke="hsl(324.5, 76%, 61.7%)" stroke-width="1.5"></path><path d="M1097.26 383.69L1097.26 383.69" stroke="hsl(324.5, 76%, 61.7%)" stroke-width="1.5"></path><path d="M1097.26 383.69L1133.3 493.7" stroke="hsl(324.5, 76%, 61.7%)" stroke-width="1.5"></path><path d="M1097.26 383.69L1250.53 394.77" stroke="hsl(324.5, 76%, 61.7%)" stroke-width="1.5"></path><path d="M1133.3 493.7L1133.3 493.7" stroke="hsl(324.5, 76%, 61.7%)" stroke-width="1.5"></path><path d="M1133.3 493.7L1266.8 503.17" stroke="hsl(324.5, 76%, 61.7%)" stroke-width="1.5"></path><path d="M1133.3 493.7L1250.53 394.77" stroke="hsl(324.5, 76%, 61.7%)" stroke-width="1.5"></path><path d="M1133.3 493.7L1160.61 228.12" stroke="hsl(324.5, 76%, 61.7%)" stroke-width="1.5"></path><path d="M1303.05 -82.15L1303.05 -82.15" stroke="hsl(324.5, 76%, 61.7%)" stroke-width="1.5"></path><path d="M1303.05 -82.15L1273.48 96.95" stroke="hsl(324.5, 76%, 61.7%)" stroke-width="1.5"></path><path d="M1303.05 -82.15L1394.5 97.26" stroke="hsl(324.5, 76%, 61.7%)" stroke-width="1.5"></path><path d="M1250.53 394.77L1250.53 394.77" stroke="hsl(324.5, 76%, 61.7%)" stroke-width="1.5"></path><path d="M1250.53 394.77L1266.8 503.17" stroke="hsl(324.5, 76%, 61.7%)" stroke-width="1.5"></path><path d="M1250.53 394.77L1391.21 412.12" stroke="hsl(324.5, 76%, 61.7%)" stroke-width="1.5"></path><path d="M1266.8 503.17L1266.8 503.17" stroke="hsl(324.5, 76%, 61.7%)" stroke-width="1.5"></path><path d="M1394.5 97.26L1394.5 97.26" stroke="hsl(324.5, 76%, 61.7%)" stroke-width="1.5"></path><path d="M1394.5 97.26L1405.79 203.54" stroke="hsl(324.5, 76%, 61.7%)" stroke-width="1.5"></path><path d="M1394.5 97.26L1256.41 229.36" stroke="hsl(324.5, 76%, 61.7%)" stroke-width="1.5"></path><path d="M1405.79 203.54L1405.79 203.54" stroke="hsl(324.5, 76%, 61.7%)" stroke-width="1.5"></path><path d="M1405.79 203.54L1562.81 256.48" stroke="hsl(324.5, 76%, 61.7%)" stroke-width="1.5"></path><path d="M1391.21 412.12L1391.21 412.12" stroke="hsl(324.5, 76%, 61.7%)" stroke-width="1.5"></path><path d="M1391.21 412.12L1455.78 502.19" stroke="hsl(324.5, 76%, 61.7%)" stroke-width="1.5"></path><path d="M1391.21 412.12L1266.8 503.17" stroke="hsl(324.5, 76%, 61.7%)" stroke-width="1.5"></path><path d="M1391.21 412.12L1565.48 401.2" stroke="hsl(324.5, 76%, 61.7%)" stroke-width="1.5"></path><path d="M1455.78 502.19L1455.78 502.19" stroke="hsl(324.5, 76%, 61.7%)" stroke-width="1.5"></path><path d="M1455.78 502.19L1565.48 401.2" stroke="hsl(324.5, 76%, 61.7%)" stroke-width="1.5"></path><path d="M1455.78 502.19L1266.8 503.17" stroke="hsl(324.5, 76%, 61.7%)" stroke-width="1.5"></path><path d="M1455.78 502.19L1250.53 394.77" stroke="hsl(324.5, 76%, 61.7%)" stroke-width="1.5"></path><path d="M1455.78 502.19L1562.81 256.48" stroke="hsl(324.5, 76%, 61.7%)" stroke-width="1.5"></path><path d="M1455.78 502.19L1405.79 203.54" stroke="hsl(324.5, 76%, 61.7%)" stroke-width="1.5"></path><path d="M1562.81 256.48L1562.81 256.48" stroke="hsl(324.5, 76%, 61.7%)" stroke-width="1.5"></path><path d="M1562.81 256.48L1565.48 401.2" stroke="hsl(324.5, 76%, 61.7%)" stroke-width="1.5"></path><path d="M1562.81 256.48L1391.21 412.12" stroke="hsl(324.5, 76%, 61.7%)" stroke-width="1.5"></path><path d="M1562.81 256.48L1394.5 97.26" stroke="hsl(324.5, 76%, 61.7%)" stroke-width="1.5"></path><path d="M1565.48 401.2L1565.48 401.2" stroke="hsl(324.5, 76%, 61.7%)" stroke-width="1.5"></path><path d="M1565.48 401.2L1405.79 203.54" stroke="hsl(324.5, 76%, 61.7%)" stroke-width="1.5"></path><path d="M1565.48 401.2L1250.53 394.77" stroke="hsl(324.5, 76%, 61.7%)" stroke-width="1.5"></path><path d="M1565.48 401.2L1266.8 503.17" stroke="hsl(324.5, 76%, 61.7%)" stroke-width="1.5"></path><circle r="25" cx="371" cy="371.72" fill="url(#SvgjsRadialGradient1277)"></circle><circle r="25" cx="372.23" cy="546.62" fill="url(#SvgjsRadialGradient1277)"></circle><circle r="25" cx="653.05" cy="259.61" fill="url(#SvgjsRadialGradient1277)"></circle><circle r="25" cx="860.42" cy="346.07" fill="url(#SvgjsRadialGradient1277)"></circle><circle r="25" cx="986.5" cy="228.82" fill="url(#SvgjsRadialGradient1277)"></circle><circle r="25" cx="979.85" cy="513.33" fill="url(#SvgjsRadialGradient1277)"></circle><circle r="25" cx="1273.48" cy="96.95" fill="url(#SvgjsRadialGradient1277)"></circle><circle r="25" cx="1256.41" cy="229.36" fill="url(#SvgjsRadialGradient1277)"></circle><circle r="25" cx="1580.92" cy="-70.49" fill="url(#SvgjsRadialGradient1277)"></circle><circle r="5" cx="-60.01" cy="365.76" fill="#ea8ec5"></circle><circle r="5" cx="-43.73" cy="552.69" fill="#ea8ec5"></circle><circle r="5" cx="76.96" cy="393.11" fill="#ea8ec5"></circle><circle r="5" cx="96.17" cy="524.44" fill="#ea8ec5"></circle><circle r="5" cx="209.76" cy="520.56" fill="#ea8ec5"></circle><circle r="5" cx="488.15" cy="376.53" fill="#ea8ec5"></circle><circle r="5" cx="529.32" cy="512.26" fill="#ea8ec5"></circle><circle r="5" cx="695.28" cy="372.43" fill="#ea8ec5"></circle><circle r="5" cx="655.58" cy="560.14" fill="#ea8ec5"></circle><circle r="5" cx="799.37" cy="516.73" fill="#ea8ec5"></circle><circle r="5" cx="1010.24" cy="393.88" fill="#ea8ec5"></circle><circle r="5" cx="1160.61" cy="228.12" fill="#ea8ec5"></circle><circle r="5" cx="1097.26" cy="383.69" fill="#ea8ec5"></circle><circle r="5" cx="1133.3" cy="493.7" fill="#ea8ec5"></circle><circle r="5" cx="1303.05" cy="-82.15" fill="#ea8ec5"></circle><circle r="5" cx="1250.53" cy="394.77" fill="#ea8ec5"></circle><circle r="5" cx="1266.8" cy="503.17" fill="#ea8ec5"></circle><circle r="5" cx="1394.5" cy="97.26" fill="#ea8ec5"></circle><circle r="5" cx="1405.79" cy="203.54" fill="#ea8ec5"></circle><circle r="5" cx="1391.21" cy="412.12" fill="#ea8ec5"></circle><circle r="5" cx="1455.78" cy="502.19" fill="#ea8ec5"></circle><circle r="5" cx="1562.81" cy="256.48" fill="#ea8ec5"></circle><circle r="5" cx="1565.48" cy="401.2" fill="#ea8ec5"></circle></g><defs><mask id="SvgjsMask1276"><rect width="1440" height="350" fill="#ffffff"></rect></mask><radialGradient id="SvgjsRadialGradient1277"><stop stop-color="#ffffff" offset="0.1"></stop><stop stop-color="rgba(213, 29, 138, 1)" offset="0.2"></stop><stop stop-color="rgba(213, 29, 138, 0)" offset="1"></stop></radialGradient></defs></svg>