<svg xmlns="http://www.w3.org/2000/svg" version="1.1" xmlns:xlink="http://www.w3.org/1999/xlink" xmlns:svgjs="http://svgjs.com/svgjs" width="570" height="350" preserveAspectRatio="none" viewBox="0 0 570 350"><g mask="url(&quot;#SvgjsMask1308&quot;)" fill="none"><rect width="570" height="350" x="0" y="0" fill="rgba(36, 38, 53, 1)"></rect><path d="M-23.9 260.03L-23.9 260.03" stroke="rgba(36, 38, 53, 1)" stroke-width="1.5"></path><path d="M-23.9 260.03L27.27 264.64" stroke="rgba(36, 38, 53, 1)" stroke-width="1.5"></path><path d="M-23.9 260.03L-33.39 336.56" stroke="rgba(36, 38, 53, 1)" stroke-width="1.5"></path><path d="M-23.9 260.03L41.09 308.93" stroke="rgba(36, 38, 53, 1)" stroke-width="1.5"></path><path d="M-23.9 260.03L-27.7 383.93" stroke="rgba(36, 38, 53, 1)" stroke-width="1.5"></path><path d="M-33.39 336.56L-33.39 336.56" stroke="rgba(36, 38, 53, 1)" stroke-width="1.5"></path><path d="M-33.39 336.56L-27.7 383.93" stroke="rgba(36, 38, 53, 1)" stroke-width="1.5"></path><path d="M-33.39 336.56L41.09 308.93" stroke="rgba(36, 38, 53, 1)" stroke-width="1.5"></path><path d="M-33.39 336.56L42.14 374.55" stroke="rgba(36, 38, 53, 1)" stroke-width="1.5"></path><path d="M-27.7 383.93L-27.7 383.93" stroke="rgba(36, 38, 53, 1)" stroke-width="1.5"></path><path d="M-27.7 383.93L42.14 374.55" stroke="rgba(36, 38, 53, 1)" stroke-width="1.5"></path><path d="M27.27 264.64L27.27 264.64" stroke="rgba(36, 38, 53, 1)" stroke-width="1.5"></path><path d="M27.27 264.64L41.09 308.93" stroke="rgba(36, 38, 53, 1)" stroke-width="1.5"></path><path d="M27.27 264.64L96.68 314.36" stroke="rgba(36, 38, 53, 1)" stroke-width="1.5"></path><path d="M27.27 264.64L-33.39 336.56" stroke="rgba(36, 38, 53, 1)" stroke-width="1.5"></path><path d="M27.27 264.64L121.75 261.62" stroke="rgba(36, 38, 53, 1)" stroke-width="1.5"></path><path d="M41.09 308.93L41.09 308.93" stroke="rgba(36, 38, 53, 1)" stroke-width="1.5"></path><path d="M41.09 308.93L96.68 314.36" stroke="rgba(36, 38, 53, 1)" stroke-width="1.5"></path><path d="M41.09 308.93L42.14 374.55" stroke="rgba(36, 38, 53, 1)" stroke-width="1.5"></path><path d="M41.09 308.93L121.75 261.62" stroke="rgba(36, 38, 53, 1)" stroke-width="1.5"></path><path d="M42.14 374.55L42.14 374.55" stroke="rgba(36, 38, 53, 1)" stroke-width="1.5"></path><path d="M42.14 374.55L90.63 393.15" stroke="rgba(36, 38, 53, 1)" stroke-width="1.5"></path><path d="M42.14 374.55L96.68 314.36" stroke="rgba(36, 38, 53, 1)" stroke-width="1.5"></path><path d="M42.14 374.55L27.27 264.64" stroke="rgba(36, 38, 53, 1)" stroke-width="1.5"></path><path d="M121.75 261.62L121.75 261.62" stroke="rgba(36, 38, 53, 1)" stroke-width="1.5"></path><path d="M121.75 261.62L96.68 314.36" stroke="rgba(36, 38, 53, 1)" stroke-width="1.5"></path><path d="M121.75 261.62L162.47 332.67" stroke="rgba(36, 38, 53, 1)" stroke-width="1.5"></path><path d="M121.75 261.62L238.45 252.06" stroke="rgba(36, 38, 53, 1)" stroke-width="1.5"></path><path d="M121.75 261.62L231.67 305.43" stroke="rgba(36, 38, 53, 1)" stroke-width="1.5"></path><path d="M96.68 314.36L96.68 314.36" stroke="rgba(36, 38, 53, 1)" stroke-width="1.5"></path><path d="M90.63 393.15L90.63 393.15" stroke="rgba(36, 38, 53, 1)" stroke-width="1.5"></path><path d="M90.63 393.15L96.68 314.36" stroke="rgba(36, 38, 53, 1)" stroke-width="1.5"></path><path d="M90.63 393.15L162.47 332.67" stroke="rgba(36, 38, 53, 1)" stroke-width="1.5"></path><path d="M90.63 393.15L41.09 308.93" stroke="rgba(36, 38, 53, 1)" stroke-width="1.5"></path><path d="M162.47 332.67L162.47 332.67" stroke="rgba(36, 38, 53, 1)" stroke-width="1.5"></path><path d="M162.47 332.67L96.68 314.36" stroke="rgba(36, 38, 53, 1)" stroke-width="1.5"></path><path d="M162.47 332.67L231.67 305.43" stroke="rgba(36, 38, 53, 1)" stroke-width="1.5"></path><path d="M252.86 167.91L252.86 167.91" stroke="rgba(36, 38, 53, 1)" stroke-width="1.5"></path><path d="M252.86 167.91L306.2 190.09" stroke="rgba(36, 38, 53, 1)" stroke-width="1.5"></path><path d="M252.86 167.91L238.45 252.06" stroke="rgba(36, 38, 53, 1)" stroke-width="1.5"></path><path d="M252.86 167.91L321.68 115.06" stroke="rgba(36, 38, 53, 1)" stroke-width="1.5"></path><path d="M252.86 167.91L318.67 256.1" stroke="rgba(36, 38, 53, 1)" stroke-width="1.5"></path><path d="M252.86 167.91L383.8 165.51" stroke="rgba(36, 38, 53, 1)" stroke-width="1.5"></path><path d="M252.86 167.91L231.67 305.43" stroke="rgba(36, 38, 53, 1)" stroke-width="1.5"></path><path d="M238.45 252.06L238.45 252.06" stroke="rgba(36, 38, 53, 1)" stroke-width="1.5"></path><path d="M238.45 252.06L231.67 305.43" stroke="rgba(36, 38, 53, 1)" stroke-width="1.5"></path><path d="M238.45 252.06L318.67 256.1" stroke="rgba(36, 38, 53, 1)" stroke-width="1.5"></path><path d="M238.45 252.06L306.2 190.09" stroke="rgba(36, 38, 53, 1)" stroke-width="1.5"></path><path d="M238.45 252.06L304.48 319.86" stroke="rgba(36, 38, 53, 1)" stroke-width="1.5"></path><path d="M238.45 252.06L162.47 332.67" stroke="rgba(36, 38, 53, 1)" stroke-width="1.5"></path><path d="M231.67 305.43L231.67 305.43" stroke="rgba(36, 38, 53, 1)" stroke-width="1.5"></path><path d="M231.67 305.43L304.48 319.86" stroke="rgba(36, 38, 53, 1)" stroke-width="1.5"></path><path d="M231.67 305.43L318.67 256.1" stroke="rgba(36, 38, 53, 1)" stroke-width="1.5"></path><path d="M231.67 305.43L244.87 409.6" stroke="rgba(36, 38, 53, 1)" stroke-width="1.5"></path><path d="M244.87 409.6L244.87 409.6" stroke="rgba(36, 38, 53, 1)" stroke-width="1.5"></path><path d="M244.87 409.6L313.28 395.97" stroke="rgba(36, 38, 53, 1)" stroke-width="1.5"></path><path d="M321.68 115.06L321.68 115.06" stroke="rgba(36, 38, 53, 1)" stroke-width="1.5"></path><path d="M321.68 115.06L306.2 190.09" stroke="rgba(36, 38, 53, 1)" stroke-width="1.5"></path><path d="M321.68 115.06L399.75 111.78" stroke="rgba(36, 38, 53, 1)" stroke-width="1.5"></path><path d="M306.2 190.09L306.2 190.09" stroke="rgba(36, 38, 53, 1)" stroke-width="1.5"></path><path d="M306.2 190.09L318.67 256.1" stroke="rgba(36, 38, 53, 1)" stroke-width="1.5"></path><path d="M306.2 190.09L383.8 165.51" stroke="rgba(36, 38, 53, 1)" stroke-width="1.5"></path><path d="M318.67 256.1L318.67 256.1" stroke="rgba(36, 38, 53, 1)" stroke-width="1.5"></path><path d="M318.67 256.1L304.48 319.86" stroke="rgba(36, 38, 53, 1)" stroke-width="1.5"></path><path d="M318.67 256.1L406.21 238.24" stroke="rgba(36, 38, 53, 1)" stroke-width="1.5"></path><path d="M318.67 256.1L393.91 307.41" stroke="rgba(36, 38, 53, 1)" stroke-width="1.5"></path><path d="M304.48 319.86L304.48 319.86" stroke="rgba(36, 38, 53, 1)" stroke-width="1.5"></path><path d="M304.48 319.86L313.28 395.97" stroke="rgba(36, 38, 53, 1)" stroke-width="1.5"></path><path d="M304.48 319.86L393.91 307.41" stroke="rgba(36, 38, 53, 1)" stroke-width="1.5"></path><path d="M313.28 395.97L313.28 395.97" stroke="rgba(36, 38, 53, 1)" stroke-width="1.5"></path><path d="M313.28 395.97L382.52 397.92" stroke="rgba(36, 38, 53, 1)" stroke-width="1.5"></path><path d="M313.28 395.97L393.91 307.41" stroke="rgba(36, 38, 53, 1)" stroke-width="1.5"></path><path d="M313.28 395.97L231.67 305.43" stroke="rgba(36, 38, 53, 1)" stroke-width="1.5"></path><path d="M313.28 395.97L318.67 256.1" stroke="rgba(36, 38, 53, 1)" stroke-width="1.5"></path><path d="M393.28 -32.2L393.28 -32.2" stroke="rgba(36, 38, 53, 1)" stroke-width="1.5"></path><path d="M393.28 -32.2L381.93 28.9" stroke="rgba(36, 38, 53, 1)" stroke-width="1.5"></path><path d="M393.28 -32.2L456.95 -42.85" stroke="rgba(36, 38, 53, 1)" stroke-width="1.5"></path><path d="M393.28 -32.2L470.7 44.59" stroke="rgba(36, 38, 53, 1)" stroke-width="1.5"></path><path d="M393.28 -32.2L520.03 -25.06" stroke="rgba(36, 38, 53, 1)" stroke-width="1.5"></path><path d="M393.28 -32.2L399.75 111.78" stroke="rgba(36, 38, 53, 1)" stroke-width="1.5"></path><path d="M381.93 28.9L381.93 28.9" stroke="rgba(36, 38, 53, 1)" stroke-width="1.5"></path><path d="M381.93 28.9L399.75 111.78" stroke="rgba(36, 38, 53, 1)" stroke-width="1.5"></path><path d="M399.75 111.78L399.75 111.78" stroke="rgba(36, 38, 53, 1)" stroke-width="1.5"></path><path d="M399.75 111.78L383.8 165.51" stroke="rgba(36, 38, 53, 1)" stroke-width="1.5"></path><path d="M383.8 165.51L383.8 165.51" stroke="rgba(36, 38, 53, 1)" stroke-width="1.5"></path><path d="M383.8 165.51L406.21 238.24" stroke="rgba(36, 38, 53, 1)" stroke-width="1.5"></path><path d="M383.8 165.51L321.68 115.06" stroke="rgba(36, 38, 53, 1)" stroke-width="1.5"></path><path d="M406.21 238.24L406.21 238.24" stroke="rgba(36, 38, 53, 1)" stroke-width="1.5"></path><path d="M406.21 238.24L447.73 243.38" stroke="rgba(36, 38, 53, 1)" stroke-width="1.5"></path><path d="M406.21 238.24L393.91 307.41" stroke="rgba(36, 38, 53, 1)" stroke-width="1.5"></path><path d="M406.21 238.24L465.3 162.53" stroke="rgba(36, 38, 53, 1)" stroke-width="1.5"></path><path d="M393.91 307.41L393.91 307.41" stroke="rgba(36, 38, 53, 1)" stroke-width="1.5"></path><path d="M393.91 307.41L470.12 325.9" stroke="rgba(36, 38, 53, 1)" stroke-width="1.5"></path><path d="M393.91 307.41L447.73 243.38" stroke="rgba(36, 38, 53, 1)" stroke-width="1.5"></path><path d="M382.52 397.92L382.52 397.92" stroke="rgba(36, 38, 53, 1)" stroke-width="1.5"></path><path d="M382.52 397.92L461.28 398.65" stroke="rgba(36, 38, 53, 1)" stroke-width="1.5"></path><path d="M382.52 397.92L393.91 307.41" stroke="rgba(36, 38, 53, 1)" stroke-width="1.5"></path><path d="M382.52 397.92L304.48 319.86" stroke="rgba(36, 38, 53, 1)" stroke-width="1.5"></path><path d="M382.52 397.92L470.12 325.9" stroke="rgba(36, 38, 53, 1)" stroke-width="1.5"></path><path d="M382.52 397.92L244.87 409.6" stroke="rgba(36, 38, 53, 1)" stroke-width="1.5"></path><path d="M456.95 -42.85L456.95 -42.85" stroke="rgba(36, 38, 53, 1)" stroke-width="1.5"></path><path d="M456.95 -42.85L520.03 -25.06" stroke="rgba(36, 38, 53, 1)" stroke-width="1.5"></path><path d="M456.95 -42.85L470.7 44.59" stroke="rgba(36, 38, 53, 1)" stroke-width="1.5"></path><path d="M456.95 -42.85L381.93 28.9" stroke="rgba(36, 38, 53, 1)" stroke-width="1.5"></path><path d="M456.95 -42.85L540.93 29.47" stroke="rgba(36, 38, 53, 1)" stroke-width="1.5"></path><path d="M456.95 -42.85L466.51 98.99" stroke="rgba(36, 38, 53, 1)" stroke-width="1.5"></path><path d="M470.7 44.59L470.7 44.59" stroke="rgba(36, 38, 53, 1)" stroke-width="1.5"></path><path d="M470.7 44.59L466.51 98.99" stroke="rgba(36, 38, 53, 1)" stroke-width="1.5"></path><path d="M470.7 44.59L540.93 29.47" stroke="rgba(36, 38, 53, 1)" stroke-width="1.5"></path><path d="M470.7 44.59L520.03 -25.06" stroke="rgba(36, 38, 53, 1)" stroke-width="1.5"></path><path d="M470.7 44.59L539.54 97.53" stroke="rgba(36, 38, 53, 1)" stroke-width="1.5"></path><path d="M466.51 98.99L466.51 98.99" stroke="rgba(36, 38, 53, 1)" stroke-width="1.5"></path><path d="M466.51 98.99L465.3 162.53" stroke="rgba(36, 38, 53, 1)" stroke-width="1.5"></path><path d="M466.51 98.99L399.75 111.78" stroke="rgba(36, 38, 53, 1)" stroke-width="1.5"></path><path d="M466.51 98.99L539.54 97.53" stroke="rgba(36, 38, 53, 1)" stroke-width="1.5"></path><path d="M466.51 98.99L532.18 163.84" stroke="rgba(36, 38, 53, 1)" stroke-width="1.5"></path><path d="M466.51 98.99L540.93 29.47" stroke="rgba(36, 38, 53, 1)" stroke-width="1.5"></path><path d="M465.3 162.53L465.3 162.53" stroke="rgba(36, 38, 53, 1)" stroke-width="1.5"></path><path d="M465.3 162.53L532.18 163.84" stroke="rgba(36, 38, 53, 1)" stroke-width="1.5"></path><path d="M447.73 243.38L447.73 243.38" stroke="rgba(36, 38, 53, 1)" stroke-width="1.5"></path><path d="M470.12 325.9L470.12 325.9" stroke="rgba(36, 38, 53, 1)" stroke-width="1.5"></path><path d="M470.12 325.9L540.22 317.07" stroke="rgba(36, 38, 53, 1)" stroke-width="1.5"></path><path d="M470.12 325.9L461.28 398.65" stroke="rgba(36, 38, 53, 1)" stroke-width="1.5"></path><path d="M470.12 325.9L529.95 264.89" stroke="rgba(36, 38, 53, 1)" stroke-width="1.5"></path><path d="M461.28 398.65L461.28 398.65" stroke="rgba(36, 38, 53, 1)" stroke-width="1.5"></path><path d="M461.28 398.65L551.62 408.12" stroke="rgba(36, 38, 53, 1)" stroke-width="1.5"></path><path d="M520.03 -25.06L520.03 -25.06" stroke="rgba(36, 38, 53, 1)" stroke-width="1.5"></path><path d="M520.03 -25.06L540.93 29.47" stroke="rgba(36, 38, 53, 1)" stroke-width="1.5"></path><path d="M520.03 -25.06L607.02 -27.72" stroke="rgba(36, 38, 53, 1)" stroke-width="1.5"></path><path d="M540.93 29.47L540.93 29.47" stroke="rgba(36, 38, 53, 1)" stroke-width="1.5"></path><path d="M540.93 29.47L604.51 39.51" stroke="rgba(36, 38, 53, 1)" stroke-width="1.5"></path><path d="M540.93 29.47L539.54 97.53" stroke="rgba(36, 38, 53, 1)" stroke-width="1.5"></path><path d="M540.93 29.47L607.02 -27.72" stroke="rgba(36, 38, 53, 1)" stroke-width="1.5"></path><path d="M539.54 97.53L539.54 97.53" stroke="rgba(36, 38, 53, 1)" stroke-width="1.5"></path><path d="M539.54 97.53L532.18 163.84" stroke="rgba(36, 38, 53, 1)" stroke-width="1.5"></path><path d="M539.54 97.53L615.21 113.98" stroke="rgba(36, 38, 53, 1)" stroke-width="1.5"></path><path d="M532.18 163.84L532.18 163.84" stroke="rgba(36, 38, 53, 1)" stroke-width="1.5"></path><path d="M532.18 163.84L603.57 188.43" stroke="rgba(36, 38, 53, 1)" stroke-width="1.5"></path><path d="M532.18 163.84L615.21 113.98" stroke="rgba(36, 38, 53, 1)" stroke-width="1.5"></path><path d="M532.18 163.84L529.95 264.89" stroke="rgba(36, 38, 53, 1)" stroke-width="1.5"></path><path d="M529.95 264.89L529.95 264.89" stroke="rgba(36, 38, 53, 1)" stroke-width="1.5"></path><path d="M529.95 264.89L540.22 317.07" stroke="rgba(36, 38, 53, 1)" stroke-width="1.5"></path><path d="M529.95 264.89L595.89 249.08" stroke="rgba(36, 38, 53, 1)" stroke-width="1.5"></path><path d="M529.95 264.89L447.73 243.38" stroke="rgba(36, 38, 53, 1)" stroke-width="1.5"></path><path d="M540.22 317.07L540.22 317.07" stroke="rgba(36, 38, 53, 1)" stroke-width="1.5"></path><path d="M540.22 317.07L622.93 326.5" stroke="rgba(36, 38, 53, 1)" stroke-width="1.5"></path><path d="M551.62 408.12L551.62 408.12" stroke="rgba(36, 38, 53, 1)" stroke-width="1.5"></path><path d="M551.62 408.12L621.88 398.74" stroke="rgba(36, 38, 53, 1)" stroke-width="1.5"></path><path d="M607.02 -27.72L607.02 -27.72" stroke="rgba(36, 38, 53, 1)" stroke-width="1.5"></path><path d="M607.02 -27.72L604.51 39.51" stroke="rgba(36, 38, 53, 1)" stroke-width="1.5"></path><path d="M604.51 39.51L604.51 39.51" stroke="rgba(36, 38, 53, 1)" stroke-width="1.5"></path><path d="M604.51 39.51L615.21 113.98" stroke="rgba(36, 38, 53, 1)" stroke-width="1.5"></path><path d="M615.21 113.98L615.21 113.98" stroke="rgba(36, 38, 53, 1)" stroke-width="1.5"></path><path d="M615.21 113.98L603.57 188.43" stroke="rgba(36, 38, 53, 1)" stroke-width="1.5"></path><path d="M603.57 188.43L603.57 188.43" stroke="rgba(36, 38, 53, 1)" stroke-width="1.5"></path><path d="M603.57 188.43L595.89 249.08" stroke="rgba(36, 38, 53, 1)" stroke-width="1.5"></path><path d="M603.57 188.43L529.95 264.89" stroke="rgba(36, 38, 53, 1)" stroke-width="1.5"></path><path d="M595.89 249.08L595.89 249.08" stroke="rgba(36, 38, 53, 1)" stroke-width="1.5"></path><path d="M622.93 326.5L622.93 326.5" stroke="rgba(36, 38, 53, 1)" stroke-width="1.5"></path><path d="M622.93 326.5L621.88 398.74" stroke="rgba(36, 38, 53, 1)" stroke-width="1.5"></path><path d="M621.88 398.74L621.88 398.74" stroke="rgba(36, 38, 53, 1)" stroke-width="1.5"></path><circle r="5" cx="-23.9" cy="260.03" fill="rgba(36, 38, 53, 1)"></circle><circle r="5" cx="-33.39" cy="336.56" fill="rgba(36, 38, 53, 1)"></circle><circle r="5" cx="-27.7" cy="383.93" fill="rgba(36, 38, 53, 1)"></circle><circle r="5" cx="27.27" cy="264.64" fill="rgba(36, 38, 53, 1)"></circle><circle r="5" cx="41.09" cy="308.93" fill="rgba(36, 38, 53, 1)"></circle><circle r="5" cx="42.14" cy="374.55" fill="rgba(36, 38, 53, 1)"></circle><circle r="5" cx="121.75" cy="261.62" fill="rgba(36, 38, 53, 1)"></circle><circle r="5" cx="96.68" cy="314.36" fill="rgba(36, 38, 53, 1)"></circle><circle r="5" cx="90.63" cy="393.15" fill="rgba(36, 38, 53, 1)"></circle><circle r="5" cx="162.47" cy="332.67" fill="rgba(36, 38, 53, 1)"></circle><circle r="5" cx="252.86" cy="167.91" fill="rgba(36, 38, 53, 1)"></circle><circle r="5" cx="238.45" cy="252.06" fill="rgba(36, 38, 53, 1)"></circle><circle r="5" cx="231.67" cy="305.43" fill="rgba(36, 38, 53, 1)"></circle><circle r="5" cx="244.87" cy="409.6" fill="rgba(36, 38, 53, 1)"></circle><circle r="5" cx="321.68" cy="115.06" fill="rgba(36, 38, 53, 1)"></circle><circle r="5" cx="306.2" cy="190.09" fill="rgba(36, 38, 53, 1)"></circle><circle r="5" cx="318.67" cy="256.1" fill="rgba(36, 38, 53, 1)"></circle><circle r="5" cx="304.48" cy="319.86" fill="rgba(36, 38, 53, 1)"></circle><circle r="5" cx="313.28" cy="395.97" fill="rgba(36, 38, 53, 1)"></circle><circle r="5" cx="393.28" cy="-32.2" fill="rgba(36, 38, 53, 1)"></circle><circle r="5" cx="381.93" cy="28.9" fill="rgba(36, 38, 53, 1)"></circle><circle r="5" cx="399.75" cy="111.78" fill="rgba(36, 38, 53, 1)"></circle><circle r="5" cx="383.8" cy="165.51" fill="rgba(36, 38, 53, 1)"></circle><circle r="5" cx="406.21" cy="238.24" fill="rgba(36, 38, 53, 1)"></circle><circle r="5" cx="393.91" cy="307.41" fill="rgba(36, 38, 53, 1)"></circle><circle r="5" cx="382.52" cy="397.92" fill="rgba(36, 38, 53, 1)"></circle><circle r="5" cx="456.95" cy="-42.85" fill="rgba(36, 38, 53, 1)"></circle><circle r="5" cx="470.7" cy="44.59" fill="rgba(36, 38, 53, 1)"></circle><circle r="5" cx="466.51" cy="98.99" fill="rgba(36, 38, 53, 1)"></circle><circle r="5" cx="465.3" cy="162.53" fill="rgba(36, 38, 53, 1)"></circle><circle r="5" cx="447.73" cy="243.38" fill="rgba(36, 38, 53, 1)"></circle><circle r="5" cx="470.12" cy="325.9" fill="rgba(36, 38, 53, 1)"></circle><circle r="5" cx="461.28" cy="398.65" fill="rgba(36, 38, 53, 1)"></circle><circle r="5" cx="520.03" cy="-25.06" fill="rgba(36, 38, 53, 1)"></circle><circle r="5" cx="540.93" cy="29.47" fill="rgba(36, 38, 53, 1)"></circle><circle r="5" cx="539.54" cy="97.53" fill="rgba(36, 38, 53, 1)"></circle><circle r="5" cx="532.18" cy="163.84" fill="rgba(36, 38, 53, 1)"></circle><circle r="5" cx="529.95" cy="264.89" fill="rgba(36, 38, 53, 1)"></circle><circle r="5" cx="540.22" cy="317.07" fill="rgba(36, 38, 53, 1)"></circle><circle r="5" cx="551.62" cy="408.12" fill="rgba(36, 38, 53, 1)"></circle><circle r="5" cx="607.02" cy="-27.72" fill="rgba(36, 38, 53, 1)"></circle><circle r="5" cx="604.51" cy="39.51" fill="rgba(36, 38, 53, 1)"></circle><circle r="5" cx="615.21" cy="113.98" fill="rgba(36, 38, 53, 1)"></circle><circle r="5" cx="603.57" cy="188.43" fill="rgba(36, 38, 53, 1)"></circle><circle r="5" cx="595.89" cy="249.08" fill="rgba(36, 38, 53, 1)"></circle><circle r="5" cx="622.93" cy="326.5" fill="rgba(36, 38, 53, 1)"></circle><circle r="5" cx="621.88" cy="398.74" fill="rgba(36, 38, 53, 1)"></circle><path d="M102.51 311.57L102.51 311.57" stroke="hsl(324.5, 76%, 61.7%)" stroke-width="1.5"></path><path d="M102.51 311.57L44.98 331.98" stroke="hsl(324.5, 76%, 61.7%)" stroke-width="1.5"></path><path d="M102.51 311.57L116.38 382.94" stroke="hsl(324.5, 76%, 61.7%)" stroke-width="1.5"></path><path d="M102.51 311.57L186.16 382.92" stroke="hsl(324.5, 76%, 61.7%)" stroke-width="1.5"></path><path d="M102.51 311.57L28.82 406.86" stroke="hsl(324.5, 76%, 61.7%)" stroke-width="1.5"></path><path d="M245.09 305.68L245.09 305.68" stroke="hsl(324.5, 76%, 61.7%)" stroke-width="1.5"></path><path d="M245.09 305.68L309.36 321.42" stroke="hsl(324.5, 76%, 61.7%)" stroke-width="1.5"></path><path d="M245.09 305.68L303.02 264.23" stroke="hsl(324.5, 76%, 61.7%)" stroke-width="1.5"></path><path d="M245.09 305.68L259.9 401.56" stroke="hsl(324.5, 76%, 61.7%)" stroke-width="1.5"></path><path d="M245.09 305.68L186.16 382.92" stroke="hsl(324.5, 76%, 61.7%)" stroke-width="1.5"></path><path d="M541.1 37.99L541.1 37.99" stroke="hsl(324.5, 76%, 61.7%)" stroke-width="1.5"></path><path d="M541.1 37.99L548.49 93.27" stroke="hsl(324.5, 76%, 61.7%)" stroke-width="1.5"></path><path d="M541.1 37.99L619.74 19.8" stroke="hsl(324.5, 76%, 61.7%)" stroke-width="1.5"></path><path d="M541.1 37.99L594.05 106.75" stroke="hsl(324.5, 76%, 61.7%)" stroke-width="1.5"></path><path d="M541.1 37.99L594.01 -38.93" stroke="hsl(324.5, 76%, 61.7%)" stroke-width="1.5"></path><path d="M541.1 37.99L471.83 110.6" stroke="hsl(324.5, 76%, 61.7%)" stroke-width="1.5"></path><path d="M550.23 184.49L550.23 184.49" stroke="hsl(324.5, 76%, 61.7%)" stroke-width="1.5"></path><path d="M550.23 184.49L538.73 249.9" stroke="hsl(324.5, 76%, 61.7%)" stroke-width="1.5"></path><path d="M550.23 184.49L618.28 165.17" stroke="hsl(324.5, 76%, 61.7%)" stroke-width="1.5"></path><path d="M550.23 184.49L594.05 106.75" stroke="hsl(324.5, 76%, 61.7%)" stroke-width="1.5"></path><path d="M550.23 184.49L610.88 251.61" stroke="hsl(324.5, 76%, 61.7%)" stroke-width="1.5"></path><path d="M550.23 184.49L548.49 93.27" stroke="hsl(324.5, 76%, 61.7%)" stroke-width="1.5"></path><path d="M594.01 -38.93L594.01 -38.93" stroke="hsl(324.5, 76%, 61.7%)" stroke-width="1.5"></path><path d="M594.01 -38.93L619.74 19.8" stroke="hsl(324.5, 76%, 61.7%)" stroke-width="1.5"></path><path d="M594.01 -38.93L457.75 -19.92" stroke="hsl(324.5, 76%, 61.7%)" stroke-width="1.5"></path><path d="M-47.08 311.89L-47.08 311.89" stroke="hsl(324.5, 76%, 61.7%)" stroke-width="1.5"></path><path d="M-47.08 311.89L-32.93 400.98" stroke="hsl(324.5, 76%, 61.7%)" stroke-width="1.5"></path><path d="M-47.08 311.89L44.98 331.98" stroke="hsl(324.5, 76%, 61.7%)" stroke-width="1.5"></path><path d="M-47.08 311.89L28.82 406.86" stroke="hsl(324.5, 76%, 61.7%)" stroke-width="1.5"></path><path d="M-32.93 400.98L-32.93 400.98" stroke="hsl(324.5, 76%, 61.7%)" stroke-width="1.5"></path><path d="M-32.93 400.98L28.82 406.86" stroke="hsl(324.5, 76%, 61.7%)" stroke-width="1.5"></path><path d="M-32.93 400.98L44.98 331.98" stroke="hsl(324.5, 76%, 61.7%)" stroke-width="1.5"></path><path d="M-32.93 400.98L116.38 382.94" stroke="hsl(324.5, 76%, 61.7%)" stroke-width="1.5"></path><path d="M-32.93 400.98L102.51 311.57" stroke="hsl(324.5, 76%, 61.7%)" stroke-width="1.5"></path><path d="M44.98 331.98L44.98 331.98" stroke="hsl(324.5, 76%, 61.7%)" stroke-width="1.5"></path><path d="M44.98 331.98L28.82 406.86" stroke="hsl(324.5, 76%, 61.7%)" stroke-width="1.5"></path><path d="M28.82 406.86L28.82 406.86" stroke="hsl(324.5, 76%, 61.7%)" stroke-width="1.5"></path><path d="M28.82 406.86L116.38 382.94" stroke="hsl(324.5, 76%, 61.7%)" stroke-width="1.5"></path><path d="M116.38 382.94L116.38 382.94" stroke="hsl(324.5, 76%, 61.7%)" stroke-width="1.5"></path><path d="M116.38 382.94L186.16 382.92" stroke="hsl(324.5, 76%, 61.7%)" stroke-width="1.5"></path><path d="M186.16 382.92L186.16 382.92" stroke="hsl(324.5, 76%, 61.7%)" stroke-width="1.5"></path><path d="M186.16 382.92L259.9 401.56" stroke="hsl(324.5, 76%, 61.7%)" stroke-width="1.5"></path><path d="M259.9 401.56L259.9 401.56" stroke="hsl(324.5, 76%, 61.7%)" stroke-width="1.5"></path><path d="M259.9 401.56L321.82 395.96" stroke="hsl(324.5, 76%, 61.7%)" stroke-width="1.5"></path><path d="M259.9 401.56L309.36 321.42" stroke="hsl(324.5, 76%, 61.7%)" stroke-width="1.5"></path><path d="M259.9 401.56L386.06 402.32" stroke="hsl(324.5, 76%, 61.7%)" stroke-width="1.5"></path><path d="M303.02 264.23L303.02 264.23" stroke="hsl(324.5, 76%, 61.7%)" stroke-width="1.5"></path><path d="M303.02 264.23L309.36 321.42" stroke="hsl(324.5, 76%, 61.7%)" stroke-width="1.5"></path><path d="M303.02 264.23L382.37 260.58" stroke="hsl(324.5, 76%, 61.7%)" stroke-width="1.5"></path><path d="M309.36 321.42L309.36 321.42" stroke="hsl(324.5, 76%, 61.7%)" stroke-width="1.5"></path><path d="M309.36 321.42L321.82 395.96" stroke="hsl(324.5, 76%, 61.7%)" stroke-width="1.5"></path><path d="M321.82 395.96L321.82 395.96" stroke="hsl(324.5, 76%, 61.7%)" stroke-width="1.5"></path><path d="M321.82 395.96L386.06 402.32" stroke="hsl(324.5, 76%, 61.7%)" stroke-width="1.5"></path><path d="M402.92 192.29L402.92 192.29" stroke="hsl(324.5, 76%, 61.7%)" stroke-width="1.5"></path><path d="M402.92 192.29L382.37 260.58" stroke="hsl(324.5, 76%, 61.7%)" stroke-width="1.5"></path><path d="M402.92 192.29L476.51 249.66" stroke="hsl(324.5, 76%, 61.7%)" stroke-width="1.5"></path><path d="M402.92 192.29L471.83 110.6" stroke="hsl(324.5, 76%, 61.7%)" stroke-width="1.5"></path><path d="M382.37 260.58L382.37 260.58" stroke="hsl(324.5, 76%, 61.7%)" stroke-width="1.5"></path><path d="M382.37 260.58L398.08 313.24" stroke="hsl(324.5, 76%, 61.7%)" stroke-width="1.5"></path><path d="M382.37 260.58L476.51 249.66" stroke="hsl(324.5, 76%, 61.7%)" stroke-width="1.5"></path><path d="M398.08 313.24L398.08 313.24" stroke="hsl(324.5, 76%, 61.7%)" stroke-width="1.5"></path><path d="M398.08 313.24L460.51 324.66" stroke="hsl(324.5, 76%, 61.7%)" stroke-width="1.5"></path><path d="M398.08 313.24L449.21 386.18" stroke="hsl(324.5, 76%, 61.7%)" stroke-width="1.5"></path><path d="M386.06 402.32L386.06 402.32" stroke="hsl(324.5, 76%, 61.7%)" stroke-width="1.5"></path><path d="M386.06 402.32L449.21 386.18" stroke="hsl(324.5, 76%, 61.7%)" stroke-width="1.5"></path><path d="M457.75 -19.92L457.75 -19.92" stroke="hsl(324.5, 76%, 61.7%)" stroke-width="1.5"></path><path d="M457.75 -19.92L541.1 37.99" stroke="hsl(324.5, 76%, 61.7%)" stroke-width="1.5"></path><path d="M457.75 -19.92L471.83 110.6" stroke="hsl(324.5, 76%, 61.7%)" stroke-width="1.5"></path><path d="M471.83 110.6L471.83 110.6" stroke="hsl(324.5, 76%, 61.7%)" stroke-width="1.5"></path><path d="M471.83 110.6L548.49 93.27" stroke="hsl(324.5, 76%, 61.7%)" stroke-width="1.5"></path><path d="M476.51 249.66L476.51 249.66" stroke="hsl(324.5, 76%, 61.7%)" stroke-width="1.5"></path><path d="M476.51 249.66L538.73 249.9" stroke="hsl(324.5, 76%, 61.7%)" stroke-width="1.5"></path><path d="M476.51 249.66L460.51 324.66" stroke="hsl(324.5, 76%, 61.7%)" stroke-width="1.5"></path><path d="M476.51 249.66L550.23 184.49" stroke="hsl(324.5, 76%, 61.7%)" stroke-width="1.5"></path><path d="M476.51 249.66L398.08 313.24" stroke="hsl(324.5, 76%, 61.7%)" stroke-width="1.5"></path><path d="M460.51 324.66L460.51 324.66" stroke="hsl(324.5, 76%, 61.7%)" stroke-width="1.5"></path><path d="M460.51 324.66L449.21 386.18" stroke="hsl(324.5, 76%, 61.7%)" stroke-width="1.5"></path><path d="M460.51 324.66L548.38 337.71" stroke="hsl(324.5, 76%, 61.7%)" stroke-width="1.5"></path><path d="M449.21 386.18L449.21 386.18" stroke="hsl(324.5, 76%, 61.7%)" stroke-width="1.5"></path><path d="M449.21 386.18L551.88 388.05" stroke="hsl(324.5, 76%, 61.7%)" stroke-width="1.5"></path><path d="M548.49 93.27L548.49 93.27" stroke="hsl(324.5, 76%, 61.7%)" stroke-width="1.5"></path><path d="M548.49 93.27L594.05 106.75" stroke="hsl(324.5, 76%, 61.7%)" stroke-width="1.5"></path><path d="M538.73 249.9L538.73 249.9" stroke="hsl(324.5, 76%, 61.7%)" stroke-width="1.5"></path><path d="M548.38 337.71L548.38 337.71" stroke="hsl(324.5, 76%, 61.7%)" stroke-width="1.5"></path><path d="M548.38 337.71L551.88 388.05" stroke="hsl(324.5, 76%, 61.7%)" stroke-width="1.5"></path><path d="M548.38 337.71L598.63 378.08" stroke="hsl(324.5, 76%, 61.7%)" stroke-width="1.5"></path><path d="M548.38 337.71L621.89 336.46" stroke="hsl(324.5, 76%, 61.7%)" stroke-width="1.5"></path><path d="M548.38 337.71L538.73 249.9" stroke="hsl(324.5, 76%, 61.7%)" stroke-width="1.5"></path><path d="M548.38 337.71L610.88 251.61" stroke="hsl(324.5, 76%, 61.7%)" stroke-width="1.5"></path><path d="M551.88 388.05L551.88 388.05" stroke="hsl(324.5, 76%, 61.7%)" stroke-width="1.5"></path><path d="M551.88 388.05L598.63 378.08" stroke="hsl(324.5, 76%, 61.7%)" stroke-width="1.5"></path><path d="M551.88 388.05L621.89 336.46" stroke="hsl(324.5, 76%, 61.7%)" stroke-width="1.5"></path><path d="M551.88 388.05L460.51 324.66" stroke="hsl(324.5, 76%, 61.7%)" stroke-width="1.5"></path><path d="M619.74 19.8L619.74 19.8" stroke="hsl(324.5, 76%, 61.7%)" stroke-width="1.5"></path><path d="M619.74 19.8L594.05 106.75" stroke="hsl(324.5, 76%, 61.7%)" stroke-width="1.5"></path><path d="M594.05 106.75L594.05 106.75" stroke="hsl(324.5, 76%, 61.7%)" stroke-width="1.5"></path><path d="M594.05 106.75L618.28 165.17" stroke="hsl(324.5, 76%, 61.7%)" stroke-width="1.5"></path><path d="M618.28 165.17L618.28 165.17" stroke="hsl(324.5, 76%, 61.7%)" stroke-width="1.5"></path><path d="M618.28 165.17L610.88 251.61" stroke="hsl(324.5, 76%, 61.7%)" stroke-width="1.5"></path><path d="M610.88 251.61L610.88 251.61" stroke="hsl(324.5, 76%, 61.7%)" stroke-width="1.5"></path><path d="M610.88 251.61L538.73 249.9" stroke="hsl(324.5, 76%, 61.7%)" stroke-width="1.5"></path><path d="M610.88 251.61L621.89 336.46" stroke="hsl(324.5, 76%, 61.7%)" stroke-width="1.5"></path><path d="M621.89 336.46L621.89 336.46" stroke="hsl(324.5, 76%, 61.7%)" stroke-width="1.5"></path><path d="M621.89 336.46L598.63 378.08" stroke="hsl(324.5, 76%, 61.7%)" stroke-width="1.5"></path><path d="M598.63 378.08L598.63 378.08" stroke="hsl(324.5, 76%, 61.7%)" stroke-width="1.5"></path><path d="M598.63 378.08L610.88 251.61" stroke="hsl(324.5, 76%, 61.7%)" stroke-width="1.5"></path><path d="M598.63 378.08L538.73 249.9" stroke="hsl(324.5, 76%, 61.7%)" stroke-width="1.5"></path><circle r="25" cx="102.51" cy="311.57" fill="url(#SvgjsRadialGradient1309)"></circle><circle r="25" cx="245.09" cy="305.68" fill="url(#SvgjsRadialGradient1309)"></circle><circle r="25" cx="541.1" cy="37.99" fill="url(#SvgjsRadialGradient1309)"></circle><circle r="25" cx="550.23" cy="184.49" fill="url(#SvgjsRadialGradient1309)"></circle><circle r="25" cx="594.01" cy="-38.93" fill="url(#SvgjsRadialGradient1309)"></circle><circle r="5" cx="-47.08" cy="311.89" fill="#ea8ec5"></circle><circle r="5" cx="-32.93" cy="400.98" fill="#ea8ec5"></circle><circle r="5" cx="44.98" cy="331.98" fill="#ea8ec5"></circle><circle r="5" cx="28.82" cy="406.86" fill="#ea8ec5"></circle><circle r="5" cx="116.38" cy="382.94" fill="#ea8ec5"></circle><circle r="5" cx="186.16" cy="382.92" fill="#ea8ec5"></circle><circle r="5" cx="259.9" cy="401.56" fill="#ea8ec5"></circle><circle r="5" cx="303.02" cy="264.23" fill="#ea8ec5"></circle><circle r="5" cx="309.36" cy="321.42" fill="#ea8ec5"></circle><circle r="5" cx="321.82" cy="395.96" fill="#ea8ec5"></circle><circle r="5" cx="402.92" cy="192.29" fill="#ea8ec5"></circle><circle r="5" cx="382.37" cy="260.58" fill="#ea8ec5"></circle><circle r="5" cx="398.08" cy="313.24" fill="#ea8ec5"></circle><circle r="5" cx="386.06" cy="402.32" fill="#ea8ec5"></circle><circle r="5" cx="457.75" cy="-19.92" fill="#ea8ec5"></circle><circle r="5" cx="471.83" cy="110.6" fill="#ea8ec5"></circle><circle r="5" cx="476.51" cy="249.66" fill="#ea8ec5"></circle><circle r="5" cx="460.51" cy="324.66" fill="#ea8ec5"></circle><circle r="5" cx="449.21" cy="386.18" fill="#ea8ec5"></circle><circle r="5" cx="548.49" cy="93.27" fill="#ea8ec5"></circle><circle r="5" cx="538.73" cy="249.9" fill="#ea8ec5"></circle><circle r="5" cx="548.38" cy="337.71" fill="#ea8ec5"></circle><circle r="5" cx="551.88" cy="388.05" fill="#ea8ec5"></circle><circle r="5" cx="619.74" cy="19.8" fill="#ea8ec5"></circle><circle r="5" cx="594.05" cy="106.75" fill="#ea8ec5"></circle><circle r="5" cx="618.28" cy="165.17" fill="#ea8ec5"></circle><circle r="5" cx="610.88" cy="251.61" fill="#ea8ec5"></circle><circle r="5" cx="621.89" cy="336.46" fill="#ea8ec5"></circle><circle r="5" cx="598.63" cy="378.08" fill="#ea8ec5"></circle></g><defs><mask id="SvgjsMask1308"><rect width="570" height="350" fill="#ffffff"></rect></mask><radialGradient id="SvgjsRadialGradient1309"><stop stop-color="#ffffff" offset="0.1"></stop><stop stop-color="rgba(213, 29, 138, 1)" offset="0.2"></stop><stop stop-color="rgba(213, 29, 138, 0)" offset="1"></stop></radialGradient></defs></svg>