<svg xmlns="http://www.w3.org/2000/svg" version="1.1" xmlns:xlink="http://www.w3.org/1999/xlink" xmlns:svgjs="http://svgjs.com/svgjs" width="570" height="350" preserveAspectRatio="none" viewBox="0 0 570 350"><g mask="url(&quot;#SvgjsMask1300&quot;)" fill="none"><rect width="570" height="350" x="0" y="0" fill="rgba(36, 38, 53, 1)"></rect><path d="M-26.58 235.6L-26.58 235.6" stroke="rgba(36, 38, 53, 1)" stroke-width="1.5"></path><path d="M-26.58 235.6L36 261.93" stroke="rgba(36, 38, 53, 1)" stroke-width="1.5"></path><path d="M-26.58 235.6L20.39 305.48" stroke="rgba(36, 38, 53, 1)" stroke-width="1.5"></path><path d="M-26.58 235.6L96.15 240.54" stroke="rgba(36, 38, 53, 1)" stroke-width="1.5"></path><path d="M-26.58 235.6L91.4 316.03" stroke="rgba(36, 38, 53, 1)" stroke-width="1.5"></path><path d="M-26.58 235.6L-39.28 380.8" stroke="rgba(36, 38, 53, 1)" stroke-width="1.5"></path><path d="M-26.58 235.6L46.62 403.56" stroke="rgba(36, 38, 53, 1)" stroke-width="1.5"></path><path d="M-39.28 380.8L-39.28 380.8" stroke="rgba(36, 38, 53, 1)" stroke-width="1.5"></path><path d="M-39.28 380.8L46.62 403.56" stroke="rgba(36, 38, 53, 1)" stroke-width="1.5"></path><path d="M-39.28 380.8L20.39 305.48" stroke="rgba(36, 38, 53, 1)" stroke-width="1.5"></path><path d="M-39.28 380.8L101.07 383.11" stroke="rgba(36, 38, 53, 1)" stroke-width="1.5"></path><path d="M36 261.93L36 261.93" stroke="rgba(36, 38, 53, 1)" stroke-width="1.5"></path><path d="M36 261.93L20.39 305.48" stroke="rgba(36, 38, 53, 1)" stroke-width="1.5"></path><path d="M20.39 305.48L20.39 305.48" stroke="rgba(36, 38, 53, 1)" stroke-width="1.5"></path><path d="M20.39 305.48L91.4 316.03" stroke="rgba(36, 38, 53, 1)" stroke-width="1.5"></path><path d="M20.39 305.48L96.15 240.54" stroke="rgba(36, 38, 53, 1)" stroke-width="1.5"></path><path d="M46.62 403.56L46.62 403.56" stroke="rgba(36, 38, 53, 1)" stroke-width="1.5"></path><path d="M46.62 403.56L101.07 383.11" stroke="rgba(36, 38, 53, 1)" stroke-width="1.5"></path><path d="M46.62 403.56L91.4 316.03" stroke="rgba(36, 38, 53, 1)" stroke-width="1.5"></path><path d="M96.15 240.54L96.15 240.54" stroke="rgba(36, 38, 53, 1)" stroke-width="1.5"></path><path d="M96.15 240.54L36 261.93" stroke="rgba(36, 38, 53, 1)" stroke-width="1.5"></path><path d="M96.15 240.54L91.4 316.03" stroke="rgba(36, 38, 53, 1)" stroke-width="1.5"></path><path d="M96.15 240.54L187.8 248.25" stroke="rgba(36, 38, 53, 1)" stroke-width="1.5"></path><path d="M91.4 316.03L91.4 316.03" stroke="rgba(36, 38, 53, 1)" stroke-width="1.5"></path><path d="M91.4 316.03L101.07 383.11" stroke="rgba(36, 38, 53, 1)" stroke-width="1.5"></path><path d="M91.4 316.03L167.32 324.13" stroke="rgba(36, 38, 53, 1)" stroke-width="1.5"></path><path d="M91.4 316.03L36 261.93" stroke="rgba(36, 38, 53, 1)" stroke-width="1.5"></path><path d="M101.07 383.11L101.07 383.11" stroke="rgba(36, 38, 53, 1)" stroke-width="1.5"></path><path d="M101.07 383.11L167.32 324.13" stroke="rgba(36, 38, 53, 1)" stroke-width="1.5"></path><path d="M101.07 383.11L188.69 403.03" stroke="rgba(36, 38, 53, 1)" stroke-width="1.5"></path><path d="M186.86 185.26L186.86 185.26" stroke="rgba(36, 38, 53, 1)" stroke-width="1.5"></path><path d="M186.86 185.26L239.55 176.73" stroke="rgba(36, 38, 53, 1)" stroke-width="1.5"></path><path d="M186.86 185.26L187.8 248.25" stroke="rgba(36, 38, 53, 1)" stroke-width="1.5"></path><path d="M187.8 248.25L187.8 248.25" stroke="rgba(36, 38, 53, 1)" stroke-width="1.5"></path><path d="M167.32 324.13L167.32 324.13" stroke="rgba(36, 38, 53, 1)" stroke-width="1.5"></path><path d="M167.32 324.13L187.8 248.25" stroke="rgba(36, 38, 53, 1)" stroke-width="1.5"></path><path d="M167.32 324.13L188.69 403.03" stroke="rgba(36, 38, 53, 1)" stroke-width="1.5"></path><path d="M167.32 324.13L238.81 385.31" stroke="rgba(36, 38, 53, 1)" stroke-width="1.5"></path><path d="M167.32 324.13L263.84 327.65" stroke="rgba(36, 38, 53, 1)" stroke-width="1.5"></path><path d="M188.69 403.03L188.69 403.03" stroke="rgba(36, 38, 53, 1)" stroke-width="1.5"></path><path d="M188.69 403.03L238.81 385.31" stroke="rgba(36, 38, 53, 1)" stroke-width="1.5"></path><path d="M188.69 403.03L263.84 327.65" stroke="rgba(36, 38, 53, 1)" stroke-width="1.5"></path><path d="M188.69 403.03L91.4 316.03" stroke="rgba(36, 38, 53, 1)" stroke-width="1.5"></path><path d="M188.69 403.03L319 377.1" stroke="rgba(36, 38, 53, 1)" stroke-width="1.5"></path><path d="M239.55 176.73L239.55 176.73" stroke="rgba(36, 38, 53, 1)" stroke-width="1.5"></path><path d="M239.55 176.73L265.37 234.88" stroke="rgba(36, 38, 53, 1)" stroke-width="1.5"></path><path d="M239.55 176.73L187.8 248.25" stroke="rgba(36, 38, 53, 1)" stroke-width="1.5"></path><path d="M239.55 176.73L327.77 195.4" stroke="rgba(36, 38, 53, 1)" stroke-width="1.5"></path><path d="M265.37 234.88L265.37 234.88" stroke="rgba(36, 38, 53, 1)" stroke-width="1.5"></path><path d="M265.37 234.88L331.49 243.53" stroke="rgba(36, 38, 53, 1)" stroke-width="1.5"></path><path d="M265.37 234.88L327.77 195.4" stroke="rgba(36, 38, 53, 1)" stroke-width="1.5"></path><path d="M265.37 234.88L187.8 248.25" stroke="rgba(36, 38, 53, 1)" stroke-width="1.5"></path><path d="M265.37 234.88L263.84 327.65" stroke="rgba(36, 38, 53, 1)" stroke-width="1.5"></path><path d="M263.84 327.65L263.84 327.65" stroke="rgba(36, 38, 53, 1)" stroke-width="1.5"></path><path d="M263.84 327.65L238.81 385.31" stroke="rgba(36, 38, 53, 1)" stroke-width="1.5"></path><path d="M263.84 327.65L319 377.1" stroke="rgba(36, 38, 53, 1)" stroke-width="1.5"></path><path d="M238.81 385.31L238.81 385.31" stroke="rgba(36, 38, 53, 1)" stroke-width="1.5"></path><path d="M238.81 385.31L319 377.1" stroke="rgba(36, 38, 53, 1)" stroke-width="1.5"></path><path d="M238.81 385.31L101.07 383.11" stroke="rgba(36, 38, 53, 1)" stroke-width="1.5"></path><path d="M332.61 122.83L332.61 122.83" stroke="rgba(36, 38, 53, 1)" stroke-width="1.5"></path><path d="M332.61 122.83L384.9 169.21" stroke="rgba(36, 38, 53, 1)" stroke-width="1.5"></path><path d="M332.61 122.83L327.77 195.4" stroke="rgba(36, 38, 53, 1)" stroke-width="1.5"></path><path d="M332.61 122.83L406.89 96.99" stroke="rgba(36, 38, 53, 1)" stroke-width="1.5"></path><path d="M332.61 122.83L377.68 45.61" stroke="rgba(36, 38, 53, 1)" stroke-width="1.5"></path><path d="M327.77 195.4L327.77 195.4" stroke="rgba(36, 38, 53, 1)" stroke-width="1.5"></path><path d="M327.77 195.4L331.49 243.53" stroke="rgba(36, 38, 53, 1)" stroke-width="1.5"></path><path d="M327.77 195.4L384.9 169.21" stroke="rgba(36, 38, 53, 1)" stroke-width="1.5"></path><path d="M331.49 243.53L331.49 243.53" stroke="rgba(36, 38, 53, 1)" stroke-width="1.5"></path><path d="M331.49 243.53L386.76 264.13" stroke="rgba(36, 38, 53, 1)" stroke-width="1.5"></path><path d="M331.49 243.53L384.9 169.21" stroke="rgba(36, 38, 53, 1)" stroke-width="1.5"></path><path d="M331.49 243.53L381.62 333.62" stroke="rgba(36, 38, 53, 1)" stroke-width="1.5"></path><path d="M319 377.1L319 377.1" stroke="rgba(36, 38, 53, 1)" stroke-width="1.5"></path><path d="M319 377.1L381.07 394.72" stroke="rgba(36, 38, 53, 1)" stroke-width="1.5"></path><path d="M407.11 -50.62L407.11 -50.62" stroke="rgba(36, 38, 53, 1)" stroke-width="1.5"></path><path d="M407.11 -50.62L461.34 -47.38" stroke="rgba(36, 38, 53, 1)" stroke-width="1.5"></path><path d="M407.11 -50.62L377.68 45.61" stroke="rgba(36, 38, 53, 1)" stroke-width="1.5"></path><path d="M407.11 -50.62L452.81 40.75" stroke="rgba(36, 38, 53, 1)" stroke-width="1.5"></path><path d="M407.11 -50.62L536.19 -47.26" stroke="rgba(36, 38, 53, 1)" stroke-width="1.5"></path><path d="M407.11 -50.62L517.07 26.04" stroke="rgba(36, 38, 53, 1)" stroke-width="1.5"></path><path d="M407.11 -50.62L406.89 96.99" stroke="rgba(36, 38, 53, 1)" stroke-width="1.5"></path><path d="M377.68 45.61L377.68 45.61" stroke="rgba(36, 38, 53, 1)" stroke-width="1.5"></path><path d="M377.68 45.61L406.89 96.99" stroke="rgba(36, 38, 53, 1)" stroke-width="1.5"></path><path d="M377.68 45.61L452.81 40.75" stroke="rgba(36, 38, 53, 1)" stroke-width="1.5"></path><path d="M377.68 45.61L446.68 94.73" stroke="rgba(36, 38, 53, 1)" stroke-width="1.5"></path><path d="M377.68 45.61L384.9 169.21" stroke="rgba(36, 38, 53, 1)" stroke-width="1.5"></path><path d="M406.89 96.99L406.89 96.99" stroke="rgba(36, 38, 53, 1)" stroke-width="1.5"></path><path d="M406.89 96.99L446.68 94.73" stroke="rgba(36, 38, 53, 1)" stroke-width="1.5"></path><path d="M406.89 96.99L452.81 40.75" stroke="rgba(36, 38, 53, 1)" stroke-width="1.5"></path><path d="M406.89 96.99L384.9 169.21" stroke="rgba(36, 38, 53, 1)" stroke-width="1.5"></path><path d="M384.9 169.21L384.9 169.21" stroke="rgba(36, 38, 53, 1)" stroke-width="1.5"></path><path d="M384.9 169.21L445.68 175.83" stroke="rgba(36, 38, 53, 1)" stroke-width="1.5"></path><path d="M386.76 264.13L386.76 264.13" stroke="rgba(36, 38, 53, 1)" stroke-width="1.5"></path><path d="M381.62 333.62L381.62 333.62" stroke="rgba(36, 38, 53, 1)" stroke-width="1.5"></path><path d="M381.62 333.62L381.07 394.72" stroke="rgba(36, 38, 53, 1)" stroke-width="1.5"></path><path d="M381.62 333.62L386.76 264.13" stroke="rgba(36, 38, 53, 1)" stroke-width="1.5"></path><path d="M381.62 333.62L453.49 335.35" stroke="rgba(36, 38, 53, 1)" stroke-width="1.5"></path><path d="M381.07 394.72L381.07 394.72" stroke="rgba(36, 38, 53, 1)" stroke-width="1.5"></path><path d="M381.07 394.72L451.26 404.63" stroke="rgba(36, 38, 53, 1)" stroke-width="1.5"></path><path d="M381.07 394.72L453.49 335.35" stroke="rgba(36, 38, 53, 1)" stroke-width="1.5"></path><path d="M461.34 -47.38L461.34 -47.38" stroke="rgba(36, 38, 53, 1)" stroke-width="1.5"></path><path d="M461.34 -47.38L536.19 -47.26" stroke="rgba(36, 38, 53, 1)" stroke-width="1.5"></path><path d="M461.34 -47.38L452.81 40.75" stroke="rgba(36, 38, 53, 1)" stroke-width="1.5"></path><path d="M452.81 40.75L452.81 40.75" stroke="rgba(36, 38, 53, 1)" stroke-width="1.5"></path><path d="M452.81 40.75L446.68 94.73" stroke="rgba(36, 38, 53, 1)" stroke-width="1.5"></path><path d="M452.81 40.75L517.07 26.04" stroke="rgba(36, 38, 53, 1)" stroke-width="1.5"></path><path d="M446.68 94.73L446.68 94.73" stroke="rgba(36, 38, 53, 1)" stroke-width="1.5"></path><path d="M446.68 94.73L445.68 175.83" stroke="rgba(36, 38, 53, 1)" stroke-width="1.5"></path><path d="M445.68 175.83L445.68 175.83" stroke="rgba(36, 38, 53, 1)" stroke-width="1.5"></path><path d="M445.68 175.83L472 241.22" stroke="rgba(36, 38, 53, 1)" stroke-width="1.5"></path><path d="M445.68 175.83L406.89 96.99" stroke="rgba(36, 38, 53, 1)" stroke-width="1.5"></path><path d="M445.68 175.83L536.45 181.91" stroke="rgba(36, 38, 53, 1)" stroke-width="1.5"></path><path d="M445.68 175.83L386.76 264.13" stroke="rgba(36, 38, 53, 1)" stroke-width="1.5"></path><path d="M472 241.22L472 241.22" stroke="rgba(36, 38, 53, 1)" stroke-width="1.5"></path><path d="M472 241.22L537.39 264.54" stroke="rgba(36, 38, 53, 1)" stroke-width="1.5"></path><path d="M453.49 335.35L453.49 335.35" stroke="rgba(36, 38, 53, 1)" stroke-width="1.5"></path><path d="M453.49 335.35L451.26 404.63" stroke="rgba(36, 38, 53, 1)" stroke-width="1.5"></path><path d="M453.49 335.35L533.31 317.54" stroke="rgba(36, 38, 53, 1)" stroke-width="1.5"></path><path d="M453.49 335.35L520.08 403.29" stroke="rgba(36, 38, 53, 1)" stroke-width="1.5"></path><path d="M453.49 335.35L472 241.22" stroke="rgba(36, 38, 53, 1)" stroke-width="1.5"></path><path d="M451.26 404.63L451.26 404.63" stroke="rgba(36, 38, 53, 1)" stroke-width="1.5"></path><path d="M451.26 404.63L520.08 403.29" stroke="rgba(36, 38, 53, 1)" stroke-width="1.5"></path><path d="M536.19 -47.26L536.19 -47.26" stroke="rgba(36, 38, 53, 1)" stroke-width="1.5"></path><path d="M536.19 -47.26L517.07 26.04" stroke="rgba(36, 38, 53, 1)" stroke-width="1.5"></path><path d="M517.07 26.04L517.07 26.04" stroke="rgba(36, 38, 53, 1)" stroke-width="1.5"></path><path d="M517.07 26.04L527.86 97.43" stroke="rgba(36, 38, 53, 1)" stroke-width="1.5"></path><path d="M517.07 26.04L461.34 -47.38" stroke="rgba(36, 38, 53, 1)" stroke-width="1.5"></path><path d="M527.86 97.43L527.86 97.43" stroke="rgba(36, 38, 53, 1)" stroke-width="1.5"></path><path d="M527.86 97.43L446.68 94.73" stroke="rgba(36, 38, 53, 1)" stroke-width="1.5"></path><path d="M527.86 97.43L607.14 123.16" stroke="rgba(36, 38, 53, 1)" stroke-width="1.5"></path><path d="M527.86 97.43L536.45 181.91" stroke="rgba(36, 38, 53, 1)" stroke-width="1.5"></path><path d="M527.86 97.43L452.81 40.75" stroke="rgba(36, 38, 53, 1)" stroke-width="1.5"></path><path d="M527.86 97.43L612.83 29.1" stroke="rgba(36, 38, 53, 1)" stroke-width="1.5"></path><path d="M536.45 181.91L536.45 181.91" stroke="rgba(36, 38, 53, 1)" stroke-width="1.5"></path><path d="M536.45 181.91L597.89 194.57" stroke="rgba(36, 38, 53, 1)" stroke-width="1.5"></path><path d="M536.45 181.91L590.56 237.72" stroke="rgba(36, 38, 53, 1)" stroke-width="1.5"></path><path d="M536.45 181.91L537.39 264.54" stroke="rgba(36, 38, 53, 1)" stroke-width="1.5"></path><path d="M536.45 181.91L472 241.22" stroke="rgba(36, 38, 53, 1)" stroke-width="1.5"></path><path d="M537.39 264.54L537.39 264.54" stroke="rgba(36, 38, 53, 1)" stroke-width="1.5"></path><path d="M537.39 264.54L533.31 317.54" stroke="rgba(36, 38, 53, 1)" stroke-width="1.5"></path><path d="M537.39 264.54L590.56 237.72" stroke="rgba(36, 38, 53, 1)" stroke-width="1.5"></path><path d="M533.31 317.54L533.31 317.54" stroke="rgba(36, 38, 53, 1)" stroke-width="1.5"></path><path d="M533.31 317.54L589.37 316.04" stroke="rgba(36, 38, 53, 1)" stroke-width="1.5"></path><path d="M533.31 317.54L520.08 403.29" stroke="rgba(36, 38, 53, 1)" stroke-width="1.5"></path><path d="M533.31 317.54L472 241.22" stroke="rgba(36, 38, 53, 1)" stroke-width="1.5"></path><path d="M533.31 317.54L590.56 237.72" stroke="rgba(36, 38, 53, 1)" stroke-width="1.5"></path><path d="M520.08 403.29L520.08 403.29" stroke="rgba(36, 38, 53, 1)" stroke-width="1.5"></path><path d="M520.08 403.29L620.84 387.61" stroke="rgba(36, 38, 53, 1)" stroke-width="1.5"></path><path d="M520.08 403.29L589.37 316.04" stroke="rgba(36, 38, 53, 1)" stroke-width="1.5"></path><path d="M520.08 403.29L381.07 394.72" stroke="rgba(36, 38, 53, 1)" stroke-width="1.5"></path><path d="M616.04 -37.61L616.04 -37.61" stroke="rgba(36, 38, 53, 1)" stroke-width="1.5"></path><path d="M616.04 -37.61L612.83 29.1" stroke="rgba(36, 38, 53, 1)" stroke-width="1.5"></path><path d="M616.04 -37.61L536.19 -47.26" stroke="rgba(36, 38, 53, 1)" stroke-width="1.5"></path><path d="M616.04 -37.61L517.07 26.04" stroke="rgba(36, 38, 53, 1)" stroke-width="1.5"></path><path d="M616.04 -37.61L461.34 -47.38" stroke="rgba(36, 38, 53, 1)" stroke-width="1.5"></path><path d="M616.04 -37.61L607.14 123.16" stroke="rgba(36, 38, 53, 1)" stroke-width="1.5"></path><path d="M612.83 29.1L612.83 29.1" stroke="rgba(36, 38, 53, 1)" stroke-width="1.5"></path><path d="M612.83 29.1L607.14 123.16" stroke="rgba(36, 38, 53, 1)" stroke-width="1.5"></path><path d="M612.83 29.1L517.07 26.04" stroke="rgba(36, 38, 53, 1)" stroke-width="1.5"></path><path d="M612.83 29.1L536.19 -47.26" stroke="rgba(36, 38, 53, 1)" stroke-width="1.5"></path><path d="M607.14 123.16L607.14 123.16" stroke="rgba(36, 38, 53, 1)" stroke-width="1.5"></path><path d="M607.14 123.16L597.89 194.57" stroke="rgba(36, 38, 53, 1)" stroke-width="1.5"></path><path d="M597.89 194.57L597.89 194.57" stroke="rgba(36, 38, 53, 1)" stroke-width="1.5"></path><path d="M597.89 194.57L590.56 237.72" stroke="rgba(36, 38, 53, 1)" stroke-width="1.5"></path><path d="M590.56 237.72L590.56 237.72" stroke="rgba(36, 38, 53, 1)" stroke-width="1.5"></path><path d="M590.56 237.72L589.37 316.04" stroke="rgba(36, 38, 53, 1)" stroke-width="1.5"></path><path d="M589.37 316.04L589.37 316.04" stroke="rgba(36, 38, 53, 1)" stroke-width="1.5"></path><path d="M589.37 316.04L537.39 264.54" stroke="rgba(36, 38, 53, 1)" stroke-width="1.5"></path><path d="M589.37 316.04L620.84 387.61" stroke="rgba(36, 38, 53, 1)" stroke-width="1.5"></path><path d="M620.84 387.61L620.84 387.61" stroke="rgba(36, 38, 53, 1)" stroke-width="1.5"></path><path d="M620.84 387.61L533.31 317.54" stroke="rgba(36, 38, 53, 1)" stroke-width="1.5"></path><path d="M620.84 387.61L537.39 264.54" stroke="rgba(36, 38, 53, 1)" stroke-width="1.5"></path><path d="M620.84 387.61L590.56 237.72" stroke="rgba(36, 38, 53, 1)" stroke-width="1.5"></path><circle r="5" cx="-26.58" cy="235.6" fill="rgba(36, 38, 53, 1)"></circle><circle r="5" cx="-39.28" cy="380.8" fill="rgba(36, 38, 53, 1)"></circle><circle r="5" cx="36" cy="261.93" fill="rgba(36, 38, 53, 1)"></circle><circle r="5" cx="20.39" cy="305.48" fill="rgba(36, 38, 53, 1)"></circle><circle r="5" cx="46.62" cy="403.56" fill="rgba(36, 38, 53, 1)"></circle><circle r="5" cx="96.15" cy="240.54" fill="rgba(36, 38, 53, 1)"></circle><circle r="5" cx="91.4" cy="316.03" fill="rgba(36, 38, 53, 1)"></circle><circle r="5" cx="101.07" cy="383.11" fill="rgba(36, 38, 53, 1)"></circle><circle r="5" cx="186.86" cy="185.26" fill="rgba(36, 38, 53, 1)"></circle><circle r="5" cx="187.8" cy="248.25" fill="rgba(36, 38, 53, 1)"></circle><circle r="5" cx="167.32" cy="324.13" fill="rgba(36, 38, 53, 1)"></circle><circle r="5" cx="188.69" cy="403.03" fill="rgba(36, 38, 53, 1)"></circle><circle r="5" cx="239.55" cy="176.73" fill="rgba(36, 38, 53, 1)"></circle><circle r="5" cx="265.37" cy="234.88" fill="rgba(36, 38, 53, 1)"></circle><circle r="5" cx="263.84" cy="327.65" fill="rgba(36, 38, 53, 1)"></circle><circle r="5" cx="238.81" cy="385.31" fill="rgba(36, 38, 53, 1)"></circle><circle r="5" cx="332.61" cy="122.83" fill="rgba(36, 38, 53, 1)"></circle><circle r="5" cx="327.77" cy="195.4" fill="rgba(36, 38, 53, 1)"></circle><circle r="5" cx="331.49" cy="243.53" fill="rgba(36, 38, 53, 1)"></circle><circle r="5" cx="319" cy="377.1" fill="rgba(36, 38, 53, 1)"></circle><circle r="5" cx="407.11" cy="-50.62" fill="rgba(36, 38, 53, 1)"></circle><circle r="5" cx="377.68" cy="45.61" fill="rgba(36, 38, 53, 1)"></circle><circle r="5" cx="406.89" cy="96.99" fill="rgba(36, 38, 53, 1)"></circle><circle r="5" cx="384.9" cy="169.21" fill="rgba(36, 38, 53, 1)"></circle><circle r="5" cx="386.76" cy="264.13" fill="rgba(36, 38, 53, 1)"></circle><circle r="5" cx="381.62" cy="333.62" fill="rgba(36, 38, 53, 1)"></circle><circle r="5" cx="381.07" cy="394.72" fill="rgba(36, 38, 53, 1)"></circle><circle r="5" cx="461.34" cy="-47.38" fill="rgba(36, 38, 53, 1)"></circle><circle r="5" cx="452.81" cy="40.75" fill="rgba(36, 38, 53, 1)"></circle><circle r="5" cx="446.68" cy="94.73" fill="rgba(36, 38, 53, 1)"></circle><circle r="5" cx="445.68" cy="175.83" fill="rgba(36, 38, 53, 1)"></circle><circle r="5" cx="472" cy="241.22" fill="rgba(36, 38, 53, 1)"></circle><circle r="5" cx="453.49" cy="335.35" fill="rgba(36, 38, 53, 1)"></circle><circle r="5" cx="451.26" cy="404.63" fill="rgba(36, 38, 53, 1)"></circle><circle r="5" cx="536.19" cy="-47.26" fill="rgba(36, 38, 53, 1)"></circle><circle r="5" cx="517.07" cy="26.04" fill="rgba(36, 38, 53, 1)"></circle><circle r="5" cx="527.86" cy="97.43" fill="rgba(36, 38, 53, 1)"></circle><circle r="5" cx="536.45" cy="181.91" fill="rgba(36, 38, 53, 1)"></circle><circle r="5" cx="537.39" cy="264.54" fill="rgba(36, 38, 53, 1)"></circle><circle r="5" cx="533.31" cy="317.54" fill="rgba(36, 38, 53, 1)"></circle><circle r="5" cx="520.08" cy="403.29" fill="rgba(36, 38, 53, 1)"></circle><circle r="5" cx="616.04" cy="-37.61" fill="rgba(36, 38, 53, 1)"></circle><circle r="5" cx="612.83" cy="29.1" fill="rgba(36, 38, 53, 1)"></circle><circle r="5" cx="607.14" cy="123.16" fill="rgba(36, 38, 53, 1)"></circle><circle r="5" cx="597.89" cy="194.57" fill="rgba(36, 38, 53, 1)"></circle><circle r="5" cx="590.56" cy="237.72" fill="rgba(36, 38, 53, 1)"></circle><circle r="5" cx="589.37" cy="316.04" fill="rgba(36, 38, 53, 1)"></circle><circle r="5" cx="620.84" cy="387.61" fill="rgba(36, 38, 53, 1)"></circle><path d="M93.23 380.18L93.23 380.18" stroke="hsl(324.5, 76%, 61.7%)" stroke-width="1.5"></path><path d="M93.23 380.18L30.25 395.04" stroke="hsl(324.5, 76%, 61.7%)" stroke-width="1.5"></path><path d="M93.23 380.18L39.91 309.44" stroke="hsl(324.5, 76%, 61.7%)" stroke-width="1.5"></path><path d="M93.23 380.18L180.82 406.92" stroke="hsl(324.5, 76%, 61.7%)" stroke-width="1.5"></path><path d="M93.23 380.18L194.16 336.57" stroke="hsl(324.5, 76%, 61.7%)" stroke-width="1.5"></path><path d="M93.23 380.18L-49.16 402.9" stroke="hsl(324.5, 76%, 61.7%)" stroke-width="1.5"></path><path d="M259.05 266.26L259.05 266.26" stroke="hsl(324.5, 76%, 61.7%)" stroke-width="1.5"></path><path d="M259.05 266.26L238.49 323.28" stroke="hsl(324.5, 76%, 61.7%)" stroke-width="1.5"></path><path d="M259.05 266.26L332.03 238.92" stroke="hsl(324.5, 76%, 61.7%)" stroke-width="1.5"></path><path d="M259.05 266.26L194.16 336.57" stroke="hsl(324.5, 76%, 61.7%)" stroke-width="1.5"></path><path d="M259.05 266.26L241.97 398.97" stroke="hsl(324.5, 76%, 61.7%)" stroke-width="1.5"></path><path d="M259.05 266.26L391.07 303.32" stroke="hsl(324.5, 76%, 61.7%)" stroke-width="1.5"></path><path d="M259.05 266.26L396.9 256.11" stroke="hsl(324.5, 76%, 61.7%)" stroke-width="1.5"></path><path d="M528.37 49.38L528.37 49.38" stroke="hsl(324.5, 76%, 61.7%)" stroke-width="1.5"></path><path d="M528.37 49.38L545.05 94.58" stroke="hsl(324.5, 76%, 61.7%)" stroke-width="1.5"></path><path d="M545.05 94.58L545.05 94.58" stroke="hsl(324.5, 76%, 61.7%)" stroke-width="1.5"></path><path d="M545.05 94.58L608.65 90.76" stroke="hsl(324.5, 76%, 61.7%)" stroke-width="1.5"></path><path d="M545.05 94.58L520.12 162.76" stroke="hsl(324.5, 76%, 61.7%)" stroke-width="1.5"></path><path d="M606.08 332.33L606.08 332.33" stroke="hsl(324.5, 76%, 61.7%)" stroke-width="1.5"></path><path d="M606.08 332.33L618.11 381.85" stroke="hsl(324.5, 76%, 61.7%)" stroke-width="1.5"></path><path d="M606.08 332.33L618.1 264.31" stroke="hsl(324.5, 76%, 61.7%)" stroke-width="1.5"></path><path d="M606.08 332.33L521.18 323.28" stroke="hsl(324.5, 76%, 61.7%)" stroke-width="1.5"></path><path d="M606.08 332.33L538.98 394.25" stroke="hsl(324.5, 76%, 61.7%)" stroke-width="1.5"></path><path d="M606.08 332.33L533.25 244.18" stroke="hsl(324.5, 76%, 61.7%)" stroke-width="1.5"></path><path d="M-45.05 337.83L-45.05 337.83" stroke="hsl(324.5, 76%, 61.7%)" stroke-width="1.5"></path><path d="M-45.05 337.83L-49.16 402.9" stroke="hsl(324.5, 76%, 61.7%)" stroke-width="1.5"></path><path d="M-45.05 337.83L39.91 309.44" stroke="hsl(324.5, 76%, 61.7%)" stroke-width="1.5"></path><path d="M-49.16 402.9L-49.16 402.9" stroke="hsl(324.5, 76%, 61.7%)" stroke-width="1.5"></path><path d="M-49.16 402.9L30.25 395.04" stroke="hsl(324.5, 76%, 61.7%)" stroke-width="1.5"></path><path d="M-49.16 402.9L39.91 309.44" stroke="hsl(324.5, 76%, 61.7%)" stroke-width="1.5"></path><path d="M-49.16 402.9L180.82 406.92" stroke="hsl(324.5, 76%, 61.7%)" stroke-width="1.5"></path><path d="M39.91 309.44L39.91 309.44" stroke="hsl(324.5, 76%, 61.7%)" stroke-width="1.5"></path><path d="M39.91 309.44L30.25 395.04" stroke="hsl(324.5, 76%, 61.7%)" stroke-width="1.5"></path><path d="M39.91 309.44L194.16 336.57" stroke="hsl(324.5, 76%, 61.7%)" stroke-width="1.5"></path><path d="M39.91 309.44L180.82 406.92" stroke="hsl(324.5, 76%, 61.7%)" stroke-width="1.5"></path><path d="M30.25 395.04L30.25 395.04" stroke="hsl(324.5, 76%, 61.7%)" stroke-width="1.5"></path><path d="M30.25 395.04L-45.05 337.83" stroke="hsl(324.5, 76%, 61.7%)" stroke-width="1.5"></path><path d="M194.16 336.57L194.16 336.57" stroke="hsl(324.5, 76%, 61.7%)" stroke-width="1.5"></path><path d="M194.16 336.57L238.49 323.28" stroke="hsl(324.5, 76%, 61.7%)" stroke-width="1.5"></path><path d="M194.16 336.57L180.82 406.92" stroke="hsl(324.5, 76%, 61.7%)" stroke-width="1.5"></path><path d="M180.82 406.92L180.82 406.92" stroke="hsl(324.5, 76%, 61.7%)" stroke-width="1.5"></path><path d="M180.82 406.92L241.97 398.97" stroke="hsl(324.5, 76%, 61.7%)" stroke-width="1.5"></path><path d="M238.49 323.28L238.49 323.28" stroke="hsl(324.5, 76%, 61.7%)" stroke-width="1.5"></path><path d="M238.49 323.28L241.97 398.97" stroke="hsl(324.5, 76%, 61.7%)" stroke-width="1.5"></path><path d="M238.49 323.28L180.82 406.92" stroke="hsl(324.5, 76%, 61.7%)" stroke-width="1.5"></path><path d="M238.49 323.28L305.67 408.01" stroke="hsl(324.5, 76%, 61.7%)" stroke-width="1.5"></path><path d="M241.97 398.97L241.97 398.97" stroke="hsl(324.5, 76%, 61.7%)" stroke-width="1.5"></path><path d="M241.97 398.97L305.67 408.01" stroke="hsl(324.5, 76%, 61.7%)" stroke-width="1.5"></path><path d="M332.03 238.92L332.03 238.92" stroke="hsl(324.5, 76%, 61.7%)" stroke-width="1.5"></path><path d="M332.03 238.92L396.9 256.11" stroke="hsl(324.5, 76%, 61.7%)" stroke-width="1.5"></path><path d="M305.67 408.01L305.67 408.01" stroke="hsl(324.5, 76%, 61.7%)" stroke-width="1.5"></path><path d="M305.67 408.01L403.89 385.92" stroke="hsl(324.5, 76%, 61.7%)" stroke-width="1.5"></path><path d="M305.67 408.01L180.82 406.92" stroke="hsl(324.5, 76%, 61.7%)" stroke-width="1.5"></path><path d="M305.67 408.01L194.16 336.57" stroke="hsl(324.5, 76%, 61.7%)" stroke-width="1.5"></path><path d="M305.67 408.01L391.07 303.32" stroke="hsl(324.5, 76%, 61.7%)" stroke-width="1.5"></path><path d="M396.9 256.11L396.9 256.11" stroke="hsl(324.5, 76%, 61.7%)" stroke-width="1.5"></path><path d="M396.9 256.11L391.07 303.32" stroke="hsl(324.5, 76%, 61.7%)" stroke-width="1.5"></path><path d="M396.9 256.11L456.22 265.13" stroke="hsl(324.5, 76%, 61.7%)" stroke-width="1.5"></path><path d="M396.9 256.11L452.72 309.64" stroke="hsl(324.5, 76%, 61.7%)" stroke-width="1.5"></path><path d="M391.07 303.32L391.07 303.32" stroke="hsl(324.5, 76%, 61.7%)" stroke-width="1.5"></path><path d="M391.07 303.32L452.72 309.64" stroke="hsl(324.5, 76%, 61.7%)" stroke-width="1.5"></path><path d="M403.89 385.92L403.89 385.92" stroke="hsl(324.5, 76%, 61.7%)" stroke-width="1.5"></path><path d="M403.89 385.92L462.03 394.58" stroke="hsl(324.5, 76%, 61.7%)" stroke-width="1.5"></path><path d="M403.89 385.92L391.07 303.32" stroke="hsl(324.5, 76%, 61.7%)" stroke-width="1.5"></path><path d="M403.89 385.92L452.72 309.64" stroke="hsl(324.5, 76%, 61.7%)" stroke-width="1.5"></path><path d="M462.78 -18.61L462.78 -18.61" stroke="hsl(324.5, 76%, 61.7%)" stroke-width="1.5"></path><path d="M462.78 -18.61L520.18 -20.47" stroke="hsl(324.5, 76%, 61.7%)" stroke-width="1.5"></path><path d="M462.78 -18.61L528.37 49.38" stroke="hsl(324.5, 76%, 61.7%)" stroke-width="1.5"></path><path d="M462.78 -18.61L589.83 25.72" stroke="hsl(324.5, 76%, 61.7%)" stroke-width="1.5"></path><path d="M462.78 -18.61L545.05 94.58" stroke="hsl(324.5, 76%, 61.7%)" stroke-width="1.5"></path><path d="M462.78 -18.61L606.72 -46.42" stroke="hsl(324.5, 76%, 61.7%)" stroke-width="1.5"></path><path d="M463.94 169.64L463.94 169.64" stroke="hsl(324.5, 76%, 61.7%)" stroke-width="1.5"></path><path d="M463.94 169.64L520.12 162.76" stroke="hsl(324.5, 76%, 61.7%)" stroke-width="1.5"></path><path d="M463.94 169.64L456.22 265.13" stroke="hsl(324.5, 76%, 61.7%)" stroke-width="1.5"></path><path d="M463.94 169.64L533.25 244.18" stroke="hsl(324.5, 76%, 61.7%)" stroke-width="1.5"></path><path d="M463.94 169.64L396.9 256.11" stroke="hsl(324.5, 76%, 61.7%)" stroke-width="1.5"></path><path d="M456.22 265.13L456.22 265.13" stroke="hsl(324.5, 76%, 61.7%)" stroke-width="1.5"></path><path d="M456.22 265.13L452.72 309.64" stroke="hsl(324.5, 76%, 61.7%)" stroke-width="1.5"></path><path d="M456.22 265.13L391.07 303.32" stroke="hsl(324.5, 76%, 61.7%)" stroke-width="1.5"></path><path d="M456.22 265.13L533.25 244.18" stroke="hsl(324.5, 76%, 61.7%)" stroke-width="1.5"></path><path d="M452.72 309.64L452.72 309.64" stroke="hsl(324.5, 76%, 61.7%)" stroke-width="1.5"></path><path d="M452.72 309.64L521.18 323.28" stroke="hsl(324.5, 76%, 61.7%)" stroke-width="1.5"></path><path d="M452.72 309.64L462.03 394.58" stroke="hsl(324.5, 76%, 61.7%)" stroke-width="1.5"></path><path d="M462.03 394.58L462.03 394.58" stroke="hsl(324.5, 76%, 61.7%)" stroke-width="1.5"></path><path d="M462.03 394.58L538.98 394.25" stroke="hsl(324.5, 76%, 61.7%)" stroke-width="1.5"></path><path d="M520.18 -20.47L520.18 -20.47" stroke="hsl(324.5, 76%, 61.7%)" stroke-width="1.5"></path><path d="M520.18 -20.47L528.37 49.38" stroke="hsl(324.5, 76%, 61.7%)" stroke-width="1.5"></path><path d="M520.18 -20.47L589.83 25.72" stroke="hsl(324.5, 76%, 61.7%)" stroke-width="1.5"></path><path d="M520.18 -20.47L606.72 -46.42" stroke="hsl(324.5, 76%, 61.7%)" stroke-width="1.5"></path><path d="M520.12 162.76L520.12 162.76" stroke="hsl(324.5, 76%, 61.7%)" stroke-width="1.5"></path><path d="M520.12 162.76L533.25 244.18" stroke="hsl(324.5, 76%, 61.7%)" stroke-width="1.5"></path><path d="M520.12 162.76L609.18 160.34" stroke="hsl(324.5, 76%, 61.7%)" stroke-width="1.5"></path><path d="M520.12 162.76L528.37 49.38" stroke="hsl(324.5, 76%, 61.7%)" stroke-width="1.5"></path><path d="M533.25 244.18L533.25 244.18" stroke="hsl(324.5, 76%, 61.7%)" stroke-width="1.5"></path><path d="M533.25 244.18L521.18 323.28" stroke="hsl(324.5, 76%, 61.7%)" stroke-width="1.5"></path><path d="M521.18 323.28L521.18 323.28" stroke="hsl(324.5, 76%, 61.7%)" stroke-width="1.5"></path><path d="M521.18 323.28L538.98 394.25" stroke="hsl(324.5, 76%, 61.7%)" stroke-width="1.5"></path><path d="M538.98 394.25L538.98 394.25" stroke="hsl(324.5, 76%, 61.7%)" stroke-width="1.5"></path><path d="M606.72 -46.42L606.72 -46.42" stroke="hsl(324.5, 76%, 61.7%)" stroke-width="1.5"></path><path d="M606.72 -46.42L589.83 25.72" stroke="hsl(324.5, 76%, 61.7%)" stroke-width="1.5"></path><path d="M589.83 25.72L589.83 25.72" stroke="hsl(324.5, 76%, 61.7%)" stroke-width="1.5"></path><path d="M589.83 25.72L528.37 49.38" stroke="hsl(324.5, 76%, 61.7%)" stroke-width="1.5"></path><path d="M589.83 25.72L608.65 90.76" stroke="hsl(324.5, 76%, 61.7%)" stroke-width="1.5"></path><path d="M589.83 25.72L545.05 94.58" stroke="hsl(324.5, 76%, 61.7%)" stroke-width="1.5"></path><path d="M608.65 90.76L608.65 90.76" stroke="hsl(324.5, 76%, 61.7%)" stroke-width="1.5"></path><path d="M608.65 90.76L609.18 160.34" stroke="hsl(324.5, 76%, 61.7%)" stroke-width="1.5"></path><path d="M608.65 90.76L528.37 49.38" stroke="hsl(324.5, 76%, 61.7%)" stroke-width="1.5"></path><path d="M608.65 90.76L520.12 162.76" stroke="hsl(324.5, 76%, 61.7%)" stroke-width="1.5"></path><path d="M609.18 160.34L609.18 160.34" stroke="hsl(324.5, 76%, 61.7%)" stroke-width="1.5"></path><path d="M609.18 160.34L545.05 94.58" stroke="hsl(324.5, 76%, 61.7%)" stroke-width="1.5"></path><path d="M609.18 160.34L618.1 264.31" stroke="hsl(324.5, 76%, 61.7%)" stroke-width="1.5"></path><path d="M609.18 160.34L533.25 244.18" stroke="hsl(324.5, 76%, 61.7%)" stroke-width="1.5"></path><path d="M609.18 160.34L589.83 25.72" stroke="hsl(324.5, 76%, 61.7%)" stroke-width="1.5"></path><path d="M618.1 264.31L618.1 264.31" stroke="hsl(324.5, 76%, 61.7%)" stroke-width="1.5"></path><path d="M618.1 264.31L533.25 244.18" stroke="hsl(324.5, 76%, 61.7%)" stroke-width="1.5"></path><path d="M618.11 381.85L618.11 381.85" stroke="hsl(324.5, 76%, 61.7%)" stroke-width="1.5"></path><path d="M618.11 381.85L538.98 394.25" stroke="hsl(324.5, 76%, 61.7%)" stroke-width="1.5"></path><path d="M618.11 381.85L521.18 323.28" stroke="hsl(324.5, 76%, 61.7%)" stroke-width="1.5"></path><path d="M618.11 381.85L618.1 264.31" stroke="hsl(324.5, 76%, 61.7%)" stroke-width="1.5"></path><path d="M618.11 381.85L462.03 394.58" stroke="hsl(324.5, 76%, 61.7%)" stroke-width="1.5"></path><circle r="25" cx="93.23" cy="380.18" fill="url(#SvgjsRadialGradient1301)"></circle><circle r="25" cx="259.05" cy="266.26" fill="url(#SvgjsRadialGradient1301)"></circle><circle r="25" cx="528.37" cy="49.38" fill="url(#SvgjsRadialGradient1301)"></circle><circle r="25" cx="545.05" cy="94.58" fill="url(#SvgjsRadialGradient1301)"></circle><circle r="25" cx="606.08" cy="332.33" fill="url(#SvgjsRadialGradient1301)"></circle><circle r="5" cx="-45.05" cy="337.83" fill="#ea8ec5"></circle><circle r="5" cx="-49.16" cy="402.9" fill="#ea8ec5"></circle><circle r="5" cx="39.91" cy="309.44" fill="#ea8ec5"></circle><circle r="5" cx="30.25" cy="395.04" fill="#ea8ec5"></circle><circle r="5" cx="194.16" cy="336.57" fill="#ea8ec5"></circle><circle r="5" cx="180.82" cy="406.92" fill="#ea8ec5"></circle><circle r="5" cx="238.49" cy="323.28" fill="#ea8ec5"></circle><circle r="5" cx="241.97" cy="398.97" fill="#ea8ec5"></circle><circle r="5" cx="332.03" cy="238.92" fill="#ea8ec5"></circle><circle r="5" cx="305.67" cy="408.01" fill="#ea8ec5"></circle><circle r="5" cx="396.9" cy="256.11" fill="#ea8ec5"></circle><circle r="5" cx="391.07" cy="303.32" fill="#ea8ec5"></circle><circle r="5" cx="403.89" cy="385.92" fill="#ea8ec5"></circle><circle r="5" cx="462.78" cy="-18.61" fill="#ea8ec5"></circle><circle r="5" cx="463.94" cy="169.64" fill="#ea8ec5"></circle><circle r="5" cx="456.22" cy="265.13" fill="#ea8ec5"></circle><circle r="5" cx="452.72" cy="309.64" fill="#ea8ec5"></circle><circle r="5" cx="462.03" cy="394.58" fill="#ea8ec5"></circle><circle r="5" cx="520.18" cy="-20.47" fill="#ea8ec5"></circle><circle r="5" cx="520.12" cy="162.76" fill="#ea8ec5"></circle><circle r="5" cx="533.25" cy="244.18" fill="#ea8ec5"></circle><circle r="5" cx="521.18" cy="323.28" fill="#ea8ec5"></circle><circle r="5" cx="538.98" cy="394.25" fill="#ea8ec5"></circle><circle r="5" cx="606.72" cy="-46.42" fill="#ea8ec5"></circle><circle r="5" cx="589.83" cy="25.72" fill="#ea8ec5"></circle><circle r="5" cx="608.65" cy="90.76" fill="#ea8ec5"></circle><circle r="5" cx="609.18" cy="160.34" fill="#ea8ec5"></circle><circle r="5" cx="618.1" cy="264.31" fill="#ea8ec5"></circle><circle r="5" cx="618.11" cy="381.85" fill="#ea8ec5"></circle></g><defs><mask id="SvgjsMask1300"><rect width="570" height="350" fill="#ffffff"></rect></mask><radialGradient id="SvgjsRadialGradient1301"><stop stop-color="#ffffff" offset="0.1"></stop><stop stop-color="rgba(213, 29, 138, 1)" offset="0.2"></stop><stop stop-color="rgba(213, 29, 138, 0)" offset="1"></stop></radialGradient></defs></svg>