<svg id="visual" viewBox="0 0 1800 790" width="1800" height="790" xmlns="http://www.w3.org/2000/svg" xmlns:xlink="http://www.w3.org/1999/xlink" version="1.1"><path d="M0 88L50 90.7C100 93.3 200 98.7 300 101.3C400 104 500 104 600 94.7C700 85.3 800 66.7 900 65.3C1000 64 1100 80 1200 81.3C1300 82.7 1400 69.3 1500 68C1600 66.7 1700 77.3 1750 82.7L1800 88L1800 0L1750 0C1700 0 1600 0 1500 0C1400 0 1300 0 1200 0C1100 0 1000 0 900 0C800 0 700 0 600 0C500 0 400 0 300 0C200 0 100 0 50 0L0 0Z" fill="#58087c"></path><path d="M0 357L50 355.7C100 354.3 200 351.7 300 337.2C400 322.7 500 296.3 600 283.2C700 270 800 270 900 259.3C1000 248.7 1100 227.3 1200 232.5C1300 237.7 1400 269.3 1500 281.3C1600 293.3 1700 285.7 1750 281.8L1800 278L1800 86L1750 80.7C1700 75.3 1600 64.7 1500 66C1400 67.3 1300 80.7 1200 79.3C1100 78 1000 62 900 63.3C800 64.7 700 83.3 600 92.7C500 102 400 102 300 99.3C200 96.7 100 91.3 50 88.7L0 86Z" fill="#6a047d"></path><path d="M0 522L50 514.2C100 506.3 200 490.7 300 492C400 493.3 500 511.7 600 507.7C700 503.7 800 477.3 900 464.2C1000 451 1100 451 1200 451C1300 451 1400 451 1500 445.8C1600 440.7 1700 430.3 1750 425.2L1800 420L1800 276L1750 279.8C1700 283.7 1600 291.3 1500 279.3C1400 267.3 1300 235.7 1200 230.5C1100 225.3 1000 246.7 900 257.3C800 268 700 268 600 281.2C500 294.3 400 320.7 300 335.2C200 349.7 100 352.3 50 353.7L0 355Z" fill="#7b017e"></path><path d="M0 649L50 637.2C100 625.3 200 601.7 300 596.3C400 591 500 604 600 607.8C700 611.7 800 606.3 900 607.7C1000 609 1100 617 1200 618.3C1300 619.7 1400 614.3 1500 606.5C1600 598.7 1700 588.3 1750 583.2L1800 578L1800 418L1750 423.2C1700 428.3 1600 438.7 1500 443.8C1400 449 1300 449 1200 449C1100 449 1000 449 900 462.2C800 475.3 700 501.7 600 505.7C500 509.7 400 491.3 300 490C200 488.7 100 504.3 50 512.2L0 520Z" fill="#8b007e"></path><path d="M0 712L50 710.7C100 709.3 200 706.7 300 704C400 701.3 500 698.7 600 696C700 693.3 800 690.7 900 697.3C1000 704 1100 720 1200 726.7C1300 733.3 1400 730.7 1500 721.3C1600 712 1700 696 1750 688L1800 680L1800 576L1750 581.2C1700 586.3 1600 596.7 1500 604.5C1400 612.3 1300 617.7 1200 616.3C1100 615 1000 607 900 605.7C800 604.3 700 609.7 600 605.8C500 602 400 589 300 594.3C200 599.7 100 623.3 50 635.2L0 647Z" fill="#9a007e"></path><path d="M0 791L50 791C100 791 200 791 300 791C400 791 500 791 600 791C700 791 800 791 900 791C1000 791 1100 791 1200 791C1300 791 1400 791 1500 791C1600 791 1700 791 1750 791L1800 791L1800 678L1750 686C1700 694 1600 710 1500 719.3C1400 728.7 1300 731.3 1200 724.7C1100 718 1000 702 900 695.3C800 688.7 700 691.3 600 694C500 696.7 400 699.3 300 702C200 704.7 100 707.3 50 708.7L0 710Z" fill="#a9007d"></path></svg>