<svg xmlns="http://www.w3.org/2000/svg" version="1.1" xmlns:xlink="http://www.w3.org/1999/xlink" xmlns:svgjs="http://svgjs.com/svgjs" width="1440" height="560" preserveAspectRatio="none" viewBox="0 0 1440 560"><g mask="url(&quot;#SvgjsMask1104&quot;)" fill="none"><rect width="1440" height="560" x="0" y="0" fill="rgba(36, 38, 53, 1)"></rect><path d="M-96.63 407.29L-96.63 407.29" stroke="rgba(36, 38, 53, 1)" stroke-width="1.5"></path><path d="M-96.63 407.29L-111.5 537.77" stroke="rgba(36, 38, 53, 1)" stroke-width="1.5"></path><path d="M-96.63 407.29L87.67 361.82" stroke="rgba(36, 38, 53, 1)" stroke-width="1.5"></path><path d="M-96.63 407.29L84.69 553.79" stroke="rgba(36, 38, 53, 1)" stroke-width="1.5"></path><path d="M-96.63 407.29L-53.03 665.13" stroke="rgba(36, 38, 53, 1)" stroke-width="1.5"></path><path d="M-111.5 537.77L-111.5 537.77" stroke="rgba(36, 38, 53, 1)" stroke-width="1.5"></path><path d="M-111.5 537.77L-53.03 665.13" stroke="rgba(36, 38, 53, 1)" stroke-width="1.5"></path><path d="M-111.5 537.77L84.69 553.79" stroke="rgba(36, 38, 53, 1)" stroke-width="1.5"></path><path d="M-111.5 537.77L107.67 675.35" stroke="rgba(36, 38, 53, 1)" stroke-width="1.5"></path><path d="M-111.5 537.77L87.67 361.82" stroke="rgba(36, 38, 53, 1)" stroke-width="1.5"></path><path d="M-111.5 537.77L188.4 517.76" stroke="rgba(36, 38, 53, 1)" stroke-width="1.5"></path><path d="M-53.03 665.13L-53.03 665.13" stroke="rgba(36, 38, 53, 1)" stroke-width="1.5"></path><path d="M-53.03 665.13L107.67 675.35" stroke="rgba(36, 38, 53, 1)" stroke-width="1.5"></path><path d="M87.67 361.82L87.67 361.82" stroke="rgba(36, 38, 53, 1)" stroke-width="1.5"></path><path d="M87.67 361.82L235.05 338" stroke="rgba(36, 38, 53, 1)" stroke-width="1.5"></path><path d="M87.67 361.82L188.4 517.76" stroke="rgba(36, 38, 53, 1)" stroke-width="1.5"></path><path d="M87.67 361.82L84.69 553.79" stroke="rgba(36, 38, 53, 1)" stroke-width="1.5"></path><path d="M84.69 553.79L84.69 553.79" stroke="rgba(36, 38, 53, 1)" stroke-width="1.5"></path><path d="M84.69 553.79L188.4 517.76" stroke="rgba(36, 38, 53, 1)" stroke-width="1.5"></path><path d="M84.69 553.79L107.67 675.35" stroke="rgba(36, 38, 53, 1)" stroke-width="1.5"></path><path d="M84.69 553.79L-53.03 665.13" stroke="rgba(36, 38, 53, 1)" stroke-width="1.5"></path><path d="M84.69 553.79L231.87 682.93" stroke="rgba(36, 38, 53, 1)" stroke-width="1.5"></path><path d="M107.67 675.35L107.67 675.35" stroke="rgba(36, 38, 53, 1)" stroke-width="1.5"></path><path d="M107.67 675.35L231.87 682.93" stroke="rgba(36, 38, 53, 1)" stroke-width="1.5"></path><path d="M107.67 675.35L188.4 517.76" stroke="rgba(36, 38, 53, 1)" stroke-width="1.5"></path><path d="M235.05 338L235.05 338" stroke="rgba(36, 38, 53, 1)" stroke-width="1.5"></path><path d="M235.05 338L353.87 367.4" stroke="rgba(36, 38, 53, 1)" stroke-width="1.5"></path><path d="M235.05 338L188.4 517.76" stroke="rgba(36, 38, 53, 1)" stroke-width="1.5"></path><path d="M235.05 338L84.69 553.79" stroke="rgba(36, 38, 53, 1)" stroke-width="1.5"></path><path d="M235.05 338L521.65 354.9" stroke="rgba(36, 38, 53, 1)" stroke-width="1.5"></path><path d="M188.4 517.76L188.4 517.76" stroke="rgba(36, 38, 53, 1)" stroke-width="1.5"></path><path d="M188.4 517.76L231.87 682.93" stroke="rgba(36, 38, 53, 1)" stroke-width="1.5"></path><path d="M188.4 517.76L353.87 367.4" stroke="rgba(36, 38, 53, 1)" stroke-width="1.5"></path><path d="M231.87 682.93L231.87 682.93" stroke="rgba(36, 38, 53, 1)" stroke-width="1.5"></path><path d="M231.87 682.93L357.86 702.66" stroke="rgba(36, 38, 53, 1)" stroke-width="1.5"></path><path d="M353.87 367.4L353.87 367.4" stroke="rgba(36, 38, 53, 1)" stroke-width="1.5"></path><path d="M353.87 367.4L521.65 354.9" stroke="rgba(36, 38, 53, 1)" stroke-width="1.5"></path><path d="M357.86 702.66L357.86 702.66" stroke="rgba(36, 38, 53, 1)" stroke-width="1.5"></path><path d="M357.86 702.66L552.58 650.6" stroke="rgba(36, 38, 53, 1)" stroke-width="1.5"></path><path d="M357.86 702.66L188.4 517.76" stroke="rgba(36, 38, 53, 1)" stroke-width="1.5"></path><path d="M521.65 354.9L521.65 354.9" stroke="rgba(36, 38, 53, 1)" stroke-width="1.5"></path><path d="M521.65 354.9L653 355.9" stroke="rgba(36, 38, 53, 1)" stroke-width="1.5"></path><path d="M521.65 354.9L523.39 492.34" stroke="rgba(36, 38, 53, 1)" stroke-width="1.5"></path><path d="M523.39 492.34L523.39 492.34" stroke="rgba(36, 38, 53, 1)" stroke-width="1.5"></path><path d="M523.39 492.34L552.58 650.6" stroke="rgba(36, 38, 53, 1)" stroke-width="1.5"></path><path d="M523.39 492.34L694.34 487.71" stroke="rgba(36, 38, 53, 1)" stroke-width="1.5"></path><path d="M523.39 492.34L653 355.9" stroke="rgba(36, 38, 53, 1)" stroke-width="1.5"></path><path d="M552.58 650.6L552.58 650.6" stroke="rgba(36, 38, 53, 1)" stroke-width="1.5"></path><path d="M552.58 650.6L700.07 677.07" stroke="rgba(36, 38, 53, 1)" stroke-width="1.5"></path><path d="M552.58 650.6L694.34 487.71" stroke="rgba(36, 38, 53, 1)" stroke-width="1.5"></path><path d="M699.38 223.5L699.38 223.5" stroke="rgba(36, 38, 53, 1)" stroke-width="1.5"></path><path d="M699.38 223.5L794.02 206.67" stroke="rgba(36, 38, 53, 1)" stroke-width="1.5"></path><path d="M699.38 223.5L653 355.9" stroke="rgba(36, 38, 53, 1)" stroke-width="1.5"></path><path d="M699.38 223.5L791.54 395.55" stroke="rgba(36, 38, 53, 1)" stroke-width="1.5"></path><path d="M699.38 223.5L849.31 68.7" stroke="rgba(36, 38, 53, 1)" stroke-width="1.5"></path><path d="M699.38 223.5L521.65 354.9" stroke="rgba(36, 38, 53, 1)" stroke-width="1.5"></path><path d="M653 355.9L653 355.9" stroke="rgba(36, 38, 53, 1)" stroke-width="1.5"></path><path d="M653 355.9L694.34 487.71" stroke="rgba(36, 38, 53, 1)" stroke-width="1.5"></path><path d="M653 355.9L791.54 395.55" stroke="rgba(36, 38, 53, 1)" stroke-width="1.5"></path><path d="M653 355.9L793.69 499.5" stroke="rgba(36, 38, 53, 1)" stroke-width="1.5"></path><path d="M694.34 487.71L694.34 487.71" stroke="rgba(36, 38, 53, 1)" stroke-width="1.5"></path><path d="M694.34 487.71L793.69 499.5" stroke="rgba(36, 38, 53, 1)" stroke-width="1.5"></path><path d="M694.34 487.71L791.54 395.55" stroke="rgba(36, 38, 53, 1)" stroke-width="1.5"></path><path d="M700.07 677.07L700.07 677.07" stroke="rgba(36, 38, 53, 1)" stroke-width="1.5"></path><path d="M700.07 677.07L858.83 655.06" stroke="rgba(36, 38, 53, 1)" stroke-width="1.5"></path><path d="M700.07 677.07L694.34 487.71" stroke="rgba(36, 38, 53, 1)" stroke-width="1.5"></path><path d="M700.07 677.07L793.69 499.5" stroke="rgba(36, 38, 53, 1)" stroke-width="1.5"></path><path d="M849.31 68.7L849.31 68.7" stroke="rgba(36, 38, 53, 1)" stroke-width="1.5"></path><path d="M849.31 68.7L988.65 89.23" stroke="rgba(36, 38, 53, 1)" stroke-width="1.5"></path><path d="M849.31 68.7L794.02 206.67" stroke="rgba(36, 38, 53, 1)" stroke-width="1.5"></path><path d="M849.31 68.7L947.41 -63.6" stroke="rgba(36, 38, 53, 1)" stroke-width="1.5"></path><path d="M849.31 68.7L1005.41 234.03" stroke="rgba(36, 38, 53, 1)" stroke-width="1.5"></path><path d="M794.02 206.67L794.02 206.67" stroke="rgba(36, 38, 53, 1)" stroke-width="1.5"></path><path d="M791.54 395.55L791.54 395.55" stroke="rgba(36, 38, 53, 1)" stroke-width="1.5"></path><path d="M791.54 395.55L793.69 499.5" stroke="rgba(36, 38, 53, 1)" stroke-width="1.5"></path><path d="M791.54 395.55L794.02 206.67" stroke="rgba(36, 38, 53, 1)" stroke-width="1.5"></path><path d="M791.54 395.55L999.34 380.08" stroke="rgba(36, 38, 53, 1)" stroke-width="1.5"></path><path d="M793.69 499.5L793.69 499.5" stroke="rgba(36, 38, 53, 1)" stroke-width="1.5"></path><path d="M858.83 655.06L858.83 655.06" stroke="rgba(36, 38, 53, 1)" stroke-width="1.5"></path><path d="M858.83 655.06L949.21 647.12" stroke="rgba(36, 38, 53, 1)" stroke-width="1.5"></path><path d="M858.83 655.06L983.09 541.29" stroke="rgba(36, 38, 53, 1)" stroke-width="1.5"></path><path d="M858.83 655.06L793.69 499.5" stroke="rgba(36, 38, 53, 1)" stroke-width="1.5"></path><path d="M858.83 655.06L694.34 487.71" stroke="rgba(36, 38, 53, 1)" stroke-width="1.5"></path><path d="M947.41 -63.6L947.41 -63.6" stroke="rgba(36, 38, 53, 1)" stroke-width="1.5"></path><path d="M947.41 -63.6L988.65 89.23" stroke="rgba(36, 38, 53, 1)" stroke-width="1.5"></path><path d="M947.41 -63.6L1154.4 68.49" stroke="rgba(36, 38, 53, 1)" stroke-width="1.5"></path><path d="M947.41 -63.6L1005.41 234.03" stroke="rgba(36, 38, 53, 1)" stroke-width="1.5"></path><path d="M947.41 -63.6L1113.53 190.45" stroke="rgba(36, 38, 53, 1)" stroke-width="1.5"></path><path d="M988.65 89.23L988.65 89.23" stroke="rgba(36, 38, 53, 1)" stroke-width="1.5"></path><path d="M988.65 89.23L1005.41 234.03" stroke="rgba(36, 38, 53, 1)" stroke-width="1.5"></path><path d="M988.65 89.23L1113.53 190.45" stroke="rgba(36, 38, 53, 1)" stroke-width="1.5"></path><path d="M988.65 89.23L1154.4 68.49" stroke="rgba(36, 38, 53, 1)" stroke-width="1.5"></path><path d="M988.65 89.23L794.02 206.67" stroke="rgba(36, 38, 53, 1)" stroke-width="1.5"></path><path d="M1005.41 234.03L1005.41 234.03" stroke="rgba(36, 38, 53, 1)" stroke-width="1.5"></path><path d="M1005.41 234.03L1113.53 190.45" stroke="rgba(36, 38, 53, 1)" stroke-width="1.5"></path><path d="M1005.41 234.03L999.34 380.08" stroke="rgba(36, 38, 53, 1)" stroke-width="1.5"></path><path d="M1005.41 234.03L1107.6 375.44" stroke="rgba(36, 38, 53, 1)" stroke-width="1.5"></path><path d="M1005.41 234.03L794.02 206.67" stroke="rgba(36, 38, 53, 1)" stroke-width="1.5"></path><path d="M999.34 380.08L999.34 380.08" stroke="rgba(36, 38, 53, 1)" stroke-width="1.5"></path><path d="M999.34 380.08L1107.6 375.44" stroke="rgba(36, 38, 53, 1)" stroke-width="1.5"></path><path d="M999.34 380.08L983.09 541.29" stroke="rgba(36, 38, 53, 1)" stroke-width="1.5"></path><path d="M999.34 380.08L1143.2 529.59" stroke="rgba(36, 38, 53, 1)" stroke-width="1.5"></path><path d="M999.34 380.08L1113.53 190.45" stroke="rgba(36, 38, 53, 1)" stroke-width="1.5"></path><path d="M983.09 541.29L983.09 541.29" stroke="rgba(36, 38, 53, 1)" stroke-width="1.5"></path><path d="M983.09 541.29L949.21 647.12" stroke="rgba(36, 38, 53, 1)" stroke-width="1.5"></path><path d="M983.09 541.29L1143.2 529.59" stroke="rgba(36, 38, 53, 1)" stroke-width="1.5"></path><path d="M983.09 541.29L793.69 499.5" stroke="rgba(36, 38, 53, 1)" stroke-width="1.5"></path><path d="M983.09 541.29L1107.6 375.44" stroke="rgba(36, 38, 53, 1)" stroke-width="1.5"></path><path d="M949.21 647.12L949.21 647.12" stroke="rgba(36, 38, 53, 1)" stroke-width="1.5"></path><path d="M949.21 647.12L1147.48 680.85" stroke="rgba(36, 38, 53, 1)" stroke-width="1.5"></path><path d="M949.21 647.12L793.69 499.5" stroke="rgba(36, 38, 53, 1)" stroke-width="1.5"></path><path d="M1154.4 68.49L1154.4 68.49" stroke="rgba(36, 38, 53, 1)" stroke-width="1.5"></path><path d="M1154.4 68.49L1272.22 46.55" stroke="rgba(36, 38, 53, 1)" stroke-width="1.5"></path><path d="M1113.53 190.45L1113.53 190.45" stroke="rgba(36, 38, 53, 1)" stroke-width="1.5"></path><path d="M1113.53 190.45L1154.4 68.49" stroke="rgba(36, 38, 53, 1)" stroke-width="1.5"></path><path d="M1107.6 375.44L1107.6 375.44" stroke="rgba(36, 38, 53, 1)" stroke-width="1.5"></path><path d="M1107.6 375.44L1249.74 364.94" stroke="rgba(36, 38, 53, 1)" stroke-width="1.5"></path><path d="M1107.6 375.44L1143.2 529.59" stroke="rgba(36, 38, 53, 1)" stroke-width="1.5"></path><path d="M1107.6 375.44L1113.53 190.45" stroke="rgba(36, 38, 53, 1)" stroke-width="1.5"></path><path d="M1143.2 529.59L1143.2 529.59" stroke="rgba(36, 38, 53, 1)" stroke-width="1.5"></path><path d="M1143.2 529.59L1280.08 501.83" stroke="rgba(36, 38, 53, 1)" stroke-width="1.5"></path><path d="M1143.2 529.59L1147.48 680.85" stroke="rgba(36, 38, 53, 1)" stroke-width="1.5"></path><path d="M1147.48 680.85L1147.48 680.85" stroke="rgba(36, 38, 53, 1)" stroke-width="1.5"></path><path d="M1147.48 680.85L1244.78 696.87" stroke="rgba(36, 38, 53, 1)" stroke-width="1.5"></path><path d="M1147.48 680.85L983.09 541.29" stroke="rgba(36, 38, 53, 1)" stroke-width="1.5"></path><path d="M1147.48 680.85L1280.08 501.83" stroke="rgba(36, 38, 53, 1)" stroke-width="1.5"></path><path d="M1147.48 680.85L1405.87 660.74" stroke="rgba(36, 38, 53, 1)" stroke-width="1.5"></path><path d="M1301.5 -46.88L1301.5 -46.88" stroke="rgba(36, 38, 53, 1)" stroke-width="1.5"></path><path d="M1301.5 -46.88L1272.22 46.55" stroke="rgba(36, 38, 53, 1)" stroke-width="1.5"></path><path d="M1301.5 -46.88L1447.6 -61.37" stroke="rgba(36, 38, 53, 1)" stroke-width="1.5"></path><path d="M1301.5 -46.88L1154.4 68.49" stroke="rgba(36, 38, 53, 1)" stroke-width="1.5"></path><path d="M1301.5 -46.88L1414.69 107.97" stroke="rgba(36, 38, 53, 1)" stroke-width="1.5"></path><path d="M1301.5 -46.88L1434.85 207.63" stroke="rgba(36, 38, 53, 1)" stroke-width="1.5"></path><path d="M1272.22 46.55L1272.22 46.55" stroke="rgba(36, 38, 53, 1)" stroke-width="1.5"></path><path d="M1272.22 46.55L1414.69 107.97" stroke="rgba(36, 38, 53, 1)" stroke-width="1.5"></path><path d="M1272.22 46.55L1447.6 -61.37" stroke="rgba(36, 38, 53, 1)" stroke-width="1.5"></path><path d="M1272.22 46.55L1259.71 256.38" stroke="rgba(36, 38, 53, 1)" stroke-width="1.5"></path><path d="M1259.71 256.38L1259.71 256.38" stroke="rgba(36, 38, 53, 1)" stroke-width="1.5"></path><path d="M1259.71 256.38L1249.74 364.94" stroke="rgba(36, 38, 53, 1)" stroke-width="1.5"></path><path d="M1259.71 256.38L1113.53 190.45" stroke="rgba(36, 38, 53, 1)" stroke-width="1.5"></path><path d="M1249.74 364.94L1249.74 364.94" stroke="rgba(36, 38, 53, 1)" stroke-width="1.5"></path><path d="M1249.74 364.94L1280.08 501.83" stroke="rgba(36, 38, 53, 1)" stroke-width="1.5"></path><path d="M1249.74 364.94L1438.01 352.59" stroke="rgba(36, 38, 53, 1)" stroke-width="1.5"></path><path d="M1249.74 364.94L1143.2 529.59" stroke="rgba(36, 38, 53, 1)" stroke-width="1.5"></path><path d="M1249.74 364.94L1113.53 190.45" stroke="rgba(36, 38, 53, 1)" stroke-width="1.5"></path><path d="M1280.08 501.83L1280.08 501.83" stroke="rgba(36, 38, 53, 1)" stroke-width="1.5"></path><path d="M1280.08 501.83L1244.78 696.87" stroke="rgba(36, 38, 53, 1)" stroke-width="1.5"></path><path d="M1280.08 501.83L1405.87 660.74" stroke="rgba(36, 38, 53, 1)" stroke-width="1.5"></path><path d="M1280.08 501.83L1107.6 375.44" stroke="rgba(36, 38, 53, 1)" stroke-width="1.5"></path><path d="M1280.08 501.83L1438.01 352.59" stroke="rgba(36, 38, 53, 1)" stroke-width="1.5"></path><path d="M1244.78 696.87L1244.78 696.87" stroke="rgba(36, 38, 53, 1)" stroke-width="1.5"></path><path d="M1244.78 696.87L1405.87 660.74" stroke="rgba(36, 38, 53, 1)" stroke-width="1.5"></path><path d="M1244.78 696.87L1143.2 529.59" stroke="rgba(36, 38, 53, 1)" stroke-width="1.5"></path><path d="M1244.78 696.87L949.21 647.12" stroke="rgba(36, 38, 53, 1)" stroke-width="1.5"></path><path d="M1244.78 696.87L983.09 541.29" stroke="rgba(36, 38, 53, 1)" stroke-width="1.5"></path><path d="M1447.6 -61.37L1447.6 -61.37" stroke="rgba(36, 38, 53, 1)" stroke-width="1.5"></path><path d="M1447.6 -61.37L1595.75 -96.37" stroke="rgba(36, 38, 53, 1)" stroke-width="1.5"></path><path d="M1414.69 107.97L1414.69 107.97" stroke="rgba(36, 38, 53, 1)" stroke-width="1.5"></path><path d="M1414.69 107.97L1434.85 207.63" stroke="rgba(36, 38, 53, 1)" stroke-width="1.5"></path><path d="M1414.69 107.97L1447.6 -61.37" stroke="rgba(36, 38, 53, 1)" stroke-width="1.5"></path><path d="M1434.85 207.63L1434.85 207.63" stroke="rgba(36, 38, 53, 1)" stroke-width="1.5"></path><path d="M1434.85 207.63L1438.01 352.59" stroke="rgba(36, 38, 53, 1)" stroke-width="1.5"></path><path d="M1434.85 207.63L1591.11 197.71" stroke="rgba(36, 38, 53, 1)" stroke-width="1.5"></path><path d="M1438.01 352.59L1438.01 352.59" stroke="rgba(36, 38, 53, 1)" stroke-width="1.5"></path><path d="M1438.01 352.59L1259.71 256.38" stroke="rgba(36, 38, 53, 1)" stroke-width="1.5"></path><path d="M1438.01 352.59L1591.11 197.71" stroke="rgba(36, 38, 53, 1)" stroke-width="1.5"></path><path d="M1405.87 660.74L1405.87 660.74" stroke="rgba(36, 38, 53, 1)" stroke-width="1.5"></path><path d="M1405.87 660.74L1576.22 709.27" stroke="rgba(36, 38, 53, 1)" stroke-width="1.5"></path><path d="M1405.87 660.74L1600.94 545.44" stroke="rgba(36, 38, 53, 1)" stroke-width="1.5"></path><path d="M1405.87 660.74L1143.2 529.59" stroke="rgba(36, 38, 53, 1)" stroke-width="1.5"></path><path d="M1595.75 -96.37L1595.75 -96.37" stroke="rgba(36, 38, 53, 1)" stroke-width="1.5"></path><path d="M1591.11 197.71L1591.11 197.71" stroke="rgba(36, 38, 53, 1)" stroke-width="1.5"></path><path d="M1591.11 197.71L1414.69 107.97" stroke="rgba(36, 38, 53, 1)" stroke-width="1.5"></path><path d="M1591.11 197.71L1595.75 -96.37" stroke="rgba(36, 38, 53, 1)" stroke-width="1.5"></path><path d="M1600.94 545.44L1600.94 545.44" stroke="rgba(36, 38, 53, 1)" stroke-width="1.5"></path><path d="M1600.94 545.44L1576.22 709.27" stroke="rgba(36, 38, 53, 1)" stroke-width="1.5"></path><path d="M1600.94 545.44L1438.01 352.59" stroke="rgba(36, 38, 53, 1)" stroke-width="1.5"></path><path d="M1600.94 545.44L1280.08 501.83" stroke="rgba(36, 38, 53, 1)" stroke-width="1.5"></path><path d="M1576.22 709.27L1576.22 709.27" stroke="rgba(36, 38, 53, 1)" stroke-width="1.5"></path><path d="M1576.22 709.27L1244.78 696.87" stroke="rgba(36, 38, 53, 1)" stroke-width="1.5"></path><path d="M1576.22 709.27L1280.08 501.83" stroke="rgba(36, 38, 53, 1)" stroke-width="1.5"></path><circle r="5" cx="-96.63" cy="407.29" fill="rgba(36, 38, 53, 1)"></circle><circle r="5" cx="-111.5" cy="537.77" fill="rgba(36, 38, 53, 1)"></circle><circle r="5" cx="-53.03" cy="665.13" fill="rgba(36, 38, 53, 1)"></circle><circle r="5" cx="87.67" cy="361.82" fill="rgba(36, 38, 53, 1)"></circle><circle r="5" cx="84.69" cy="553.79" fill="rgba(36, 38, 53, 1)"></circle><circle r="5" cx="107.67" cy="675.35" fill="rgba(36, 38, 53, 1)"></circle><circle r="5" cx="235.05" cy="338" fill="rgba(36, 38, 53, 1)"></circle><circle r="5" cx="188.4" cy="517.76" fill="rgba(36, 38, 53, 1)"></circle><circle r="5" cx="231.87" cy="682.93" fill="rgba(36, 38, 53, 1)"></circle><circle r="5" cx="353.87" cy="367.4" fill="rgba(36, 38, 53, 1)"></circle><circle r="5" cx="357.86" cy="702.66" fill="rgba(36, 38, 53, 1)"></circle><circle r="5" cx="521.65" cy="354.9" fill="rgba(36, 38, 53, 1)"></circle><circle r="5" cx="523.39" cy="492.34" fill="rgba(36, 38, 53, 1)"></circle><circle r="5" cx="552.58" cy="650.6" fill="rgba(36, 38, 53, 1)"></circle><circle r="5" cx="699.38" cy="223.5" fill="rgba(36, 38, 53, 1)"></circle><circle r="5" cx="653" cy="355.9" fill="rgba(36, 38, 53, 1)"></circle><circle r="5" cx="694.34" cy="487.71" fill="rgba(36, 38, 53, 1)"></circle><circle r="5" cx="700.07" cy="677.07" fill="rgba(36, 38, 53, 1)"></circle><circle r="5" cx="849.31" cy="68.7" fill="rgba(36, 38, 53, 1)"></circle><circle r="5" cx="794.02" cy="206.67" fill="rgba(36, 38, 53, 1)"></circle><circle r="5" cx="791.54" cy="395.55" fill="rgba(36, 38, 53, 1)"></circle><circle r="5" cx="793.69" cy="499.5" fill="rgba(36, 38, 53, 1)"></circle><circle r="5" cx="858.83" cy="655.06" fill="rgba(36, 38, 53, 1)"></circle><circle r="5" cx="947.41" cy="-63.6" fill="rgba(36, 38, 53, 1)"></circle><circle r="5" cx="988.65" cy="89.23" fill="rgba(36, 38, 53, 1)"></circle><circle r="5" cx="1005.41" cy="234.03" fill="rgba(36, 38, 53, 1)"></circle><circle r="5" cx="999.34" cy="380.08" fill="rgba(36, 38, 53, 1)"></circle><circle r="5" cx="983.09" cy="541.29" fill="rgba(36, 38, 53, 1)"></circle><circle r="5" cx="949.21" cy="647.12" fill="rgba(36, 38, 53, 1)"></circle><circle r="5" cx="1154.4" cy="68.49" fill="rgba(36, 38, 53, 1)"></circle><circle r="5" cx="1113.53" cy="190.45" fill="rgba(36, 38, 53, 1)"></circle><circle r="5" cx="1107.6" cy="375.44" fill="rgba(36, 38, 53, 1)"></circle><circle r="5" cx="1143.2" cy="529.59" fill="rgba(36, 38, 53, 1)"></circle><circle r="5" cx="1147.48" cy="680.85" fill="rgba(36, 38, 53, 1)"></circle><circle r="5" cx="1301.5" cy="-46.88" fill="rgba(36, 38, 53, 1)"></circle><circle r="5" cx="1272.22" cy="46.55" fill="rgba(36, 38, 53, 1)"></circle><circle r="5" cx="1259.71" cy="256.38" fill="rgba(36, 38, 53, 1)"></circle><circle r="5" cx="1249.74" cy="364.94" fill="rgba(36, 38, 53, 1)"></circle><circle r="5" cx="1280.08" cy="501.83" fill="rgba(36, 38, 53, 1)"></circle><circle r="5" cx="1244.78" cy="696.87" fill="rgba(36, 38, 53, 1)"></circle><circle r="5" cx="1447.6" cy="-61.37" fill="rgba(36, 38, 53, 1)"></circle><circle r="5" cx="1414.69" cy="107.97" fill="rgba(36, 38, 53, 1)"></circle><circle r="5" cx="1434.85" cy="207.63" fill="rgba(36, 38, 53, 1)"></circle><circle r="5" cx="1438.01" cy="352.59" fill="rgba(36, 38, 53, 1)"></circle><circle r="5" cx="1405.87" cy="660.74" fill="rgba(36, 38, 53, 1)"></circle><circle r="5" cx="1595.75" cy="-96.37" fill="rgba(36, 38, 53, 1)"></circle><circle r="5" cx="1591.11" cy="197.71" fill="rgba(36, 38, 53, 1)"></circle><circle r="5" cx="1600.94" cy="545.44" fill="rgba(36, 38, 53, 1)"></circle><circle r="5" cx="1576.22" cy="709.27" fill="rgba(36, 38, 53, 1)"></circle><path d="M848.52 682.33L848.52 682.33" stroke="hsl(324.5, 76%, 61.7%)" stroke-width="1.5"></path><path d="M848.52 682.33L966.02 680.76" stroke="hsl(324.5, 76%, 61.7%)" stroke-width="1.5"></path><path d="M848.52 682.33L846.57 550.37" stroke="hsl(324.5, 76%, 61.7%)" stroke-width="1.5"></path><path d="M1296.81 -58.99L1296.81 -58.99" stroke="hsl(324.5, 76%, 61.7%)" stroke-width="1.5"></path><path d="M1296.81 -58.99L1403.17 -85.81" stroke="hsl(324.5, 76%, 61.7%)" stroke-width="1.5"></path><path d="M1296.81 -58.99L1245.75 73.57" stroke="hsl(324.5, 76%, 61.7%)" stroke-width="1.5"></path><path d="M1296.81 -58.99L1437.82 63.59" stroke="hsl(324.5, 76%, 61.7%)" stroke-width="1.5"></path><path d="M1241 555.27L1241 555.27" stroke="hsl(324.5, 76%, 61.7%)" stroke-width="1.5"></path><path d="M1241 555.27L1270.28 645.42" stroke="hsl(324.5, 76%, 61.7%)" stroke-width="1.5"></path><path d="M1241 555.27L1134.93 523.68" stroke="hsl(324.5, 76%, 61.7%)" stroke-width="1.5"></path><path d="M1241 555.27L1134.83 646.82" stroke="hsl(324.5, 76%, 61.7%)" stroke-width="1.5"></path><path d="M1241 555.27L1269.09 390.42" stroke="hsl(324.5, 76%, 61.7%)" stroke-width="1.5"></path><path d="M1241 555.27L1399.15 489.25" stroke="hsl(324.5, 76%, 61.7%)" stroke-width="1.5"></path><path d="M1241 555.27L1128.63 374.89" stroke="hsl(324.5, 76%, 61.7%)" stroke-width="1.5"></path><path d="M1270.28 645.42L1270.28 645.42" stroke="hsl(324.5, 76%, 61.7%)" stroke-width="1.5"></path><path d="M1270.28 645.42L1134.83 646.82" stroke="hsl(324.5, 76%, 61.7%)" stroke-width="1.5"></path><path d="M1270.28 645.42L1412.28 702.58" stroke="hsl(324.5, 76%, 61.7%)" stroke-width="1.5"></path><path d="M1270.28 645.42L1134.93 523.68" stroke="hsl(324.5, 76%, 61.7%)" stroke-width="1.5"></path><path d="M1270.28 645.42L1399.15 489.25" stroke="hsl(324.5, 76%, 61.7%)" stroke-width="1.5"></path><path d="M1270.28 645.42L1269.09 390.42" stroke="hsl(324.5, 76%, 61.7%)" stroke-width="1.5"></path><path d="M1444.28 260.61L1444.28 260.61" stroke="hsl(324.5, 76%, 61.7%)" stroke-width="1.5"></path><path d="M1444.28 260.61L1451.18 361.37" stroke="hsl(324.5, 76%, 61.7%)" stroke-width="1.5"></path><path d="M1444.28 260.61L1584.66 344.04" stroke="hsl(324.5, 76%, 61.7%)" stroke-width="1.5"></path><path d="M1444.28 260.61L1283.7 228.19" stroke="hsl(324.5, 76%, 61.7%)" stroke-width="1.5"></path><path d="M1412.28 702.58L1412.28 702.58" stroke="hsl(324.5, 76%, 61.7%)" stroke-width="1.5"></path><path d="M1412.28 702.58L1607.28 646.28" stroke="hsl(324.5, 76%, 61.7%)" stroke-width="1.5"></path><path d="M1412.28 702.58L1399.15 489.25" stroke="hsl(324.5, 76%, 61.7%)" stroke-width="1.5"></path><path d="M1412.28 702.58L1241 555.27" stroke="hsl(324.5, 76%, 61.7%)" stroke-width="1.5"></path><path d="M1412.28 702.58L1611.81 534.13" stroke="hsl(324.5, 76%, 61.7%)" stroke-width="1.5"></path><path d="M-87.12 556.62L-87.12 556.62" stroke="hsl(324.5, 76%, 61.7%)" stroke-width="1.5"></path><path d="M-87.12 556.62L-91.89 690.82" stroke="hsl(324.5, 76%, 61.7%)" stroke-width="1.5"></path><path d="M-87.12 556.62L43.57 514.66" stroke="hsl(324.5, 76%, 61.7%)" stroke-width="1.5"></path><path d="M-87.12 556.62L108.08 648.65" stroke="hsl(324.5, 76%, 61.7%)" stroke-width="1.5"></path><path d="M-87.12 556.62L221.04 549.04" stroke="hsl(324.5, 76%, 61.7%)" stroke-width="1.5"></path><path d="M-91.89 690.82L-91.89 690.82" stroke="hsl(324.5, 76%, 61.7%)" stroke-width="1.5"></path><path d="M-91.89 690.82L108.08 648.65" stroke="hsl(324.5, 76%, 61.7%)" stroke-width="1.5"></path><path d="M-91.89 690.82L43.57 514.66" stroke="hsl(324.5, 76%, 61.7%)" stroke-width="1.5"></path><path d="M43.57 514.66L43.57 514.66" stroke="hsl(324.5, 76%, 61.7%)" stroke-width="1.5"></path><path d="M43.57 514.66L108.08 648.65" stroke="hsl(324.5, 76%, 61.7%)" stroke-width="1.5"></path><path d="M108.08 648.65L108.08 648.65" stroke="hsl(324.5, 76%, 61.7%)" stroke-width="1.5"></path><path d="M108.08 648.65L204.14 667.86" stroke="hsl(324.5, 76%, 61.7%)" stroke-width="1.5"></path><path d="M108.08 648.65L221.04 549.04" stroke="hsl(324.5, 76%, 61.7%)" stroke-width="1.5"></path><path d="M108.08 648.65L352.4 687.6" stroke="hsl(324.5, 76%, 61.7%)" stroke-width="1.5"></path><path d="M221.04 549.04L221.04 549.04" stroke="hsl(324.5, 76%, 61.7%)" stroke-width="1.5"></path><path d="M221.04 549.04L204.14 667.86" stroke="hsl(324.5, 76%, 61.7%)" stroke-width="1.5"></path><path d="M221.04 549.04L43.57 514.66" stroke="hsl(324.5, 76%, 61.7%)" stroke-width="1.5"></path><path d="M221.04 549.04L402.58 550.45" stroke="hsl(324.5, 76%, 61.7%)" stroke-width="1.5"></path><path d="M221.04 549.04L352.4 687.6" stroke="hsl(324.5, 76%, 61.7%)" stroke-width="1.5"></path><path d="M204.14 667.86L204.14 667.86" stroke="hsl(324.5, 76%, 61.7%)" stroke-width="1.5"></path><path d="M402.58 550.45L402.58 550.45" stroke="hsl(324.5, 76%, 61.7%)" stroke-width="1.5"></path><path d="M402.58 550.45L514.76 638.06" stroke="hsl(324.5, 76%, 61.7%)" stroke-width="1.5"></path><path d="M402.58 550.45L352.4 687.6" stroke="hsl(324.5, 76%, 61.7%)" stroke-width="1.5"></path><path d="M352.4 687.6L352.4 687.6" stroke="hsl(324.5, 76%, 61.7%)" stroke-width="1.5"></path><path d="M352.4 687.6L204.14 667.86" stroke="hsl(324.5, 76%, 61.7%)" stroke-width="1.5"></path><path d="M352.4 687.6L514.76 638.06" stroke="hsl(324.5, 76%, 61.7%)" stroke-width="1.5"></path><path d="M554.81 536.99L554.81 536.99" stroke="hsl(324.5, 76%, 61.7%)" stroke-width="1.5"></path><path d="M554.81 536.99L514.76 638.06" stroke="hsl(324.5, 76%, 61.7%)" stroke-width="1.5"></path><path d="M554.81 536.99L687.68 527.85" stroke="hsl(324.5, 76%, 61.7%)" stroke-width="1.5"></path><path d="M554.81 536.99L402.58 550.45" stroke="hsl(324.5, 76%, 61.7%)" stroke-width="1.5"></path><path d="M554.81 536.99L694.03 643.92" stroke="hsl(324.5, 76%, 61.7%)" stroke-width="1.5"></path><path d="M514.76 638.06L514.76 638.06" stroke="hsl(324.5, 76%, 61.7%)" stroke-width="1.5"></path><path d="M687.68 527.85L687.68 527.85" stroke="hsl(324.5, 76%, 61.7%)" stroke-width="1.5"></path><path d="M687.68 527.85L694.03 643.92" stroke="hsl(324.5, 76%, 61.7%)" stroke-width="1.5"></path><path d="M687.68 527.85L846.57 550.37" stroke="hsl(324.5, 76%, 61.7%)" stroke-width="1.5"></path><path d="M687.68 527.85L514.76 638.06" stroke="hsl(324.5, 76%, 61.7%)" stroke-width="1.5"></path><path d="M687.68 527.85L848.52 682.33" stroke="hsl(324.5, 76%, 61.7%)" stroke-width="1.5"></path><path d="M687.68 527.85L826.81 347.17" stroke="hsl(324.5, 76%, 61.7%)" stroke-width="1.5"></path><path d="M694.03 643.92L694.03 643.92" stroke="hsl(324.5, 76%, 61.7%)" stroke-width="1.5"></path><path d="M694.03 643.92L848.52 682.33" stroke="hsl(324.5, 76%, 61.7%)" stroke-width="1.5"></path><path d="M694.03 643.92L846.57 550.37" stroke="hsl(324.5, 76%, 61.7%)" stroke-width="1.5"></path><path d="M694.03 643.92L514.76 638.06" stroke="hsl(324.5, 76%, 61.7%)" stroke-width="1.5"></path><path d="M694.03 643.92L966.02 680.76" stroke="hsl(324.5, 76%, 61.7%)" stroke-width="1.5"></path><path d="M826.81 347.17L826.81 347.17" stroke="hsl(324.5, 76%, 61.7%)" stroke-width="1.5"></path><path d="M826.81 347.17L996.13 337.87" stroke="hsl(324.5, 76%, 61.7%)" stroke-width="1.5"></path><path d="M846.57 550.37L846.57 550.37" stroke="hsl(324.5, 76%, 61.7%)" stroke-width="1.5"></path><path d="M846.57 550.37L998.92 531.79" stroke="hsl(324.5, 76%, 61.7%)" stroke-width="1.5"></path><path d="M996.13 337.87L996.13 337.87" stroke="hsl(324.5, 76%, 61.7%)" stroke-width="1.5"></path><path d="M996.13 337.87L1128.63 374.89" stroke="hsl(324.5, 76%, 61.7%)" stroke-width="1.5"></path><path d="M996.13 337.87L1118.48 254.89" stroke="hsl(324.5, 76%, 61.7%)" stroke-width="1.5"></path><path d="M996.13 337.87L998.92 531.79" stroke="hsl(324.5, 76%, 61.7%)" stroke-width="1.5"></path><path d="M998.92 531.79L998.92 531.79" stroke="hsl(324.5, 76%, 61.7%)" stroke-width="1.5"></path><path d="M998.92 531.79L1134.93 523.68" stroke="hsl(324.5, 76%, 61.7%)" stroke-width="1.5"></path><path d="M998.92 531.79L966.02 680.76" stroke="hsl(324.5, 76%, 61.7%)" stroke-width="1.5"></path><path d="M998.92 531.79L1134.83 646.82" stroke="hsl(324.5, 76%, 61.7%)" stroke-width="1.5"></path><path d="M966.02 680.76L966.02 680.76" stroke="hsl(324.5, 76%, 61.7%)" stroke-width="1.5"></path><path d="M966.02 680.76L1134.83 646.82" stroke="hsl(324.5, 76%, 61.7%)" stroke-width="1.5"></path><path d="M966.02 680.76L846.57 550.37" stroke="hsl(324.5, 76%, 61.7%)" stroke-width="1.5"></path><path d="M1118.48 254.89L1118.48 254.89" stroke="hsl(324.5, 76%, 61.7%)" stroke-width="1.5"></path><path d="M1118.48 254.89L1128.63 374.89" stroke="hsl(324.5, 76%, 61.7%)" stroke-width="1.5"></path><path d="M1118.48 254.89L1283.7 228.19" stroke="hsl(324.5, 76%, 61.7%)" stroke-width="1.5"></path><path d="M1118.48 254.89L1269.09 390.42" stroke="hsl(324.5, 76%, 61.7%)" stroke-width="1.5"></path><path d="M1128.63 374.89L1128.63 374.89" stroke="hsl(324.5, 76%, 61.7%)" stroke-width="1.5"></path><path d="M1128.63 374.89L1269.09 390.42" stroke="hsl(324.5, 76%, 61.7%)" stroke-width="1.5"></path><path d="M1128.63 374.89L1134.93 523.68" stroke="hsl(324.5, 76%, 61.7%)" stroke-width="1.5"></path><path d="M1128.63 374.89L998.92 531.79" stroke="hsl(324.5, 76%, 61.7%)" stroke-width="1.5"></path><path d="M1134.93 523.68L1134.93 523.68" stroke="hsl(324.5, 76%, 61.7%)" stroke-width="1.5"></path><path d="M1134.93 523.68L1134.83 646.82" stroke="hsl(324.5, 76%, 61.7%)" stroke-width="1.5"></path><path d="M1134.93 523.68L1269.09 390.42" stroke="hsl(324.5, 76%, 61.7%)" stroke-width="1.5"></path><path d="M1134.83 646.82L1134.83 646.82" stroke="hsl(324.5, 76%, 61.7%)" stroke-width="1.5"></path><path d="M1245.75 73.57L1245.75 73.57" stroke="hsl(324.5, 76%, 61.7%)" stroke-width="1.5"></path><path d="M1245.75 73.57L1283.7 228.19" stroke="hsl(324.5, 76%, 61.7%)" stroke-width="1.5"></path><path d="M1283.7 228.19L1283.7 228.19" stroke="hsl(324.5, 76%, 61.7%)" stroke-width="1.5"></path><path d="M1283.7 228.19L1269.09 390.42" stroke="hsl(324.5, 76%, 61.7%)" stroke-width="1.5"></path><path d="M1269.09 390.42L1269.09 390.42" stroke="hsl(324.5, 76%, 61.7%)" stroke-width="1.5"></path><path d="M1269.09 390.42L1399.15 489.25" stroke="hsl(324.5, 76%, 61.7%)" stroke-width="1.5"></path><path d="M1403.17 -85.81L1403.17 -85.81" stroke="hsl(324.5, 76%, 61.7%)" stroke-width="1.5"></path><path d="M1403.17 -85.81L1437.82 63.59" stroke="hsl(324.5, 76%, 61.7%)" stroke-width="1.5"></path><path d="M1403.17 -85.81L1578.35 -64" stroke="hsl(324.5, 76%, 61.7%)" stroke-width="1.5"></path><path d="M1403.17 -85.81L1556.99 63.09" stroke="hsl(324.5, 76%, 61.7%)" stroke-width="1.5"></path><path d="M1403.17 -85.81L1245.75 73.57" stroke="hsl(324.5, 76%, 61.7%)" stroke-width="1.5"></path><path d="M1437.82 63.59L1437.82 63.59" stroke="hsl(324.5, 76%, 61.7%)" stroke-width="1.5"></path><path d="M1437.82 63.59L1556.99 63.09" stroke="hsl(324.5, 76%, 61.7%)" stroke-width="1.5"></path><path d="M1451.18 361.37L1451.18 361.37" stroke="hsl(324.5, 76%, 61.7%)" stroke-width="1.5"></path><path d="M1399.15 489.25L1399.15 489.25" stroke="hsl(324.5, 76%, 61.7%)" stroke-width="1.5"></path><path d="M1399.15 489.25L1451.18 361.37" stroke="hsl(324.5, 76%, 61.7%)" stroke-width="1.5"></path><path d="M1578.35 -64L1578.35 -64" stroke="hsl(324.5, 76%, 61.7%)" stroke-width="1.5"></path><path d="M1578.35 -64L1556.99 63.09" stroke="hsl(324.5, 76%, 61.7%)" stroke-width="1.5"></path><path d="M1556.99 63.09L1556.99 63.09" stroke="hsl(324.5, 76%, 61.7%)" stroke-width="1.5"></path><path d="M1556.99 63.09L1601.52 210.33" stroke="hsl(324.5, 76%, 61.7%)" stroke-width="1.5"></path><path d="M1556.99 63.09L1444.28 260.61" stroke="hsl(324.5, 76%, 61.7%)" stroke-width="1.5"></path><path d="M1601.52 210.33L1601.52 210.33" stroke="hsl(324.5, 76%, 61.7%)" stroke-width="1.5"></path><path d="M1601.52 210.33L1584.66 344.04" stroke="hsl(324.5, 76%, 61.7%)" stroke-width="1.5"></path><path d="M1601.52 210.33L1444.28 260.61" stroke="hsl(324.5, 76%, 61.7%)" stroke-width="1.5"></path><path d="M1584.66 344.04L1584.66 344.04" stroke="hsl(324.5, 76%, 61.7%)" stroke-width="1.5"></path><path d="M1584.66 344.04L1451.18 361.37" stroke="hsl(324.5, 76%, 61.7%)" stroke-width="1.5"></path><path d="M1584.66 344.04L1611.81 534.13" stroke="hsl(324.5, 76%, 61.7%)" stroke-width="1.5"></path><path d="M1611.81 534.13L1611.81 534.13" stroke="hsl(324.5, 76%, 61.7%)" stroke-width="1.5"></path><path d="M1611.81 534.13L1607.28 646.28" stroke="hsl(324.5, 76%, 61.7%)" stroke-width="1.5"></path><path d="M1611.81 534.13L1399.15 489.25" stroke="hsl(324.5, 76%, 61.7%)" stroke-width="1.5"></path><path d="M1611.81 534.13L1451.18 361.37" stroke="hsl(324.5, 76%, 61.7%)" stroke-width="1.5"></path><path d="M1607.28 646.28L1607.28 646.28" stroke="hsl(324.5, 76%, 61.7%)" stroke-width="1.5"></path><path d="M1607.28 646.28L1399.15 489.25" stroke="hsl(324.5, 76%, 61.7%)" stroke-width="1.5"></path><path d="M1607.28 646.28L1584.66 344.04" stroke="hsl(324.5, 76%, 61.7%)" stroke-width="1.5"></path><path d="M1607.28 646.28L1451.18 361.37" stroke="hsl(324.5, 76%, 61.7%)" stroke-width="1.5"></path><path d="M1607.28 646.28L1270.28 645.42" stroke="hsl(324.5, 76%, 61.7%)" stroke-width="1.5"></path><circle r="25" cx="848.52" cy="682.33" fill="url(#SvgjsRadialGradient1105)"></circle><circle r="25" cx="1296.81" cy="-58.99" fill="url(#SvgjsRadialGradient1105)"></circle><circle r="25" cx="1241" cy="555.27" fill="url(#SvgjsRadialGradient1105)"></circle><circle r="25" cx="1270.28" cy="645.42" fill="url(#SvgjsRadialGradient1105)"></circle><circle r="25" cx="1444.28" cy="260.61" fill="url(#SvgjsRadialGradient1105)"></circle><circle r="25" cx="1412.28" cy="702.58" fill="url(#SvgjsRadialGradient1105)"></circle><circle r="5" cx="-87.12" cy="556.62" fill="#ea8ec5"></circle><circle r="5" cx="-91.89" cy="690.82" fill="#ea8ec5"></circle><circle r="5" cx="43.57" cy="514.66" fill="#ea8ec5"></circle><circle r="5" cx="108.08" cy="648.65" fill="#ea8ec5"></circle><circle r="5" cx="221.04" cy="549.04" fill="#ea8ec5"></circle><circle r="5" cx="204.14" cy="667.86" fill="#ea8ec5"></circle><circle r="5" cx="402.58" cy="550.45" fill="#ea8ec5"></circle><circle r="5" cx="352.4" cy="687.6" fill="#ea8ec5"></circle><circle r="5" cx="554.81" cy="536.99" fill="#ea8ec5"></circle><circle r="5" cx="514.76" cy="638.06" fill="#ea8ec5"></circle><circle r="5" cx="687.68" cy="527.85" fill="#ea8ec5"></circle><circle r="5" cx="694.03" cy="643.92" fill="#ea8ec5"></circle><circle r="5" cx="826.81" cy="347.17" fill="#ea8ec5"></circle><circle r="5" cx="846.57" cy="550.37" fill="#ea8ec5"></circle><circle r="5" cx="996.13" cy="337.87" fill="#ea8ec5"></circle><circle r="5" cx="998.92" cy="531.79" fill="#ea8ec5"></circle><circle r="5" cx="966.02" cy="680.76" fill="#ea8ec5"></circle><circle r="5" cx="1118.48" cy="254.89" fill="#ea8ec5"></circle><circle r="5" cx="1128.63" cy="374.89" fill="#ea8ec5"></circle><circle r="5" cx="1134.93" cy="523.68" fill="#ea8ec5"></circle><circle r="5" cx="1134.83" cy="646.82" fill="#ea8ec5"></circle><circle r="5" cx="1245.75" cy="73.57" fill="#ea8ec5"></circle><circle r="5" cx="1283.7" cy="228.19" fill="#ea8ec5"></circle><circle r="5" cx="1269.09" cy="390.42" fill="#ea8ec5"></circle><circle r="5" cx="1403.17" cy="-85.81" fill="#ea8ec5"></circle><circle r="5" cx="1437.82" cy="63.59" fill="#ea8ec5"></circle><circle r="5" cx="1451.18" cy="361.37" fill="#ea8ec5"></circle><circle r="5" cx="1399.15" cy="489.25" fill="#ea8ec5"></circle><circle r="5" cx="1578.35" cy="-64" fill="#ea8ec5"></circle><circle r="5" cx="1556.99" cy="63.09" fill="#ea8ec5"></circle><circle r="5" cx="1601.52" cy="210.33" fill="#ea8ec5"></circle><circle r="5" cx="1584.66" cy="344.04" fill="#ea8ec5"></circle><circle r="5" cx="1611.81" cy="534.13" fill="#ea8ec5"></circle><circle r="5" cx="1607.28" cy="646.28" fill="#ea8ec5"></circle></g><defs><mask id="SvgjsMask1104"><rect width="1440" height="560" fill="#ffffff"></rect></mask><radialGradient id="SvgjsRadialGradient1105"><stop stop-color="#ffffff" offset="0.1"></stop><stop stop-color="rgba(213, 29, 138, 1)" offset="0.2"></stop><stop stop-color="rgba(213, 29, 138, 0)" offset="1"></stop></radialGradient></defs></svg>